<svg xmlns="http://www.w3.org/2000/svg" width="240" viewBox="0 0 240 187.5" height="187.5" version="1.0"><defs><clipPath id="a"><path d="M 38.742188 13.867188 L 201 13.867188 L 201 173.195312 L 38.742188 173.195312 Z M 38.742188 13.867188"/></clipPath><clipPath id="b"><path d="M 38.742188 38 L 118 38 L 118 169 L 38.742188 169 Z M 38.742188 38"/></clipPath><clipPath id="c"><path d="M 94 13.867188 L 136 13.867188 L 136 49 L 94 49 Z M 94 13.867188"/></clipPath></defs><g clip-path="url(#a)"><path fill="#2AA1BB" d="M 200.933594 93.558594 C 200.933594 137.554688 164.652344 173.222656 119.902344 173.222656 C 75.148438 173.222656 38.871094 137.554688 38.871094 93.558594 C 38.871094 49.558594 75.148438 13.890625 119.902344 13.890625 C 164.652344 13.890625 200.933594 49.558594 200.933594 93.558594"/></g><g clip-path="url(#b)"><path fill="#75BC38" d="M 93.425781 168.867188 C 94.503906 167.734375 93.691406 163.992188 95.34375 164.613281 C 97.136719 165.285156 99.152344 162.589844 98.03125 161.917969 C 96.910156 161.238281 96.210938 159.445312 98.355469 160.117188 C 100.496094 160.792969 102.292969 162.515625 102.292969 159.972656 C 102.292969 157.421875 102.066406 157.421875 103.636719 156.523438 C 105.207031 155.625 103.863281 152.707031 104.984375 152.480469 C 106.105469 152.257812 107.675781 151.804688 109.695312 151.132812 C 111.710938 150.460938 114.625 143.496094 113.730469 141.921875 C 112.835938 140.351562 117.765625 139.695312 117.09375 134.410156 C 116.421875 129.121094 107.449219 127.773438 104.3125 126.875 C 101.171875 125.976562 100.949219 127.101562 102.292969 124.628906 C 103.636719 122.15625 99.824219 119.460938 96.910156 118.789062 C 93.996094 118.113281 91.304688 115.867188 92.425781 114.296875 C 93.546875 112.722656 87.265625 114.746094 85.699219 113.175781 C 84.128906 111.601562 84.128906 110.476562 80.988281 113.175781 C 77.847656 115.867188 78.296875 119.015625 76.503906 115.644531 C 74.707031 112.273438 73.589844 113.507812 72.015625 113.507812 C 70.449219 113.507812 71.457031 109.691406 71.34375 108.457031 C 71.234375 107.222656 69.101562 106.660156 67.867188 106.546875 C 66.632812 106.433594 70.449219 102.277344 67.867188 101.71875 C 65.289062 101.15625 62.710938 104.1875 62.488281 105.085938 C 62.261719 105.984375 58.109375 105.199219 59.121094 103.066406 C 60.128906 100.933594 56.320312 92.484375 64.390625 92.777344 C 72.464844 93.070312 72.691406 97.449219 73.921875 97.449219 C 75.15625 97.449219 75.269531 92.285156 75.941406 90.152344 C 76.617188 88.015625 79.304688 85.878906 80.089844 85.769531 C 80.875 85.65625 78.519531 79.816406 80.316406 80.378906 C 82.105469 80.9375 84.6875 78.921875 86.03125 78.019531 C 87.378906 77.121094 88.949219 73.640625 89.398438 72.292969 C 89.398438 72.292969 89.882812 73.757812 91.078125 73.640625 C 93.835938 73.367188 97.691406 71.058594 97.582031 70.160156 C 97.46875 69.257812 93.433594 70.71875 93.65625 68.585938 C 93.882812 66.453125 90.292969 64.878906 92.757812 64.433594 C 95.226562 63.980469 97.355469 64.320312 98.925781 64.433594 C 100.496094 64.542969 100.609375 66.226562 100.609375 66.679688 C 100.609375 67.125 101.957031 67.800781 103.863281 67.460938 C 105.769531 67.125 102.515625 62.519531 101.285156 62.519531 C 100.050781 62.519531 103.414062 60.609375 102.515625 58.703125 C 101.617188 56.792969 97.386719 48.761719 96.800781 50.277344 C 96.800781 50.277344 95.453125 53.199219 93.882812 51.628906 C 92.3125 50.054688 92.988281 47.359375 89.84375 47.695312 C 86.707031 48.03125 85.699219 46.460938 85.359375 55.445312 C 85.699219 59.039062 83.007812 58.367188 82.449219 59.261719 C 81.882812 60.160156 81.996094 66.113281 80.089844 64.542969 C 78.183594 62.972656 78.296875 59.9375 78.519531 58.703125 C 78.746094 57.464844 73.027344 56.679688 72.015625 55.445312 C 71.007812 54.207031 72.914062 49.042969 75.046875 48.144531 C 77.175781 47.246094 77.847656 43.539062 79.980469 43.539062 C 82.105469 43.539062 83.226562 43.425781 83.902344 40.957031 C 84.578125 38.484375 82.894531 38.375 81.660156 39.050781 C 80.429688 39.722656 79.417969 39.722656 78.296875 39.273438 C 77.175781 38.824219 74.59375 39.949219 74.035156 40.84375 C 73.476562 41.742188 71.34375 42.53125 69.886719 42.191406 C 68.429688 41.855469 68.09375 42.644531 67.195312 43.652344 C 66.296875 44.664062 59.589844 44.105469 58.964844 43.425781 C 58.875 43.332031 58.226562 43.222656 57.191406 43.105469 C 46.238281 56.242188 39.484375 72.882812 38.910156 91.054688 C 40.527344 91.316406 41.820312 91.441406 42.191406 91.269531 C 43.421875 90.710938 43.085938 100.933594 45.664062 100.03125 C 48.246094 99.132812 44.207031 94.53125 46.339844 93.855469 C 48.472656 93.183594 49.367188 95.878906 49.925781 99.132812 C 50.484375 102.390625 50.265625 107.78125 53.738281 108.230469 C 57.214844 108.679688 60.578125 107.78125 61.589844 108.792969 C 62.597656 109.804688 66.523438 108.792969 68.992188 114.183594 C 71.457031 119.574219 70.671875 115.753906 72.242188 116.207031 C 73.808594 116.65625 75.828125 116.84375 75.828125 118.453125 C 75.828125 124.628906 70.109375 124.851562 72.691406 129.347656 C 72.691406 129.347656 78.410156 139.339844 83.566406 142.039062 C 86.753906 143.703125 85.917969 156.128906 84.8125 165.382812 C 87.597656 166.703125 90.472656 167.863281 93.425781 168.867188"/></g><path fill="#75BC38" d="M 65.960938 41.445312 C 67.90625 41.144531 67.90625 38.1875 69.25 38.695312 C 70.597656 39.199219 71.492188 38.300781 70.449219 36.503906 C 69.398438 34.707031 70 34.855469 69.398438 32.761719 C 69.308594 32.4375 69.128906 32.0625 68.882812 31.667969 C 66.097656 33.886719 63.464844 36.285156 61.007812 38.84375 C 62.875 41.027344 64.0625 41.738281 65.960938 41.445312"/><path fill="#75BC38" d="M 72.542969 33.988281 C 74.335938 34.554688 74.480469 35.007812 75.082031 36.054688 C 75.679688 37.101562 76.425781 36.652344 77.027344 36.054688 C 77.625 35.453125 80.167969 34.734375 78.519531 33.820312 C 76.875 32.910156 77.476562 33.359375 77.027344 31.710938 C 76.578125 30.0625 74.035156 29.765625 74.335938 30.960938 C 74.445312 31.398438 70.746094 33.421875 72.542969 33.988281"/><path fill="#75BC38" d="M 79.066406 24.972656 C 78.96875 26.46875 76.578125 27.816406 77.921875 28.566406 C 79.265625 29.3125 80.316406 29.914062 81.359375 29.164062 C 82.40625 28.417969 81.808594 26.320312 83.453125 26.46875 C 85.101562 26.621094 86.292969 27.21875 87.339844 26.46875 C 88.386719 25.71875 87.9375 24.371094 89.285156 23.476562 C 90.628906 22.578125 93.023438 21.378906 92.425781 19.28125 C 92.371094 19.101562 92.28125 18.898438 92.15625 18.683594 C 87.546875 20.335938 83.136719 22.390625 78.964844 24.796875 L 79.066406 24.972656"/><path fill="#75BC38" d="M 90.628906 39.949219 C 89.433594 39.5 88.535156 40.222656 87.789062 41.507812 C 87.042969 42.792969 85.550781 44.589844 86.816406 44.4375 C 88.089844 44.289062 88.539062 43.558594 89.882812 44.449219 C 91.230469 45.339844 90.820312 48.78125 92.519531 46.535156 C 94.21875 44.289062 94.519531 44.140625 95.414062 43.242188 C 96.308594 42.34375 95.714844 38.867188 96.910156 40.15625 C 98.105469 41.445312 99.75 40.136719 99.75 38.695312 C 99.75 37.25 99.453125 38 98.257812 35.90625 C 97.058594 33.808594 98.40625 32.011719 96.308594 31.5625 C 94.21875 31.109375 93.320312 33.246094 93.171875 30.230469 C 93.023438 27.21875 92.570312 26.621094 90.929688 27.066406 C 89.285156 27.519531 87.640625 28.867188 86.449219 28.417969 C 85.25 27.964844 84.800781 27.90625 83.152344 29.507812 C 81.511719 31.109375 78.671875 32.957031 80.167969 33.457031 C 81.660156 33.957031 79.570312 36.054688 82.105469 35.007812 C 83.605469 34.386719 85.699219 35.808594 86.449219 34.0625 C 87.195312 32.308594 89.285156 33.113281 89.734375 34.0625 C 90.179688 35.007812 89.433594 37.308594 90.628906 36.683594 C 91.828125 36.054688 91.828125 40.394531 90.628906 39.949219"/><g clip-path="url(#c)"><path fill="#75BC38" d="M 121.132812 38.695312 C 122.175781 38.75 122.175781 35.90625 124.570312 35.007812 C 126.960938 34.105469 129.5 32.160156 131.59375 32.761719 C 133.691406 33.359375 133.988281 30.554688 133.539062 30.230469 C 133.089844 29.914062 129.652344 29.554688 128.902344 29.507812 C 128.15625 29.464844 128.1875 27.011719 128.753906 26.933594 C 129.410156 26.847656 132.042969 26.804688 132.640625 26.933594 C 134.835938 27.722656 135.484375 20.03125 134.886719 17.933594 C 134.886719 17.933594 132.042969 18.683594 133.089844 16.136719 C 133.257812 15.726562 133.410156 15.355469 133.550781 15.023438 C 129.109375 14.285156 124.550781 13.890625 119.902344 13.890625 C 111.191406 13.890625 102.804688 15.25 94.945312 17.746094 C 95.289062 19.675781 96.324219 24.023438 97.65625 23.175781 C 99.304688 22.128906 98.554688 23.667969 99.75 21.023438 L 104.382812 21.023438 L 105.285156 23.285156 C 106.03125 24.523438 106.925781 24.371094 106.925781 25.570312 C 106.925781 26.769531 105.285156 29.855469 106.925781 29.507812 C 108.570312 29.164062 109.46875 29.355469 109.019531 30.230469 C 108.570312 31.109375 105.730469 30.8125 106.332031 32.308594 C 106.925781 33.808594 109.019531 33.414062 108.421875 34.0625 C 107.824219 34.707031 100.199219 39.199219 111.113281 47.882812 C 115.738281 50.492188 117.09375 41.292969 117.839844 39.347656 C 117.839844 39.347656 120.085938 38.640625 121.132812 38.695312"/></g><path fill="#75BC38" d="M 130.546875 39.949219 C 128.976562 41.070312 134.359375 43.316406 135.199219 44.4375 C 136.042969 45.5625 139.519531 40.621094 141.3125 39.949219 C 143.109375 39.273438 139.964844 34.78125 139.742188 36.683594 C 139.519531 38.585938 136.382812 37.25 133.015625 37.109375 C 129.652344 36.96875 131.476562 39.28125 130.546875 39.949219"/><path fill="#75BC38" d="M 148.34375 63.007812 C 149.148438 62.5 150.734375 61.808594 151.925781 61.808594 C 153.125 61.808594 153.871094 60.3125 154.320312 58.964844 C 154.769531 57.621094 153.125 58.214844 152.226562 55.519531 C 151.332031 52.824219 150.433594 52.226562 150.136719 51.027344 C 149.835938 49.828125 149.390625 48.183594 148.34375 48.929688 C 147.292969 49.679688 144.753906 51.328125 146.246094 52.078125 C 147.742188 52.824219 148.332031 52.523438 148.640625 55.222656 C 148.941406 57.84375 147.144531 63.757812 148.34375 63.007812"/><path fill="#75BC38" d="M 147.441406 58.964844 C 148.640625 58.664062 147.441406 56.117188 147.441406 54.472656 C 147.441406 52.824219 146.546875 54.472656 144.605469 55.222656 C 142.660156 55.96875 144.15625 56.867188 143.554688 58.664062 C 142.960938 60.464844 144.769531 59.921875 144.605469 60.910156 C 144.453125 61.808594 146.246094 59.261719 147.441406 58.964844"/><path fill="#75BC38" d="M 191.625 75.46875 C 189.828125 75.585938 189.605469 76.472656 188.183594 75.46875 C 186.765625 74.460938 185.347656 73.640625 184.824219 74.238281 C 184.296875 74.839844 184.296875 76.296875 183.625 75.941406 C 182.953125 75.585938 182.503906 75.4375 182.503906 75.4375 C 181.230469 75.585938 179.511719 75.210938 180.335938 73.714844 C 181.160156 72.21875 182.355469 71.242188 181.753906 70.496094 C 181.160156 69.746094 181.605469 68.847656 183.402344 69.519531 C 185.195312 70.195312 186.015625 71.019531 186.539062 70.046875 C 187.0625 69.070312 188.109375 68.398438 188.632812 70.121094 C 189.15625 71.84375 189.230469 73.113281 190.203125 73.414062 C 191.175781 73.714844 193.417969 75.347656 191.625 75.46875 Z M 199.621094 93.855469 C 198.867188 93.222656 199.8125 91.207031 200.84375 89.875 C 199.707031 65.308594 187.257812 43.648438 168.492188 29.800781 C 164.542969 32.324219 165.21875 35.210938 164.785156 36.683594 C 164.339844 38.207031 158.957031 43.242188 157.757812 44.605469 C 156.566406 45.96875 157.757812 46.535156 157.757812 48.34375 C 157.757812 50.15625 158.359375 49.53125 159.40625 50.429688 C 160.449219 51.328125 161.199219 49.980469 162.480469 49.230469 C 163.765625 48.484375 163.59375 50.578125 163.738281 51.925781 C 163.890625 53.273438 164.785156 54.320312 165.683594 53.765625 C 166.578125 53.210938 167.628906 53.722656 167.175781 52.972656 C 166.730469 52.226562 166.730469 50.277344 167.777344 50.277344 C 168.824219 50.277344 169.273438 48.484375 169.421875 47.285156 C 169.574219 46.085938 167.476562 45.339844 167.476562 45.339844 C 167.476562 45.339844 167.027344 43.988281 167.925781 43.988281 C 168.824219 43.988281 169.71875 42.792969 169.421875 41.507812 C 169.121094 40.222656 170.917969 37.851562 173.308594 37.109375 C 175.699219 36.367188 173.757812 39.050781 172.710938 42.792969 C 171.664062 46.535156 173.15625 45.191406 173.90625 47.285156 C 174.652344 49.378906 176.746094 46.386719 177.644531 45.488281 C 178.539062 44.589844 180.035156 48.78125 178.539062 48.746094 C 177.046875 48.703125 176.296875 49.082031 175.253906 49.828125 C 174.207031 50.578125 175.699219 50.878906 175.253906 52.078125 C 174.800781 53.273438 173.90625 52.078125 172.113281 52.675781 C 170.320312 53.273438 172.113281 56.117188 171.511719 56.566406 C 170.917969 57.019531 168.972656 57.167969 166.730469 57.433594 C 164.488281 57.699219 161.496094 58.066406 160.003906 57.433594 C 158.507812 56.800781 157.015625 59.710938 156.710938 61.101562 C 156.414062 62.492188 154.617188 63.605469 152.863281 64.503906 C 151.109375 65.402344 150.582031 65.703125 149.328125 66.453125 C 148.070312 67.199219 151.03125 69 152.078125 69.445312 C 153.125 69.894531 152.824219 73.039062 152.824219 73.039062 L 145.789062 73.039062 L 144.53125 78.355469 L 145.707031 81.050781 C 145.707031 81.050781 150.210938 81.128906 150.433594 81.351562 C 150.65625 81.574219 153.203125 79.03125 153.203125 79.03125 C 152.554688 75.382812 157.984375 72.140625 158.285156 72.140625 C 158.582031 72.140625 162.84375 70.644531 162.992188 71.992188 C 163.140625 73.339844 167.253906 76.261719 167.476562 76.636719 C 167.703125 77.007812 167.554688 77.605469 167.027344 78.507812 C 166.507812 79.40625 168.300781 80.003906 168.226562 79.332031 C 168.152344 78.65625 169.195312 78.582031 170.09375 78.507812 C 170.992188 78.433594 170.695312 76.636719 169.273438 75.734375 C 167.851562 74.839844 165.160156 71.242188 164.859375 69.820312 C 164.5625 68.398438 166.058594 68.023438 167.328125 69.746094 C 168.601562 71.46875 172.738281 75.363281 172.738281 75.363281 C 172.738281 75.363281 173.308594 78.207031 172.738281 78.804688 C 172.171875 79.40625 174.054688 80.679688 174.207031 81.425781 C 174.355469 82.175781 176.296875 81.277344 177.046875 81.128906 C 177.792969 80.976562 176 78.507812 175.703125 77.234375 C 175.402344 75.957031 178.613281 77.011719 179.066406 77.234375 C 179.511719 77.460938 178.765625 82.027344 178.839844 82.777344 C 178.914062 83.523438 178.390625 82.476562 176.597656 83.597656 C 174.800781 84.71875 177.046875 85.246094 178.390625 85.769531 C 179.738281 86.292969 180.113281 82.550781 180.410156 82.625 C 180.710938 82.699219 187.363281 82.699219 187.660156 82.625 C 187.960938 82.550781 187.714844 86.953125 187.714844 86.953125 C 185.023438 87.699219 187.363281 89.960938 186.765625 90.113281 L 177.945312 89.8125 C 176.746094 89.0625 178.390625 87.71875 174.953125 87.566406 C 171.511719 87.417969 174.652344 88.464844 172.738281 90.261719 C 170.824219 92.058594 168.671875 89.214844 168.375 87.71875 C 168.074219 86.21875 164.1875 85.921875 164.1875 85.921875 L 163.140625 82.476562 C 162.09375 82.324219 154.398438 82.027344 154.398438 82.027344 C 153.726562 83.074219 152.675781 83.671875 149.089844 83.824219 C 145.5 83.972656 144.304688 87.113281 144.304688 87.113281 L 144.15625 92.058594 C 139.070312 93.40625 136.980469 98.5 136.980469 98.5 C 136.980469 98.5 136.382812 101.191406 136.0625 107.929688 C 135.75 114.667969 141.863281 120.960938 141.863281 120.960938 C 142.867188 123.207031 154.398438 118.5625 154.398438 118.5625 C 154.324219 120.507812 162.546875 119.910156 160.898438 126.050781 C 159.253906 132.191406 162.546875 131.140625 162.546875 133.539062 C 162.546875 135.933594 164.1875 141.773438 160.597656 145.515625 C 158.488281 147.71875 159.582031 155.925781 160.84375 162.3125 C 171.160156 156.359375 180.015625 148.234375 186.761719 138.570312 C 186.761719 138.441406 186.761719 138.308594 186.765625 138.179688 C 186.867188 130.648438 191.179688 127.339844 193.933594 125.992188 C 195.425781 122.699219 196.699219 119.292969 197.734375 115.785156 L 193.789062 115.417969 C 193.789062 115.417969 190.050781 102.390625 186.617188 96.851562 C 183.175781 91.308594 187.0625 92.777344 187.0625 92.777344 C 187.0625 92.777344 189.753906 96.101562 190.652344 97.75 C 191.550781 99.394531 190.652344 102.691406 191.550781 103.738281 C 192.445312 104.789062 193.492188 104.488281 193.34375 105.835938 C 193.191406 107.183594 194.539062 110.925781 195.285156 111.675781 C 195.785156 112.179688 197.765625 111.402344 199.015625 110.832031 C 200.1875 105.628906 200.839844 100.238281 200.917969 94.710938 C 200.269531 94.308594 199.792969 94 199.621094 93.855469"/><path fill="#75BC38" d="M 166.429688 82.777344 C 166.882812 83 168 82.699219 168.601562 81.875 C 169.195312 81.050781 168.152344 80.453125 167.554688 79.929688 C 166.953125 79.40625 166.359375 79.929688 165.53125 79.929688 C 165.53125 79.929688 164.785156 80.902344 165.53125 81.5 C 166.285156 82.101562 165.984375 82.550781 166.429688 82.777344"/><path fill="#3399AF" d="M 190.203125 73.414062 C 189.230469 73.113281 189.15625 71.84375 188.632812 70.121094 C 188.109375 68.398438 187.0625 69.070312 186.539062 70.046875 C 186.015625 71.019531 185.195312 70.195312 183.402344 69.519531 C 181.605469 68.847656 181.160156 69.746094 181.753906 70.496094 C 182.355469 71.242188 181.160156 72.21875 180.335938 73.714844 C 179.511719 75.210938 181.230469 75.585938 182.503906 75.4375 C 182.503906 75.4375 182.953125 75.585938 183.625 75.941406 C 184.296875 76.296875 184.296875 74.839844 184.824219 74.238281 C 185.347656 73.640625 186.765625 74.460938 188.183594 75.46875 C 189.605469 76.472656 189.828125 75.585938 191.625 75.46875 C 193.417969 75.347656 191.175781 73.714844 190.203125 73.414062"/></svg>