<svg xmlns="http://www.w3.org/2000/svg" width="150" viewBox="0 0 150 150" height="150" version="1.0"><defs><clipPath id="a"><path d="M 16.875 16.875 L 99 16.875 L 99 99 L 16.875 99 Z M 16.875 16.875"/></clipPath><clipPath id="b"><path d="M 89 91 L 133 91 L 133 133.125 L 89 133.125 Z M 89 91"/></clipPath></defs><g clip-path="url(#a)"><path fill="#FFF" d="M 57.59375 30.257812 C 72.679688 30.257812 84.914062 42.488281 84.914062 57.566406 C 84.914062 72.660156 72.679688 84.898438 57.59375 84.898438 C 42.503906 84.898438 30.273438 72.664062 30.273438 57.566406 C 30.273438 42.488281 42.503906 30.257812 57.59375 30.257812 M 57.59375 16.875 C 35.152344 16.875 16.890625 35.136719 16.890625 57.570312 C 16.890625 80.019531 35.152344 98.269531 57.589844 98.269531 C 80.035156 98.269531 98.289062 80.015625 98.289062 57.570312 C 98.289062 35.136719 80.035156 16.875 57.59375 16.875 Z M 57.59375 16.875"/></g><g clip-path="url(#b)"><path fill="#FFF" d="M 120.867188 133.113281 C 118.007812 133.113281 115.167969 132.027344 112.984375 129.847656 L 93.195312 110.050781 C 88.835938 105.699219 88.835938 98.652344 93.195312 94.285156 C 97.550781 89.929688 104.601562 89.929688 108.960938 94.285156 L 128.753906 114.082031 C 133.113281 118.4375 133.113281 125.492188 128.753906 129.847656 C 126.574219 132.027344 123.730469 133.113281 120.867188 133.113281 Z M 120.867188 133.113281"/></g><path fill="#FFF" d="M 89.074219 80.71875 L 99.949219 91.589844 L 90.488281 101.054688 L 79.613281 90.183594 Z M 89.074219 80.71875"/></svg>