<svg xmlns="http://www.w3.org/2000/svg" width="337.5" viewBox="0 0 337.5 412.5" height="412.5" version="1.0"><defs><clipPath id="a"><path d="M 35.25 47 L 266 47 L 266 278 L 35.25 278 Z M 35.25 47"/></clipPath><clipPath id="b"><path d="M 35.25 56 L 159 56 L 159 255 L 35.25 255 Z M 35.25 56"/></clipPath><clipPath id="c"><path d="M 42 40.4375 L 303 40.4375 L 303 321 L 42 321 Z M 42 40.4375"/></clipPath><clipPath id="d"><path d="M 135 309 L 166 309 L 166 371.9375 L 135 371.9375 Z M 135 309"/></clipPath><clipPath id="e"><path d="M 88 349 L 213 349 L 213 371.9375 L 88 371.9375 Z M 88 349"/></clipPath></defs><path stroke-linecap="round" transform="matrix(.1294 0 0 -.12931 -106.188 481.041)" fill="none" stroke-linejoin="round" d="M 1337.601416 1650.188795 L 2721.291137 3227.893834" stroke="#496592" stroke-width="42.186" stroke-miterlimit="10"/><g clip-path="url(#a)"><path fill="#B9D8F2" d="M 265.601562 162.378906 C 265.601562 225.949219 214.035156 277.480469 150.417969 277.480469 C 86.804688 277.480469 35.238281 225.949219 35.238281 162.378906 C 35.238281 98.808594 86.804688 47.265625 150.417969 47.265625 C 214.035156 47.265625 265.601562 98.808594 265.601562 162.378906"/></g><g clip-path="url(#b)"><path fill="#6EC399" d="M 81.214844 254.074219 C 81.34375 254.152344 81.472656 254.226562 81.617188 254.304688 C 86.003906 246.78125 99.070312 237.003906 91.761719 227.097656 C 89.625 224.214844 86.144531 222.714844 82.921875 221.113281 C 71.753906 215.550781 61.507812 206.617188 57.949219 194.65625 C 54.375 182.707031 59.539062 167.757812 71.222656 163.335938 C 79.078125 160.359375 88.550781 162.289062 95.578125 157.683594 C 104.324219 151.941406 104.765625 139.515625 109.59375 130.257812 C 110.589844 128.332031 111.882812 126.441406 113.8125 125.460938 C 116.296875 124.167969 119.273438 124.621094 122.054688 124.902344 C 131.796875 125.898438 141.789062 124.375 150.78125 120.496094 C 154.988281 118.683594 159.644531 114.921875 158.351562 110.523438 C 157.847656 108.765625 137.867188 101.820312 121.484375 95.277344 C 100.507812 86.886719 100.742188 75.636719 104.519531 56.777344 C 63.746094 74.5 35.238281 115.101562 35.238281 162.367188 C 35.238281 195.84375 51.515625 235.929688 81.214844 254.074219"/></g><path fill="#6EC399" d="M 231.476562 159.855469 C 224.28125 157.414062 216.351562 154.851562 208.652344 155.914062 C 205.015625 156.417969 200.40625 157.957031 197.792969 160.59375 C 195.515625 162.894531 195.945312 165.792969 196.707031 168.6875 C 198.738281 176.277344 203.230469 183.054688 204.433594 190.890625 C 205.726562 199.347656 202.632812 207.300781 197.054688 213.585938 C 185.796875 226.285156 164.433594 230.527344 159.644531 248.5 C 157.199219 257.640625 159.605469 267.417969 163.527344 276.730469 C 218.355469 270.523438 261.5 225.871094 265.328125 170.394531 C 253.761719 168.625 242.308594 163.542969 231.476562 159.855469"/><path fill="#FFF" d="M 238.984375 96.738281 C 246.632812 106.050781 248.871094 116.859375 243.964844 120.871094 C 239.074219 124.878906 228.902344 120.585938 221.253906 111.261719 C 213.605469 101.949219 211.382812 91.140625 216.273438 87.132812 C 221.164062 83.125 231.335938 87.417969 238.984375 96.738281"/><g clip-path="url(#c)"><path fill="#473D8A" d="M 229.472656 58.660156 C 229.964844 59.050781 230.441406 59.4375 230.921875 59.839844 C 287.613281 107.34375 295.039062 191.789062 247.5 248.4375 C 199.96875 305.101562 115.46875 312.527344 58.761719 265.015625 C 58.296875 264.617188 57.816406 264.214844 57.351562 263.800781 L 42.070312 282.019531 C 42.535156 282.433594 43 282.835938 43.480469 283.238281 C 110.238281 339.175781 209.75 330.449219 265.730469 263.722656 C 321.722656 197 312.976562 97.558594 246.203125 41.617188 C 245.726562 41.222656 245.246094 40.832031 244.769531 40.445312 L 229.472656 58.664062"/></g><g clip-path="url(#d)"><path fill="#473D8A" d="M 165.753906 371.8125 L 135.992188 371.8125 L 135.992188 309.742188 L 165.753906 309.742188 L 165.753906 371.8125"/></g><g clip-path="url(#e)"><path fill="#473D8A" d="M 212.339844 371.8125 L 88.113281 371.8125 C 98.554688 357.960938 114.886719 349.828125 132.238281 349.828125 L 168.210938 349.828125 C 185.566406 349.828125 201.910156 357.960938 212.339844 371.8125"/></g></svg>