<svg xmlns="http://www.w3.org/2000/svg" width="150" viewBox="0 0 150 150" height="150" version="1.0"><defs><clipPath id="a"><path d="M 7 9 L 143 9 L 143 142.6875 L 7 142.6875 Z M 7 9"/></clipPath></defs><g clip-path="url(#a)"><path fill="#FFCC4D" d="M 15.894531 142.199219 C 8.796875 142.199219 5.667969 137.03125 8.933594 130.714844 L 69.09375 14.632812 C 72.367188 8.320312 77.71875 8.320312 80.992188 14.632812 L 141.152344 130.71875 C 144.425781 137.03125 141.292969 142.199219 134.195312 142.199219 Z M 15.894531 142.199219"/></g><path fill="#231F20" d="M 65.730469 118.84375 C 65.730469 113.695312 69.910156 109.503906 75.050781 109.503906 C 80.191406 109.503906 84.371094 113.695312 84.371094 118.84375 C 84.371094 123.996094 80.1875 128.183594 75.050781 128.183594 C 69.910156 128.183594 65.730469 123.996094 65.730469 118.84375 Z M 66.445312 48.1875 C 66.445312 43.160156 70.148438 40.046875 75.046875 40.046875 C 79.832031 40.046875 83.65625 43.28125 83.65625 48.1875 L 83.65625 94.296875 C 83.65625 99.207031 79.832031 102.4375 75.046875 102.4375 C 70.148438 102.4375 66.445312 99.320312 66.445312 94.296875 Z M 66.445312 48.1875"/></svg>