<svg xmlns="http://www.w3.org/2000/svg" width="187.5" viewBox="0 0 187.5 187.5" height="187.5" version="1.0"><defs><clipPath id="a"><path d="M 5.824219 5.824219 L 181.324219 5.824219 L 181.324219 181.324219 L 5.824219 181.324219 Z M 5.824219 5.824219"/></clipPath></defs><g clip-path="url(#a)"><path fill="#0795FF" d="M 181.324219 93.574219 C 181.324219 95.011719 181.289062 96.445312 181.21875 97.882812 C 181.148438 99.316406 181.042969 100.746094 180.902344 102.175781 C 180.761719 103.605469 180.585938 105.03125 180.375 106.449219 C 180.164062 107.871094 179.917969 109.285156 179.640625 110.695312 C 179.359375 112.101562 179.042969 113.503906 178.695312 114.898438 C 178.347656 116.289062 177.964844 117.671875 177.546875 119.046875 C 177.128906 120.421875 176.679688 121.785156 176.195312 123.136719 C 175.710938 124.488281 175.195312 125.828125 174.644531 127.15625 C 174.097656 128.484375 173.515625 129.796875 172.898438 131.09375 C 172.285156 132.390625 171.640625 133.671875 170.964844 134.941406 C 170.285156 136.207031 169.578125 137.457031 168.839844 138.6875 C 168.101562 139.917969 167.335938 141.132812 166.535156 142.328125 C 165.738281 143.519531 164.914062 144.695312 164.058594 145.847656 C 163.203125 147 162.316406 148.132812 161.40625 149.242188 C 160.496094 150.351562 159.558594 151.441406 158.59375 152.503906 C 157.628906 153.570312 156.640625 154.609375 155.625 155.625 C 154.609375 156.640625 153.570312 157.628906 152.503906 158.59375 C 151.441406 159.558594 150.351562 160.496094 149.242188 161.40625 C 148.132812 162.316406 147 163.203125 145.847656 164.058594 C 144.695312 164.914062 143.519531 165.738281 142.328125 166.535156 C 141.132812 167.335938 139.917969 168.101562 138.6875 168.839844 C 137.457031 169.578125 136.207031 170.285156 134.941406 170.964844 C 133.671875 171.640625 132.390625 172.285156 131.09375 172.898438 C 129.796875 173.515625 128.484375 174.097656 127.15625 174.644531 C 125.828125 175.195312 124.488281 175.710938 123.136719 176.195312 C 121.785156 176.679688 120.421875 177.128906 119.046875 177.546875 C 117.671875 177.964844 116.289062 178.347656 114.898438 178.695312 C 113.503906 179.042969 112.101562 179.359375 110.695312 179.640625 C 109.285156 179.917969 107.871094 180.164062 106.449219 180.375 C 105.03125 180.585938 103.605469 180.761719 102.175781 180.902344 C 100.746094 181.042969 99.316406 181.148438 97.882812 181.21875 C 96.445312 181.289062 95.011719 181.324219 93.574219 181.324219 C 92.140625 181.324219 90.703125 181.289062 89.269531 181.21875 C 87.835938 181.148438 86.402344 181.042969 84.972656 180.902344 C 83.546875 180.761719 82.121094 180.585938 80.699219 180.375 C 79.277344 180.164062 77.863281 179.917969 76.457031 179.640625 C 75.046875 179.359375 73.648438 179.042969 72.253906 178.695312 C 70.859375 178.347656 69.476562 177.964844 68.101562 177.546875 C 66.726562 177.128906 65.367188 176.679688 64.011719 176.195312 C 62.660156 175.710938 61.320312 175.195312 59.996094 174.644531 C 58.667969 174.097656 57.355469 173.515625 56.058594 172.898438 C 54.757812 172.285156 53.476562 171.640625 52.210938 170.964844 C 50.945312 170.285156 49.695312 169.578125 48.460938 168.839844 C 47.230469 168.101562 46.019531 167.335938 44.824219 166.535156 C 43.628906 165.738281 42.457031 164.914062 41.300781 164.058594 C 40.148438 163.203125 39.015625 162.316406 37.90625 161.40625 C 36.796875 160.496094 35.710938 159.558594 34.644531 158.59375 C 33.582031 157.628906 32.542969 156.640625 31.527344 155.625 C 30.511719 154.609375 29.519531 153.570312 28.558594 152.503906 C 27.59375 151.441406 26.65625 150.351562 25.742188 149.242188 C 24.832031 148.132812 23.949219 147 23.09375 145.847656 C 22.238281 144.695312 21.410156 143.519531 20.613281 142.328125 C 19.816406 141.132812 19.046875 139.917969 18.308594 138.6875 C 17.570312 137.457031 16.863281 136.207031 16.1875 134.941406 C 15.507812 133.671875 14.863281 132.390625 14.25 131.09375 C 13.636719 129.796875 13.054688 128.484375 12.503906 127.15625 C 11.957031 125.828125 11.4375 124.488281 10.953125 123.136719 C 10.472656 121.785156 10.019531 120.421875 9.605469 119.046875 C 9.1875 117.671875 8.804688 116.289062 8.453125 114.898438 C 8.105469 113.503906 7.792969 112.101562 7.511719 110.695312 C 7.230469 109.285156 6.984375 107.871094 6.773438 106.449219 C 6.5625 105.03125 6.386719 103.605469 6.246094 102.175781 C 6.105469 100.746094 6 99.316406 5.929688 97.882812 C 5.859375 96.445312 5.824219 95.011719 5.824219 93.574219 C 5.824219 92.140625 5.859375 90.703125 5.929688 89.269531 C 6 87.835938 6.105469 86.402344 6.246094 84.972656 C 6.386719 83.546875 6.5625 82.121094 6.773438 80.699219 C 6.984375 79.277344 7.230469 77.863281 7.511719 76.457031 C 7.792969 75.046875 8.105469 73.648438 8.453125 72.253906 C 8.804688 70.859375 9.1875 69.476562 9.605469 68.101562 C 10.019531 66.730469 10.472656 65.367188 10.953125 64.011719 C 11.4375 62.660156 11.957031 61.320312 12.503906 59.996094 C 13.054688 58.667969 13.636719 57.355469 14.25 56.058594 C 14.863281 54.757812 15.507812 53.476562 16.1875 52.210938 C 16.863281 50.945312 17.570312 49.695312 18.308594 48.460938 C 19.046875 47.230469 19.816406 46.019531 20.613281 44.824219 C 21.410156 43.628906 22.238281 42.457031 23.09375 41.300781 C 23.949219 40.148438 24.832031 39.015625 25.742188 37.90625 C 26.65625 36.796875 27.59375 35.710938 28.558594 34.644531 C 29.519531 33.582031 30.511719 32.542969 31.527344 31.527344 C 32.542969 30.511719 33.582031 29.519531 34.644531 28.558594 C 35.710938 27.59375 36.796875 26.65625 37.90625 25.742188 C 39.015625 24.832031 40.148438 23.949219 41.300781 23.09375 C 42.457031 22.238281 43.628906 21.410156 44.824219 20.613281 C 46.019531 19.816406 47.230469 19.046875 48.460938 18.308594 C 49.695312 17.570312 50.945312 16.863281 52.210938 16.1875 C 53.476562 15.507812 54.757812 14.863281 56.058594 14.25 C 57.355469 13.636719 58.667969 13.054688 59.996094 12.503906 C 61.320312 11.957031 62.660156 11.4375 64.011719 10.953125 C 65.367188 10.472656 66.726562 10.019531 68.101562 9.605469 C 69.476562 9.1875 70.859375 8.804688 72.253906 8.453125 C 73.648438 8.105469 75.046875 7.792969 76.457031 7.511719 C 77.863281 7.230469 79.277344 6.984375 80.699219 6.773438 C 82.121094 6.5625 83.546875 6.386719 84.972656 6.246094 C 86.402344 6.105469 87.835938 6 89.269531 5.929688 C 90.703125 5.859375 92.140625 5.824219 93.574219 5.824219 C 95.011719 5.824219 96.445312 5.859375 97.882812 5.929688 C 99.316406 6 100.746094 6.105469 102.175781 6.246094 C 103.605469 6.386719 105.03125 6.5625 106.449219 6.773438 C 107.871094 6.984375 109.285156 7.230469 110.695312 7.511719 C 112.101562 7.792969 113.503906 8.105469 114.898438 8.453125 C 116.289062 8.804688 117.671875 9.1875 119.046875 9.605469 C 120.421875 10.019531 121.785156 10.472656 123.136719 10.953125 C 124.488281 11.4375 125.828125 11.957031 127.15625 12.503906 C 128.484375 13.054688 129.796875 13.636719 131.09375 14.25 C 132.390625 14.863281 133.671875 15.507812 134.941406 16.1875 C 136.207031 16.863281 137.457031 17.570312 138.6875 18.308594 C 139.917969 19.046875 141.132812 19.816406 142.328125 20.613281 C 143.519531 21.410156 144.695312 22.238281 145.847656 23.09375 C 147 23.949219 148.132812 24.832031 149.242188 25.742188 C 150.351562 26.65625 151.441406 27.59375 152.503906 28.558594 C 153.570312 29.519531 154.609375 30.511719 155.625 31.527344 C 156.640625 32.542969 157.628906 33.582031 158.59375 34.644531 C 159.558594 35.710938 160.496094 36.796875 161.40625 37.90625 C 162.316406 39.015625 163.203125 40.148438 164.058594 41.300781 C 164.914062 42.457031 165.738281 43.628906 166.535156 44.824219 C 167.335938 46.019531 168.101562 47.230469 168.839844 48.460938 C 169.578125 49.695312 170.285156 50.945312 170.964844 52.210938 C 171.640625 53.476562 172.285156 54.757812 172.898438 56.058594 C 173.515625 57.355469 174.097656 58.667969 174.644531 59.996094 C 175.195312 61.320312 175.710938 62.660156 176.195312 64.011719 C 176.679688 65.367188 177.128906 66.730469 177.546875 68.101562 C 177.964844 69.476562 178.347656 70.859375 178.695312 72.253906 C 179.042969 73.648438 179.359375 75.046875 179.640625 76.457031 C 179.917969 77.863281 180.164062 79.277344 180.375 80.699219 C 180.585938 82.121094 180.761719 83.546875 180.902344 84.972656 C 181.042969 86.402344 181.148438 87.835938 181.21875 89.269531 C 181.289062 90.703125 181.324219 92.140625 181.324219 93.574219 Z M 181.324219 93.574219"/></g><path fill="#FFF" d="M 100.886719 120.339844 L 100.886719 77.011719 C 100.886719 76.769531 100.839844 76.535156 100.75 76.3125 C 100.65625 76.089844 100.523438 75.890625 100.351562 75.71875 C 100.179688 75.546875 99.984375 75.417969 99.757812 75.324219 C 99.535156 75.230469 99.300781 75.183594 99.058594 75.183594 L 78.949219 75.183594 C 78.710938 75.183594 78.476562 75.230469 78.257812 75.324219 C 78.035156 75.417969 77.839844 75.550781 77.671875 75.722656 C 77.5 75.894531 77.375 76.089844 77.285156 76.316406 C 77.195312 76.539062 77.152344 76.773438 77.160156 77.011719 L 77.160156 87.980469 C 77.136719 88.230469 77.167969 88.476562 77.25 88.710938 C 77.332031 88.949219 77.457031 89.160156 77.628906 89.34375 C 77.800781 89.527344 78 89.671875 78.230469 89.769531 C 78.460938 89.871094 78.699219 89.917969 78.949219 89.917969 L 84.433594 89.917969 C 84.675781 89.917969 84.90625 89.964844 85.128906 90.058594 C 85.351562 90.152344 85.546875 90.285156 85.714844 90.457031 C 85.882812 90.628906 86.011719 90.828125 86.101562 91.050781 C 86.1875 91.273438 86.230469 91.507812 86.226562 91.746094 L 86.226562 120.414062 C 86.226562 120.648438 86.179688 120.878906 86.089844 121.097656 C 86 121.316406 85.871094 121.511719 85.703125 121.679688 C 85.535156 121.847656 85.339844 121.976562 85.121094 122.066406 C 84.902344 122.160156 84.671875 122.203125 84.433594 122.203125 L 78.949219 122.203125 C 78.710938 122.203125 78.484375 122.25 78.265625 122.339844 C 78.046875 122.429688 77.851562 122.558594 77.683594 122.726562 C 77.515625 122.894531 77.386719 123.089844 77.296875 123.308594 C 77.203125 123.527344 77.160156 123.757812 77.160156 123.996094 L 77.160156 134.964844 C 77.160156 135.203125 77.203125 135.429688 77.296875 135.648438 C 77.386719 135.867188 77.515625 136.0625 77.683594 136.230469 C 77.851562 136.398438 78.046875 136.527344 78.265625 136.621094 C 78.484375 136.710938 78.710938 136.753906 78.949219 136.753906 L 108.199219 136.753906 C 108.4375 136.753906 108.667969 136.710938 108.886719 136.621094 C 109.105469 136.527344 109.300781 136.398438 109.46875 136.230469 C 109.636719 136.0625 109.765625 135.867188 109.855469 135.648438 C 109.945312 135.429688 109.992188 135.203125 109.992188 134.964844 L 109.992188 123.996094 C 109.992188 123.757812 109.945312 123.527344 109.855469 123.308594 C 109.765625 123.089844 109.636719 122.894531 109.46875 122.726562 C 109.300781 122.558594 109.105469 122.429688 108.886719 122.339844 C 108.667969 122.25 108.4375 122.203125 108.199219 122.203125 L 102.714844 122.203125 C 102.46875 122.207031 102.230469 122.164062 102 122.070312 C 101.773438 121.976562 101.570312 121.84375 101.398438 121.667969 C 101.226562 121.488281 101.09375 121.285156 101.003906 121.054688 C 100.917969 120.824219 100.878906 120.585938 100.886719 120.339844 Z M 100.886719 120.339844"/><path fill="#DFE8F4" d="M 83.265625 62.386719 L 83.265625 55.914062 C 83.265625 55.546875 83.300781 55.183594 83.371094 54.824219 C 83.445312 54.464844 83.550781 54.113281 83.691406 53.773438 C 83.832031 53.4375 84.003906 53.113281 84.207031 52.808594 C 84.410156 52.503906 84.644531 52.21875 84.902344 51.960938 C 85.164062 51.699219 85.445312 51.46875 85.75 51.265625 C 86.054688 51.058594 86.378906 50.886719 86.71875 50.746094 C 87.058594 50.605469 87.40625 50.5 87.765625 50.429688 C 88.128906 50.359375 88.492188 50.320312 88.859375 50.320312 L 95.332031 50.320312 C 95.699219 50.320312 96.0625 50.359375 96.421875 50.429688 C 96.78125 50.5 97.132812 50.605469 97.472656 50.746094 C 97.808594 50.886719 98.132812 51.058594 98.4375 51.265625 C 98.742188 51.46875 99.027344 51.699219 99.285156 51.960938 C 99.546875 52.21875 99.777344 52.503906 99.980469 52.808594 C 100.1875 53.113281 100.359375 53.4375 100.5 53.773438 C 100.640625 54.113281 100.746094 54.464844 100.816406 54.824219 C 100.886719 55.183594 100.925781 55.546875 100.925781 55.914062 L 100.925781 62.386719 C 100.925781 62.753906 100.886719 63.117188 100.816406 63.480469 C 100.746094 63.839844 100.640625 64.1875 100.5 64.527344 C 100.359375 64.867188 100.1875 65.191406 99.980469 65.496094 C 99.777344 65.800781 99.546875 66.082031 99.285156 66.34375 C 99.027344 66.601562 98.742188 66.835938 98.4375 67.039062 C 98.132812 67.242188 97.808594 67.414062 97.472656 67.554688 C 97.132812 67.695312 96.78125 67.800781 96.421875 67.875 C 96.0625 67.945312 95.699219 67.980469 95.332031 67.980469 L 88.859375 67.980469 C 88.492188 67.980469 88.128906 67.945312 87.765625 67.875 C 87.40625 67.800781 87.058594 67.695312 86.71875 67.554688 C 86.378906 67.414062 86.054688 67.242188 85.75 67.039062 C 85.445312 66.835938 85.164062 66.601562 84.902344 66.34375 C 84.644531 66.082031 84.410156 65.800781 84.207031 65.496094 C 84.003906 65.191406 83.832031 64.867188 83.691406 64.527344 C 83.550781 64.1875 83.445312 63.839844 83.371094 63.480469 C 83.300781 63.117188 83.265625 62.753906 83.265625 62.386719 Z M 83.265625 62.386719"/></svg>