<svg xmlns="http://www.w3.org/2000/svg" width="187.5" viewBox="0 0 187.5 187.5" height="187.5" version="1.0"><defs><clipPath id="a"><path d="M 7.28125 7.28125 L 180.53125 7.28125 L 180.53125 180.53125 L 7.28125 180.53125 Z M 7.28125 7.28125"/></clipPath></defs><g clip-path="url(#a)"><path fill="#5CB85C" d="M 134.695312 74.066406 L 91.398438 117.378906 C 88.03125 120.777344 82.539062 120.808594 79.140625 117.425781 C 79.125 117.410156 79.109375 117.410156 79.09375 117.378906 L 61.777344 100.058594 C 58.375 96.660156 58.375 91.152344 61.777344 87.753906 C 65.160156 84.355469 70.667969 84.355469 74.066406 87.753906 L 85.246094 99.011719 L 122.40625 61.777344 C 125.804688 58.375 131.3125 58.375 134.695312 61.777344 C 138.097656 65.160156 138.097656 70.667969 134.695312 74.066406 Z M 93.90625 7.28125 C 46.070312 7.28125 7.28125 46.058594 7.28125 93.90625 C 7.28125 141.742188 46.070312 180.53125 93.90625 180.53125 C 141.757812 180.53125 180.53125 141.742188 180.53125 93.90625 C 180.53125 46.058594 141.757812 7.28125 93.90625 7.28125"/></g></svg>