<svg xmlns="http://www.w3.org/2000/svg" width="187.5" viewBox="0 0 187.5 187.5" height="187.5" version="1.0"><path fill="#FFCC4D" d="M 18.679688 178.636719 C 9.664062 178.636719 5.6875 172.089844 9.839844 164.089844 L 86.257812 17.054688 C 90.414062 9.054688 97.214844 9.054688 101.371094 17.054688 L 177.792969 164.09375 C 181.953125 172.089844 177.972656 178.636719 168.953125 178.636719 Z M 18.679688 178.636719"/><path fill="#FFF" d="M 81.984375 149.050781 C 81.984375 142.53125 87.296875 137.222656 93.828125 137.222656 C 100.355469 137.222656 105.664062 142.53125 105.664062 149.050781 C 105.664062 155.578125 100.347656 160.886719 93.828125 160.886719 C 87.296875 160.886719 81.984375 155.578125 81.984375 149.050781 Z M 82.894531 59.558594 C 82.894531 53.1875 87.601562 49.246094 93.824219 49.246094 C 99.898438 49.246094 104.753906 53.339844 104.753906 59.558594 L 104.753906 117.960938 C 104.753906 124.179688 99.898438 128.273438 93.824219 128.273438 C 87.601562 128.273438 82.894531 124.328125 82.894531 117.960938 Z M 82.894531 59.558594"/></svg>