<?xml version="1.0" encoding="UTF-8"?><svg xmlns="http://www.w3.org/2000/svg" xmlns:xlink="http://www.w3.org/1999/xlink" contentScriptType="text/ecmascript" width="240" zoomAndPan="magnify" contentStyleType="text/css" viewBox="0 0 240 187.499995" height="187.499995" preserveAspectRatio="xMidYMid meet" version="1.0"><defs><clipPath id="clip-0"><path d="M 50.363281 15.652344 L 189.492188 15.652344 L 189.492188 171.238281 L 50.363281 171.238281 Z M 50.363281 15.652344 " clip-rule="nonzero"/></clipPath></defs><g clip-path="url(#clip-0)"><path fill="rgb(100%, 52.549744%, 31.369019%)" d="M 77.214844 20.96875 C 77.628906 21.011719 78.128906 20.761719 78.292969 20.804688 C 78.460938 20.847656 79.085938 20.886719 79.5 20.929688 C 79.914062 20.96875 80.164062 20.722656 80.164062 20.722656 C 80.164062 20.722656 80.539062 21.011719 80.871094 21.179688 C 81.203125 21.34375 82.53125 21.179688 83.03125 20.886719 C 83.527344 20.597656 83.941406 19.890625 84.152344 19.683594 C 84.359375 19.476562 85.105469 19.476562 85.105469 19.476562 L 85.644531 19.226562 C 85.976562 19.390625 86.101562 19.226562 86.394531 18.933594 C 86.683594 18.644531 87.058594 18.519531 87.308594 18.4375 C 87.558594 18.351562 87.472656 18.226562 88.261719 17.8125 C 89.050781 17.398438 91.585938 17.398438 91.585938 17.398438 L 92.25 16.941406 C 92.25 16.941406 92.75 17.023438 93.082031 17.023438 C 93.414062 17.023438 93.953125 16.773438 93.953125 16.773438 L 96.070312 16.816406 L 96.570312 17.148438 L 97.109375 17.230469 C 97.109375 17.230469 97.484375 16.941406 97.980469 16.773438 C 98.480469 16.609375 98.769531 16.152344 98.769531 16.152344 C 98.769531 16.152344 100.058594 16.648438 100.308594 16.609375 C 100.558594 16.566406 100.765625 16.191406 100.765625 16.191406 L 101.304688 16.398438 L 101.929688 16.691406 L 102.550781 16.484375 C 102.550781 16.484375 102.839844 16.523438 103.132812 16.609375 C 103.421875 16.691406 103.796875 16.484375 103.796875 16.484375 C 104.335938 15.941406 105.417969 15.652344 105.75 15.652344 C 106.082031 15.652344 106.539062 15.902344 106.539062 15.902344 C 106.496094 16.152344 106.910156 16.566406 106.910156 16.566406 L 106.789062 16.816406 L 107.121094 16.980469 L 107.285156 16.898438 C 107.285156 16.898438 107.492188 16.734375 107.660156 16.691406 C 107.824219 16.648438 107.90625 16.523438 107.90625 16.316406 C 107.90625 16.109375 108.199219 16.359375 108.199219 16.359375 L 108.445312 16.734375 L 108.238281 17.273438 C 108.238281 17.273438 107.984375 17.5625 107.527344 17.894531 C 107.070312 18.230469 107.226562 19.058594 107.394531 19.351562 C 107.558594 19.640625 107.792969 19.390625 107.792969 19.390625 L 107.886719 19.601562 L 108.15625 20.097656 C 108.15625 20.097656 108.15625 20.058594 108.15625 20.304688 C 108.15625 20.554688 108.386719 21.054688 108.386719 21.054688 C 108.386719 21.054688 107.910156 21.84375 107.660156 22.21875 C 107.410156 22.589844 106.414062 23.171875 106.414062 23.171875 L 106.328125 23.671875 L 105.875 23.628906 L 105.996094 24.378906 C 105.996094 24.378906 106.328125 24.710938 106.621094 24.753906 C 106.910156 24.792969 107.078125 24.710938 107.078125 24.710938 L 107.367188 25.085938 L 107.824219 24.960938 L 108.15625 25.75 L 108.820312 25.875 C 108.820312 25.875 110.648438 26.789062 111.105469 26.828125 C 111.5625 26.871094 111.8125 26.582031 112.3125 26.539062 C 112.808594 26.496094 112.890625 26.746094 113.140625 26.828125 C 113.390625 26.914062 113.722656 26.746094 114.011719 26.953125 C 114.304688 27.164062 115.59375 27.621094 116.296875 27.953125 C 117.003906 28.285156 116.753906 29.199219 116.753906 29.199219 C 116.753906 29.199219 117.75 30.238281 118.167969 30.445312 C 118.582031 30.652344 120.203125 30.777344 120.574219 30.859375 C 120.949219 30.941406 121.945312 31.484375 121.945312 31.484375 L 122.527344 31.648438 C 122.527344 31.648438 122.941406 32.105469 123.191406 32.3125 C 123.441406 32.523438 123.898438 32.8125 124.480469 32.769531 C 125.0625 32.730469 125.851562 31.816406 126.101562 31.484375 C 126.347656 31.152344 126.347656 30.859375 126.183594 30.527344 C 126.015625 30.195312 126.015625 29.945312 125.933594 29.65625 C 125.851562 29.363281 126.015625 28.367188 126.390625 28.074219 C 126.765625 27.785156 127.800781 26.914062 128.257812 26.789062 C 128.714844 26.664062 129.132812 26.582031 129.132812 26.582031 C 129.132812 26.582031 130.210938 26.496094 130.917969 26.789062 C 131.625 27.078125 131.875 26.953125 131.875 26.953125 L 132.207031 27.328125 L 132.207031 27.828125 C 132.207031 27.828125 132.453125 28.160156 132.703125 28.242188 C 132.953125 28.324219 133.785156 28.410156 134.117188 28.574219 C 134.449219 28.742188 134.90625 28.742188 135.402344 28.867188 C 135.902344 28.992188 136.277344 29.03125 136.277344 29.03125 C 136.566406 29.65625 136.773438 29.78125 137.230469 29.699219 C 137.6875 29.613281 139.640625 29.78125 140.179688 29.90625 C 140.71875 30.03125 141.925781 30.699219 142.628906 30.992188 C 143.335938 31.28125 144.417969 31.578125 144.417969 31.578125 L 146.035156 30.550781 C 146.035156 30.550781 146.578125 30.285156 147.035156 30.160156 C 147.492188 30.035156 148.613281 30.039062 148.613281 30.039062 C 148.613281 30.039062 149.234375 30.039062 149.691406 30.039062 C 150.148438 30.039062 150.441406 29.847656 150.441406 29.847656 C 150.441406 29.847656 150.441406 29.777344 150.605469 30.070312 C 150.773438 30.359375 151.226562 30.609375 151.226562 30.609375 L 151.644531 30.902344 C 151.644531 30.902344 153.054688 31.027344 153.429688 30.984375 C 153.804688 30.941406 154.800781 30.402344 154.800781 30.402344 L 156.335938 35.054688 C 156.335938 35.054688 155.671875 36.71875 155.546875 37.132812 C 155.421875 37.546875 155.546875 37.882812 155.175781 38.335938 C 154.800781 38.792969 153.929688 37.546875 153.804688 37.464844 C 153.679688 37.382812 153.015625 36.757812 153.015625 36.175781 C 153.015625 35.59375 152.183594 34.722656 152.183594 34.722656 C 152.183594 34.722656 151.808594 33.269531 151.644531 33.351562 C 151.476562 33.433594 151.5625 33.644531 151.5625 33.644531 L 151.4375 34.347656 C 151.4375 34.347656 151.6875 34.765625 151.808594 35.097656 C 151.933594 35.429688 151.976562 36.175781 152.351562 36.800781 C 152.722656 37.425781 153.597656 38.171875 153.597656 38.171875 C 153.597656 38.171875 153.597656 38.671875 153.71875 39.085938 C 153.84375 39.5 154.175781 39.667969 154.382812 40.582031 C 154.59375 41.496094 155.507812 43.03125 155.507812 43.03125 C 155.507812 43.03125 156.542969 45.109375 156.628906 45.316406 C 156.710938 45.527344 157.542969 47.105469 157.542969 47.105469 C 157.542969 47.105469 157.542969 47.851562 157.664062 48.476562 C 157.789062 49.097656 158.414062 49.515625 158.414062 49.515625 C 158.414062 49.515625 159.203125 50.011719 159.824219 50.59375 C 160.449219 51.175781 160.367188 51.925781 160.449219 52.257812 C 160.53125 52.589844 161.15625 53.171875 161.15625 53.171875 C 161.15625 53.171875 161.113281 55.832031 161.15625 57.035156 C 161.195312 58.238281 161.902344 58.28125 162.484375 58.488281 C 163.066406 58.695312 163.105469 59.238281 163.105469 59.238281 L 163.523438 59.320312 L 163.730469 59.613281 L 164.351562 60.613281 L 164.519531 61.453125 C 164.519531 61.453125 164.726562 62.628906 164.894531 63.5 C 165.058594 64.375 165.515625 64.523438 165.515625 64.523438 L 165.558594 65.03125 L 165.929688 65.03125 L 166.179688 65.851562 L 166.429688 65.71875 L 166.304688 65.34375 L 166.472656 65.136719 L 166.886719 65.34375 C 166.886719 65.34375 166.804688 65.550781 167.011719 66.007812 C 167.21875 66.464844 167.550781 66.09375 167.675781 66.132812 C 167.800781 66.175781 168.132812 66.589844 168.296875 66.714844 C 168.464844 66.839844 169.210938 67.007812 169.210938 67.007812 L 170.292969 68.417969 L 170.75 68.460938 L 170.875 68.917969 L 171.246094 69.082031 C 171.246094 69.082031 171.453125 69.457031 171.621094 69.789062 C 171.785156 70.121094 172.203125 70.121094 172.203125 70.121094 C 172.367188 70.621094 172.867188 70.539062 172.867188 70.539062 L 173.449219 71.578125 L 173.53125 72.242188 C 173.53125 72.242188 173.15625 72.367188 172.949219 72.492188 C 172.742188 72.617188 172.699219 72.78125 172.492188 72.824219 C 172.285156 72.863281 172.035156 73.28125 172.035156 73.28125 L 173.15625 73.195312 C 173.15625 73.195312 174.113281 74.234375 174.527344 74.691406 C 174.945312 75.148438 175.734375 75.648438 175.734375 75.648438 L 176.855469 75.605469 C 176.855469 75.605469 177.3125 75.273438 177.683594 75.109375 C 178.058594 74.941406 178.347656 74.609375 178.347656 74.609375 C 178.347656 74.609375 178.722656 74.734375 178.972656 74.816406 C 179.222656 74.902344 179.554688 75.023438 180.09375 74.984375 C 180.632812 74.941406 180.550781 74.566406 180.757812 74.527344 C 180.964844 74.484375 181.214844 74.234375 181.214844 74.234375 C 181.214844 74.234375 181.964844 74.027344 182.296875 74.152344 C 182.628906 74.277344 182.542969 74.109375 183.042969 74.109375 C 183.542969 74.109375 183.707031 73.863281 183.875 73.738281 C 184.039062 73.613281 184.621094 73.945312 184.621094 73.945312 C 184.621094 73.945312 185.203125 73.695312 185.492188 73.570312 C 185.785156 73.445312 186.449219 73.40625 186.863281 73.28125 C 187.28125 73.15625 187.820312 72.824219 187.820312 72.824219 C 187.820312 72.824219 187.945312 72.53125 188.277344 72.449219 C 188.609375 72.367188 189.023438 72.742188 189.023438 72.742188 L 189.398438 72.824219 L 189.273438 73.238281 C 189.148438 73.445312 189.066406 73.902344 189.066406 73.902344 L 189.316406 74.445312 L 189.230469 75.191406 L 188.816406 75.898438 L 188.359375 78.308594 L 187.613281 79.222656 C 187.613281 79.222656 187.238281 79.886719 186.824219 80.34375 C 186.40625 80.800781 186.449219 81.507812 186.199219 81.964844 C 185.949219 82.421875 185.203125 83.792969 185.035156 84.539062 C 184.871094 85.289062 184.664062 85.246094 184.125 85.703125 C 183.582031 86.160156 183.167969 86.910156 182.710938 87.78125 C 182.253906 88.652344 181.589844 89.027344 181.214844 89.359375 C 180.84375 89.691406 179.636719 90.898438 179.636719 90.898438 L 178.640625 92.144531 L 176.855469 92.808594 C 176.855469 92.808594 173.242188 96.089844 172.785156 96.589844 C 172.328125 97.089844 172.035156 96.839844 172.035156 96.839844 L 171.953125 97.335938 L 169.792969 100.078125 C 169.792969 100.078125 169.460938 100.203125 169.046875 100.371094 C 168.632812 100.535156 168.464844 101.285156 168.464844 101.285156 L 167.632812 101.992188 L 167.175781 103.03125 C 167.175781 103.03125 166.386719 104.734375 166.347656 104.859375 C 166.304688 104.980469 165.515625 105.6875 165.515625 105.6875 C 165.515625 105.6875 165.308594 106.726562 164.933594 107.601562 C 164.5625 108.472656 164.601562 109.304688 164.601562 109.304688 C 164.601562 109.304688 165.058594 109.46875 165.351562 109.925781 C 165.640625 110.382812 166.015625 110.882812 166.015625 110.882812 C 166.015625 110.882812 165.847656 111.007812 165.722656 111.546875 C 165.601562 112.085938 165.890625 112.792969 165.601562 112.960938 C 165.308594 113.125 165.808594 113.914062 165.847656 114.246094 C 165.890625 114.578125 166.179688 115.203125 166.347656 115.617188 C 166.511719 116.035156 166.722656 116.78125 166.722656 116.78125 L 167.882812 117.488281 L 168.09375 117.949219 C 168.09375 117.949219 168.09375 119.074219 167.800781 119.570312 C 167.511719 120.070312 167.511719 121.945312 167.511719 121.945312 L 167.59375 125.324219 L 168.132812 126.015625 L 167.46875 127.515625 L 167.71875 127.515625 L 167.675781 127.945312 L 167.425781 128 L 166.636719 129.164062 L 166.097656 129.453125 L 166.140625 129.910156 C 166.140625 129.910156 165.019531 130.742188 164.894531 130.824219 C 164.769531 130.910156 164.769531 131.035156 164.644531 131.199219 C 164.519531 131.367188 163.898438 131.492188 163.730469 131.492188 C 163.566406 131.492188 162.652344 131.90625 161.652344 132.320312 C 160.65625 132.738281 160.242188 133.609375 160.242188 133.609375 L 159.703125 133.734375 L 159.867188 134.148438 L 159.078125 135.0625 L 158.664062 134.605469 L 158.496094 135.230469 C 158.496094 135.230469 158.289062 135.394531 158.164062 135.4375 C 158.042969 135.480469 157.253906 136.558594 157.003906 136.683594 C 156.753906 136.808594 156.421875 137.183594 156.421875 137.183594 L 155.882812 137.433594 L 155.921875 138.761719 L 156.585938 139.59375 C 156.585938 139.59375 156.585938 139.59375 156.671875 140.007812 C 156.753906 140.421875 157.210938 141.460938 157.210938 141.460938 L 157.292969 142.25 L 157.417969 141.960938 L 157.585938 142.167969 C 157.585938 142.167969 157.585938 144.203125 157.292969 144.867188 C 157.003906 145.535156 157.085938 146.40625 157.085938 146.40625 C 157.085938 146.40625 157.25 145.992188 157.417969 145.824219 C 157.582031 145.660156 157.125 146.863281 156.835938 147.402344 C 156.546875 147.945312 155.464844 148.152344 155.132812 148.234375 C 154.800781 148.316406 154.179688 148.316406 153.722656 148.773438 C 153.265625 149.230469 152.558594 149.355469 152.308594 149.5625 C 152.058594 149.773438 151.644531 150.601562 151.644531 150.601562 L 152.101562 151.058594 L 152.351562 150.851562 C 152.351562 150.851562 152.265625 151.890625 152.308594 152.304688 C 152.351562 152.722656 151.976562 153.386719 151.976562 153.386719 C 151.976562 153.386719 151.8125 154.632812 151.769531 154.882812 C 151.726562 155.132812 151.394531 155.796875 151.394531 156.167969 C 151.394531 156.542969 150.898438 156.710938 150.648438 156.917969 C 150.398438 157.125 149.777344 157.457031 149.777344 157.457031 L 148.320312 159.742188 L 146.703125 162.277344 L 145.414062 163.566406 L 144.125 165.351562 C 144.125 165.351562 142.300781 167.054688 141.21875 167.886719 C 140.140625 168.71875 139.226562 168.59375 138.6875 168.550781 C 138.144531 168.507812 137.773438 168.800781 137.773438 168.800781 L 137.855469 169.421875 C 137.855469 169.421875 137.066406 169.300781 136.691406 169.214844 C 136.320312 169.132812 136.441406 169.382812 136.070312 169.671875 C 135.695312 169.964844 133.617188 169.257812 133.371094 169.257812 C 133.121094 169.257812 133.492188 169.632812 132.496094 169.507812 C 131.5 169.382812 130.835938 169.421875 130.835938 169.421875 L 130.089844 169.878906 L 129.796875 170.210938 L 128.261719 170.171875 L 127.761719 170.296875 L 127.054688 170.585938 C 127.054688 170.585938 127.054688 170.585938 126.683594 170.917969 C 126.308594 171.25 125.476562 170.753906 125.476562 170.753906 L 124.980469 170.667969 L 124.773438 170.253906 L 123.859375 170.085938 C 123.859375 170.085938 124.023438 169.546875 123.609375 169.464844 C 123.191406 169.382812 123.277344 170.171875 123.277344 170.171875 C 123.277344 170.171875 122.863281 169.296875 123.027344 169.132812 C 123.191406 168.964844 123.109375 168.550781 123.109375 168.550781 L 122.738281 167.96875 L 122.238281 167.386719 C 122.527344 167.261719 121.90625 166.640625 121.90625 166.640625 L 122.074219 166.097656 L 122.570312 166.265625 L 122.902344 165.808594 L 122.652344 164.023438 C 122.652344 164.023438 121.738281 162.734375 121.574219 162.320312 C 121.40625 161.902344 121.242188 161.488281 121.117188 161.320312 C 120.992188 161.15625 120.617188 160.117188 120.617188 159.992188 C 120.617188 159.867188 119.746094 157.707031 119.746094 157.707031 L 119.289062 157 C 119.207031 156.585938 118.957031 156.585938 118.957031 156.585938 L 117.667969 155.378906 C 117.460938 154.921875 116.632812 153.761719 116.632812 153.761719 C 116.632812 153.761719 116.421875 152.554688 116.339844 152.140625 C 116.257812 151.722656 116.046875 151.472656 116.046875 151.140625 C 116.046875 150.808594 115.839844 150.226562 115.839844 150.226562 C 115.839844 150.226562 115.882812 148.730469 115.382812 147.445312 C 114.882812 146.15625 115.007812 144.660156 115.046875 143.621094 C 115.089844 142.582031 114.589844 142.210938 114.253906 141.753906 C 113.921875 141.296875 112.628906 138.761719 112.628906 138.761719 C 112.628906 138.761719 110.953125 135.726562 110.742188 135.355469 C 110.535156 134.980469 110.175781 134.730469 110.175781 134.730469 L 109.40625 133.691406 L 109.40625 133.070312 L 109.300781 130.492188 L 109.570312 130.410156 L 109.488281 128.957031 L 109.777344 128.582031 L 110.277344 127.128906 C 110.277344 127.128906 110.648438 125.839844 110.941406 124.675781 C 111.230469 123.511719 111.480469 123.390625 111.730469 123.179688 C 111.980469 122.972656 111.894531 122.433594 111.894531 122.433594 C 111.894531 122.433594 112.351562 122.265625 112.726562 122.058594 C 113.101562 121.851562 113.597656 120.730469 113.640625 120.148438 C 113.683594 119.566406 113.558594 118.859375 113.765625 118.695312 C 113.972656 118.527344 113.804688 117.945312 113.558594 117.738281 C 113.308594 117.53125 113.101562 117.15625 112.851562 116.65625 C 112.601562 116.160156 112.394531 115.078125 112.394531 114.828125 C 112.394531 114.582031 112.851562 114.25 112.851562 114.25 L 112.726562 113.085938 C 112.726562 113.085938 112.476562 112.753906 112.269531 112.378906 C 112.0625 112.003906 112.0625 110.964844 112.0625 110.964844 C 112.0625 110.964844 112.0625 110.964844 111.480469 110.300781 C 110.898438 109.636719 110.898438 109.054688 110.898438 109.054688 L 110.773438 108.265625 C 110.648438 108.140625 110.484375 107.851562 110.441406 107.601562 C 110.402344 107.351562 110.316406 106.8125 110.191406 106.5625 C 110.066406 106.3125 109.652344 105.691406 109.320312 105.359375 C 108.988281 105.023438 109.03125 105.023438 108.90625 104.816406 C 108.78125 104.609375 108.488281 104.527344 108.488281 104.527344 C 108.488281 104.527344 107.867188 103.863281 107.660156 103.53125 C 107.453125 103.195312 106.082031 102.074219 105.75 101.617188 C 105.417969 101.160156 104.585938 100.539062 104.585938 100.539062 L 103.589844 98.085938 C 103.589844 98.085938 104.128906 97.753906 104.460938 97.464844 C 104.792969 97.171875 104.667969 96.921875 104.667969 96.425781 C 104.667969 95.925781 104.792969 96.050781 105.207031 96.300781 C 105.625 96.550781 105.832031 96.175781 105.832031 96.175781 C 105.832031 96.175781 105.625 96.09375 105.292969 95.925781 C 104.960938 95.761719 104.75 95.304688 104.75 95.304688 L 105.167969 95.097656 C 105.082031 94.804688 105.292969 94.390625 105.292969 94.390625 L 104.835938 93.851562 C 104.835938 93.851562 105.582031 92.3125 105.539062 91.898438 C 105.5 91.484375 105.957031 90.15625 105.957031 90.15625 L 105.457031 89.371094 L 104.960938 88.507812 L 104.046875 88.277344 L 103.671875 87.527344 L 103.160156 87.527344 L 103.160156 87.035156 L 102.667969 86.660156 L 102.425781 87.574219 C 102.425781 87.574219 101.179688 87.492188 101.054688 87.492188 C 100.929688 87.492188 100.390625 87.242188 100.265625 87.285156 C 100.140625 87.328125 100.101562 87.574219 100.101562 87.574219 L 99.308594 87.867188 L 98.523438 88.074219 L 98.355469 87.703125 L 97.898438 87.785156 L 97.523438 87.5 C 97.523438 87.5 96.902344 86.925781 96.820312 86.511719 C 96.734375 86.09375 96.859375 85.652344 96.859375 85.652344 L 96.527344 85.652344 C 96.527344 85.652344 96.277344 85.160156 96.070312 84.746094 C 95.863281 84.328125 95.199219 84.003906 94.699219 83.792969 C 94.203125 83.585938 92.292969 83.753906 91.210938 83.878906 C 90.132812 84.003906 88.511719 84.417969 88.511719 84.417969 L 88.011719 85.042969 C 88.011719 85.042969 87.765625 85.042969 87.597656 84.957031 C 87.433594 84.875 86.933594 85.125 86.601562 85.125 C 86.269531 85.125 85.023438 85.832031 84.773438 85.996094 C 84.523438 86.164062 83.363281 86.246094 83.152344 86.453125 C 82.945312 86.660156 82.074219 87.117188 82.074219 87.117188 C 82.074219 87.117188 80.082031 86.496094 79.789062 86.453125 C 79.5 86.410156 78.710938 86.164062 78.046875 86.039062 C 77.382812 85.914062 74.554688 86.535156 73.765625 86.703125 C 72.976562 86.871094 71.316406 87.824219 71.316406 87.824219 L 70.527344 87.617188 C 70.527344 87.617188 70.027344 87.617188 69.90625 87.449219 C 69.78125 87.285156 69.613281 87.367188 69.28125 87.285156 C 68.949219 87.203125 68.242188 86.867188 68.078125 86.703125 C 67.910156 86.535156 67.246094 86.203125 67.246094 86.203125 C 67.246094 86.203125 66.664062 85.664062 66.164062 85.207031 C 65.667969 84.75 64.960938 84.167969 64.960938 84.167969 C 64.960938 84.167969 64.296875 83.917969 64.132812 83.835938 C 63.964844 83.753906 63.714844 83.253906 63.714844 83.253906 L 63.425781 82.964844 C 63.425781 82.964844 63.425781 82.964844 63.300781 82.839844 C 63.175781 82.714844 62.761719 82.421875 62.761719 82.421875 L 60.972656 81.550781 C 60.890625 81.136719 59.976562 80.679688 59.976562 80.679688 C 59.894531 80.347656 59.726562 80.136719 59.519531 80.054688 C 59.3125 79.972656 59.3125 79.597656 59.3125 79.597656 L 59.605469 79.433594 L 59.355469 79.308594 C 59.355469 79.308594 59.355469 79.308594 59.3125 78.976562 C 59.269531 78.640625 59.105469 78.519531 59.105469 78.519531 L 59.230469 78.144531 C 59.230469 78.144531 58.980469 77.8125 58.691406 77.519531 C 58.398438 77.230469 58.316406 77.355469 58.316406 77.355469 C 58.316406 77.355469 58.316406 77.148438 58.066406 76.773438 C 57.816406 76.398438 57.109375 76.148438 56.863281 75.941406 C 56.613281 75.734375 56.777344 74.945312 56.488281 74.902344 C 56.199219 74.859375 56.363281 74.570312 56.199219 74.445312 C 56.03125 74.320312 56.03125 74.777344 55.78125 74.820312 C 55.53125 74.859375 55.449219 74.113281 55.449219 74.113281 C 55.449219 74.113281 55.449219 74.113281 55.074219 73.988281 C 54.703125 73.863281 54.992188 73.449219 54.992188 73.449219 L 54.824219 72.867188 C 54.824219 72.867188 55.15625 72.785156 55.320312 72.785156 C 55.488281 72.785156 56.066406 72.617188 56.066406 72.617188 L 55.976562 72.367188 C 55.976562 72.367188 55.128906 72.453125 54.589844 72.660156 C 54.050781 72.867188 53.8125 72.785156 53.8125 72.785156 L 53.8125 72.578125 C 53.8125 72.578125 53.511719 72.492188 53.21875 72.410156 C 52.929688 72.328125 53.039062 72.035156 53.039062 72.035156 C 53.039062 72.035156 53.039062 72.035156 52.375 71.703125 C 51.710938 71.371094 52.167969 70.789062 52.167969 70.375 C 52.167969 69.960938 52.003906 69.542969 52.003906 69.542969 C 52.003906 69.542969 52.25 69.253906 52.460938 69.046875 C 52.667969 68.835938 52.210938 68.378906 52.210938 68.378906 L 52.128906 67.882812 C 52.128906 67.882812 51.835938 67.507812 51.585938 67.257812 C 51.339844 67.007812 51.089844 66.636719 51.089844 66.636719 L 50.714844 66.757812 L 50.464844 66.546875 C 51.046875 66.464844 51.835938 65.675781 52.003906 65.425781 C 52.167969 65.175781 52.460938 64.71875 52.460938 64.71875 C 52.460938 64.71875 52.667969 64.59375 52.625 64.179688 C 52.585938 63.765625 52.792969 62.972656 53.042969 62.269531 C 53.292969 61.5625 53.582031 60.3125 53.664062 59.066406 C 53.746094 57.820312 53.375 57.527344 53.042969 57.152344 C 52.710938 56.777344 52.792969 56.730469 52.792969 56.730469 C 52.792969 56.730469 52.957031 56.714844 53.042969 56.589844 C 53.125 56.464844 53.292969 55.234375 53.292969 54.859375 C 53.292969 54.484375 53 54.097656 53 54.097656 L 52.585938 54.097656 L 52.167969 53.257812 L 51.753906 53.253906 L 51.878906 51.714844 C 51.878906 51.714844 52.210938 50.886719 52.292969 50.71875 C 52.378906 50.554688 52.835938 50.46875 52.835938 50.46875 L 53.539062 49.058594 L 53.375 48.640625 C 53.375 48.640625 53.664062 48.351562 53.996094 47.9375 C 54.328125 47.519531 54.355469 46.992188 54.523438 46.828125 C 54.691406 46.660156 55.242188 46.050781 55.519531 45.609375 C 55.796875 45.164062 56.242188 44.554688 56.242188 44.554688 C 56.242188 44.554688 56.183594 44.113281 56.351562 43.726562 C 56.515625 43.335938 56.738281 42.5625 56.90625 42.230469 C 57.070312 41.898438 57.625 41.453125 57.957031 41.34375 C 58.289062 41.230469 58.789062 40.679688 58.789062 40.679688 C 58.789062 40.679688 58.953125 40.289062 59.175781 39.738281 C 59.398438 39.183594 59.851562 38.421875 59.851562 38.421875 L 60.0625 38.128906 C 60.601562 38.089844 62.636719 37.546875 63.09375 37.050781 C 63.550781 36.550781 64.296875 36.09375 64.589844 35.929688 C 64.878906 35.761719 65.042969 35.511719 65.128906 35.386719 C 65.210938 35.261719 65.460938 35.261719 65.710938 34.847656 C 65.957031 34.433594 66.496094 33.394531 66.496094 33.394531 L 66.539062 32.519531 L 66.203125 31.730469 C 66.203125 31.730469 66.195312 30.691406 66.238281 30.320312 C 66.28125 29.945312 66.558594 29.738281 66.808594 29.40625 C 67.058594 29.074219 66.992188 28.824219 66.992188 28.824219 L 67.320312 28.699219 L 67.558594 27.828125 L 67.558594 27.246094 C 67.558594 27.246094 68.8125 25.917969 68.980469 25.75 C 69.144531 25.585938 70.359375 25.132812 71.234375 24.714844 C 72.105469 24.300781 72.476562 23.683594 72.644531 23.351562 C 72.808594 23.015625 73.054688 22.863281 73.304688 22.570312 C 73.554688 22.28125 73.675781 21.386719 73.800781 20.972656 C 73.921875 20.554688 74.246094 19.765625 74.371094 19.601562 C 74.496094 19.433594 75.222656 19.476562 75.222656 19.476562 C 75.554688 20.140625 76.800781 20.929688 77.214844 20.96875 Z M 175.03125 133.253906 C 175.402344 133.878906 175.28125 135.125 175.777344 136.121094 C 176.277344 137.117188 175.28125 137.492188 174.90625 138.117188 C 174.53125 138.738281 174.035156 139.859375 173.535156 140.859375 C 173.039062 141.855469 173.160156 143.351562 173.535156 143.722656 C 173.910156 144.097656 173.910156 145.097656 174.160156 145.96875 C 174.40625 146.839844 174.53125 147.835938 175.03125 148.710938 C 175.527344 149.582031 176.027344 149.332031 176.898438 149.707031 C 177.773438 150.082031 177.773438 149.332031 178.769531 149.207031 C 179.765625 149.082031 179.765625 148.960938 180.386719 148.710938 C 181.011719 148.460938 181.382812 147.464844 181.507812 146.589844 C 181.632812 145.71875 182.632812 142.976562 183.003906 141.730469 C 183.378906 140.484375 184.75 136.621094 184.875 135.871094 C 184.996094 135.125 185.746094 132.632812 185.496094 132.007812 C 185.246094 131.386719 186.121094 130.886719 186.367188 130.386719 C 186.617188 129.890625 186.242188 128.890625 186.242188 128.019531 C 186.242188 127.148438 187.117188 128.890625 187.117188 128.890625 C 187.117188 128.890625 187.488281 127.148438 187.242188 126.273438 C 186.992188 125.402344 187.117188 124.78125 186.617188 123.65625 C 186.121094 122.535156 185.246094 121.289062 185.246094 121.289062 L 184.5 121.539062 C 184.5 121.539062 184.375 122.285156 184.5 122.785156 C 184.625 123.285156 183.75 123.53125 183.503906 123.90625 C 183.253906 124.28125 182.507812 124.03125 182.507812 124.03125 L 182.382812 125.277344 L 182.257812 126.148438 L 181.261719 127.023438 L 180.886719 128.019531 C 180.886719 128.019531 180.265625 127.769531 179.765625 127.894531 C 179.265625 128.019531 179.890625 129.265625 179.890625 129.265625 L 178.894531 128.644531 L 178.144531 128.394531 L 177.523438 129.265625 L 176.898438 129.140625 L 175.527344 129.515625 L 175.40625 130.761719 L 174.285156 132.132812 C 174.285156 132.132812 174.65625 132.632812 175.03125 133.253906 Z M 175.03125 133.253906 " fill-opacity="1" fill-rule="nonzero"/></g></svg>