<?xml version="1.0" encoding="UTF-8"?><svg xmlns="http://www.w3.org/2000/svg" xmlns:xlink="http://www.w3.org/1999/xlink" contentScriptType="text/ecmascript" width="240" zoomAndPan="magnify" contentStyleType="text/css" viewBox="0 0 240 187.499995" height="187.499995" preserveAspectRatio="xMidYMid meet" version="1.0"><defs><clipPath id="clip-0"><path d="M 202 107 L 203.769531 107 L 203.769531 111 L 202 111 Z M 202 107 " clip-rule="nonzero"/></clipPath><clipPath id="clip-1"><path d="M 36.21875 56 L 39 56 L 39 58 L 36.21875 58 Z M 36.21875 56 " clip-rule="nonzero"/></clipPath><clipPath id="clip-2"><path d="M 36.21875 53 L 39 53 L 39 56 L 36.21875 56 Z M 36.21875 53 " clip-rule="nonzero"/></clipPath></defs><path fill="rgb(96.469116%, 55.288696%, 85.099792%)" d="M 59.738281 87.902344 C 58.332031 85.085938 58.332031 85.085938 58.332031 82.273438 C 57.628906 82.273438 57.496094 82.40625 57.089844 82.292969 C 56.683594 82.183594 56.527344 84.890625 55.207031 84.359375 C 54.988281 84.097656 56.152344 82.140625 54.890625 81.328125 C 54.480469 81.0625 54.988281 79.457031 54.8125 78.753906 C 54.8125 78.753906 53.207031 79.589844 51.996094 76.640625 C 51.402344 75.871094 50.589844 77.34375 50.589844 77.34375 C 50.589844 77.34375 50.941406 78.246094 50.304688 78.46875 C 49.402344 77.808594 48.742188 78.152344 47.597656 77.246094 C 46.453125 76.339844 47.839844 75.300781 45.660156 74.53125 C 47.070312 71.011719 47.070312 71.714844 50.589844 70.308594 C 48.476562 68.902344 48.476562 68.902344 47.070312 66.789062 C 44.957031 66.085938 44.253906 65.382812 42.140625 63.976562 C 39.328125 60.457031 37.917969 53.417969 37.917969 48.492188 C 39.699219 46.84375 42.140625 54.121094 45.660156 56.234375 L 50.589844 58.34375 C 53.402344 59.753906 54.109375 61.160156 56.21875 62.566406 L 62.554688 64.679688 C 65.371094 66.789062 66.777344 69.605469 68.890625 70.308594 C 71.175781 70.308594 71.617188 68.992188 72.351562 68.910156 C 76.488281 68.699219 78.601562 68.164062 79.425781 66.921875 C 80.261719 65.933594 82.265625 67.492188 87.894531 65.382812 L 87.191406 62.566406 C 87.191406 62.566406 88.6875 61.335938 90.710938 61.863281 C 90.65625 60.578125 90.523438 57.148438 92.515625 55.597656 C 91.304688 54.328125 92.117188 53.417969 92.117188 53.417969 C 92.117188 53.417969 93.242188 52.339844 93.371094 51.769531 C 92.777344 48.667969 93.886719 48.621094 94.136719 47.707031 C 94.382812 46.796875 93.179688 47.109375 93.519531 45.851562 C 93.859375 44.59375 95.898438 44.292969 96.171875 43.257812 C 96.441406 42.222656 95.589844 41.703125 95.636719 41.457031 C 96.078125 40.464844 95.703125 38.136719 95.636719 37.234375 C 99.421875 36.222656 100.652344 33.144531 101.972656 34.417969 C 102.675781 30.195312 103.382812 28.789062 107.605469 28.789062 C 108.199219 27.492188 106.0625 26.390625 106.902344 25.972656 C 108.308594 25.796875 109.386719 25.886719 111.035156 28.019531 C 111.558594 28.695312 111.652344 27.027344 112.179688 26.851562 C 112.707031 26.675781 113.972656 26.675781 114.160156 25.839844 C 114.359375 24.984375 114.644531 23.863281 115.347656 22.453125 C 115.941406 21.3125 116.402344 22.894531 116.929688 25.136719 C 119.902344 25.246094 126.609375 25.90625 129.425781 26.675781 C 131.535156 27.226562 132.945312 26.128906 134.96875 25.90625 C 136.464844 27.402344 137.871094 26.28125 138.664062 29.46875 C 139.78125 31.191406 141.613281 29.625 142.007812 30.128906 C 144.363281 36.617188 152.457031 32.242188 153.070312 32.351562 C 154.105469 32.351562 155.367188 35.25 156.183594 35.179688 C 157.503906 34.957031 157.128906 34.054688 158.285156 34.417969 C 157.976562 36.859375 160.550781 39.675781 160.550781 41.5 C 160.550781 41.5 161.175781 41.808594 161.757812 41.265625 C 162.339844 40.722656 162.871094 39.332031 163.386719 39.367188 C 164.621094 39.542969 165.121094 39.699219 166.539062 39.949219 C 170.355469 41.253906 172.300781 41.546875 173.78125 42.214844 C 174.472656 43.476562 175.140625 44.121094 176.539062 43.886719 C 177.691406 44.664062 176.851562 45.679688 177.53125 45.742188 C 178.941406 45.039062 179.402344 44.269531 180.808594 44.972656 C 182.21875 45.679688 183.625 47.085938 184.328125 48.492188 C 184.328125 49.195312 183.625 52.011719 184.328125 56.234375 C 184.679688 57.640625 184.851562 58.757812 186.363281 61.171875 C 185.960938 63.652344 188.265625 67.824219 188.265625 68.878906 C 188.265625 70.285156 187.144531 71.011719 186.441406 72.417969 C 189.257812 74.53125 186.441406 78.050781 185.035156 80.160156 C 195.59375 82.273438 190.664062 86.496094 199.109375 84.382812 C 197 89.308594 197.746094 88.914062 199.859375 93.839844 C 195.636719 96.65625 199.769531 97.511719 196.957031 101.03125 C 196.78125 101.25 198.628906 104.085938 201.222656 104.085938 C 200.519531 109.71875 198.40625 107.605469 199.109375 116.050781 C 193.566406 115.941406 195.8125 122.363281 192.070312 121.679688 C 192.292969 125.707031 194.207031 126.058594 193.480469 130.125 C 190.664062 130.828125 190.664062 130.828125 189.257812 132.941406 L 187.144531 132.238281 C 186.441406 135.753906 185.035156 136.457031 187.144531 139.976562 C 187.144531 139.976562 184.417969 140.066406 183.625 139.976562 C 183.558594 141.1875 184.835938 141.515625 185.035156 142.792969 C 184.921875 143.296875 181.03125 145.519531 177.996094 145.609375 C 177.203125 147.34375 180.105469 149.191406 179.929688 150.070312 C 176.628906 150.710938 175.179688 154.757812 175.179688 154.757812 C 175.179688 154.757812 176.871094 155.4375 176.585938 156.164062 C 175.683594 155.503906 175.179688 155.460938 173.769531 155.460938 C 173.066406 155.636719 171.351562 155.417969 169.707031 158.191406 C 167.902344 158.789062 167.046875 158.574219 165.679688 160.382812 C 165.074219 158.65625 164.199219 160.398438 163.132812 161.066406 C 162.066406 161.738281 160.632812 163.402344 160.441406 163.332031 C 160.484375 162.847656 161.101562 161.089844 161.101562 161.089844 L 157.582031 161.792969 C 157.582031 161.792969 157.425781 161.808594 157.148438 161.835938 C 156.871094 161.863281 156.945312 159.78125 156.277344 159.859375 C 155.609375 159.933594 153.703125 162.476562 153.050781 162.554688 C 152.402344 162.636719 152.195312 161.746094 151.636719 161.824219 C 151.078125 161.902344 149.988281 164.503906 149.589844 164.574219 C 149.195312 164.644531 147.621094 162.992188 146.273438 163.222656 C 139.347656 165.664062 138.246094 158.40625 137.167969 162.496094 C 135.714844 161.726562 135.96875 162.171875 134.492188 162.558594 C 133.550781 162.804688 133.464844 161.316406 132.628906 161.339844 C 130.953125 161.386719 131.042969 162.96875 130.128906 162.496094 C 129.382812 159.199219 124.871094 159.792969 124.433594 158.382812 C 124.074219 156.917969 126.386719 156.921875 127.132812 155.929688 C 127.707031 154.496094 126.535156 153.949219 128.855469 152.566406 C 131.878906 150.519531 130.140625 149.75 130.671875 148.214844 C 131.621094 145.996094 131.625 145.453125 130.832031 143.496094 C 130.832031 143.496094 128.480469 137.164062 128.015625 137.164062 C 126.609375 136.765625 126.609375 139.492188 124.542969 140.242188 C 120.320312 141.648438 112.863281 136.679688 111.5625 136.679688 C 110.375 136.699219 104.875 137.980469 105.082031 135.238281 C 104.261719 137.90625 101.234375 135.863281 101.050781 135.863281 C 98.234375 135.863281 99.3125 138.042969 97.417969 137.953125 C 96.5625 137.667969 87.894531 137.164062 87.894531 137.164062 L 87.894531 138.570312 L 82.265625 135.753906 L 77.335938 134.347656 C 73.113281 132.941406 75.226562 129.421875 68.1875 131.53125 L 68.1875 127.3125 L 64.667969 127.3125 C 66.074219 118.867188 64.667969 123.089844 63.960938 115.347656 L 61.148438 116.050781 C 58.332031 112.246094 65.0625 112.972656 59.035156 110.421875 C 59.035156 110.421875 59.144531 106.21875 57.628906 107.605469 C 57.320312 107.78125 58.332031 109.71875 58.332031 109.71875 C 52.699219 109.011719 51.292969 107.605469 51.292969 101.976562 C 51.292969 101.976562 55.933594 102.636719 55.515625 101.976562 C 54.855469 100.921875 54 94.058594 54.152344 93.597656 C 54.085938 92.671875 58.464844 90.34375 57.617188 88.121094 C 58.15625 87.921875 59.738281 87.902344 59.738281 87.902344 " fill-opacity="1" fill-rule="nonzero"/><g clip-path="url(#clip-0)"><path stroke-linecap="round" transform="matrix(0.347283, 0, 0, 0.347198, -3.916008, 5.081555)" fill="none" stroke-linejoin="round" d="M 595.510878 297.573179 C 594.914731 298.90077 595.027212 300.228362 595.634606 301.184678 C 596.736915 299.530814 595.803327 298.777012 595.510878 297.573179 Z M 595.510878 297.573179 " stroke="rgb(100%, 100%, 100%)" stroke-width="2.534" stroke-opacity="1" stroke-miterlimit="4"/></g><g clip-path="url(#clip-1)"><path stroke-linecap="butt" transform="matrix(0.347283, 0, 0, 0.347198, -3.916008, 5.081555)" fill="none" stroke-linejoin="round" d="M 119.504837 148.151607 C 119.504837 148.151607 116.411624 147.769081 117.097755 150.491769 C 118.121327 148.399124 119.448597 148.275366 119.504837 148.151607 Z M 119.504837 148.151607 " stroke="rgb(100%, 100%, 100%)" stroke-width="2.534" stroke-opacity="1" stroke-miterlimit="4"/></g><g clip-path="url(#clip-2)"><path stroke-linecap="butt" transform="matrix(0.347283, 0, 0, 0.347198, -3.916008, 5.081555)" fill="none" stroke-linejoin="round" d="M 120.213464 141.817419 C 118.503761 141.884924 116.411624 141.569902 117.109003 144.29259 C 118.121327 142.199946 120.145976 141.941178 120.213464 141.817419 Z M 120.213464 141.817419 " stroke="rgb(100%, 100%, 100%)" stroke-width="2.534" stroke-opacity="1" stroke-miterlimit="4"/></g><path stroke-linecap="butt" transform="matrix(0.347283, 0, 0, 0.347198, -3.916008, 5.081555)" fill="none" stroke-linejoin="round" d="M 131.888935 178.112427 C 131.888935 178.112427 134.554722 177.921163 133.857343 180.643851 C 132.845019 178.551207 131.956423 178.236185 131.888935 178.112427 Z M 131.888935 178.112427 " stroke="rgb(100%, 100%, 100%)" stroke-width="2.534" stroke-opacity="1" stroke-miterlimit="4"/></svg>