<?xml version="1.0" encoding="UTF-8"?><svg xmlns="http://www.w3.org/2000/svg" xmlns:xlink="http://www.w3.org/1999/xlink" contentScriptType="text/ecmascript" width="240" zoomAndPan="magnify" contentStyleType="text/css" viewBox="0 0 240 187.499995" height="187.499995" preserveAspectRatio="xMidYMid meet" version="1.0"><defs><clipPath id="clip-0"><path d="M 48.414062 13.148438 L 191.285156 13.148438 L 191.285156 173.972656 L 48.414062 173.972656 Z M 48.414062 13.148438 " clip-rule="nonzero"/></clipPath></defs><g clip-path="url(#clip-0)"><path fill="rgb(69.40918%, 78.819275%, 28.62854%)" d="M 184.402344 83.542969 C 184.527344 84.53125 184.933594 84.699219 185.121094 85.171875 C 185.3125 85.644531 185.089844 85.863281 184.964844 86.335938 C 184.839844 86.808594 184.683594 87.3125 184.863281 87.703125 C 185.039062 88.089844 185.6875 88.007812 185.992188 87.953125 C 186.296875 87.902344 186.285156 89.519531 186.285156 89.519531 L 185.992188 90.265625 L 185.320312 90.476562 C 185.320312 90.476562 185.25 90.75 185.15625 91.191406 C 185.058594 91.628906 184.652344 91.757812 184.304688 91.945312 C 183.960938 92.136719 183.425781 92.449219 182.828125 93.015625 C 182.234375 93.582031 182.296875 94.59375 182.136719 94.90625 C 181.980469 95.222656 181.480469 95.632812 181.132812 95.914062 C 180.789062 96.199219 179.71875 96.890625 179.59375 97.050781 C 179.46875 97.207031 178.839844 98.246094 178.367188 98.71875 C 177.898438 99.191406 177.550781 98.941406 177.175781 99.003906 C 176.796875 99.066406 176.441406 99.339844 176.441406 99.339844 L 176.652344 100.179688 C 176.652344 100.179688 176.453125 101.113281 176.328125 101.679688 C 176.199219 102.246094 175.730469 102.867188 175.730469 102.867188 L 176.167969 104.609375 L 175.6875 106.5625 C 175.6875 106.5625 175.792969 106.941406 175.917969 107.226562 C 176.042969 107.507812 175.855469 107.539062 175.824219 107.792969 C 175.792969 108.042969 175.667969 108.484375 175.699219 108.675781 C 175.730469 108.863281 175.699219 109.460938 175.761719 109.964844 C 175.824219 110.46875 175.949219 111.257812 175.917969 111.917969 C 175.886719 112.582031 175.855469 112.484375 175.917969 112.894531 C 175.980469 113.304688 176.042969 113.652344 175.824219 114.472656 C 175.605469 115.289062 175.414062 114.882812 174.722656 115.730469 C 174.03125 116.582031 174.472656 117.085938 175.003906 117.652344 C 175.539062 118.21875 175.695312 118.691406 175.820312 119.355469 C 175.945312 120.015625 175.472656 120.550781 175.191406 120.992188 C 174.90625 121.433594 174.085938 121.96875 174.085938 121.96875 L 173.277344 124.417969 L 173.464844 126.433594 L 174.675781 126.894531 L 175.640625 126.980469 L 175.640625 127.828125 C 175.640625 127.828125 175.71875 128.742188 175.152344 129.121094 C 174.585938 129.5 173.4375 128.871094 173.4375 128.871094 L 172.628906 129.164062 C 172.628906 129.164062 172.933594 129.84375 173.152344 130.191406 C 173.375 130.539062 173.625 131.230469 173.90625 131.359375 C 174.191406 131.484375 174.660156 131.484375 174.808594 131.515625 C 174.953125 131.546875 175.257812 131.136719 175.445312 131.011719 C 175.636719 130.886719 175.949219 130.695312 176.328125 130.539062 C 176.703125 130.382812 176.902344 130.589844 176.902344 130.589844 C 176.902344 130.589844 176.859375 130.855469 176.765625 131.042969 C 176.671875 131.230469 176.484375 131.957031 176.421875 132.082031 C 176.359375 132.207031 175.949219 132.839844 175.667969 133.183594 C 175.382812 133.53125 175.101562 134.246094 175.101562 134.246094 L 175.574219 136.585938 L 177.152344 136.722656 L 177.445312 137.859375 C 177.445312 137.859375 177.550781 137.941406 177.804688 137.972656 C 178.054688 138.003906 178.035156 138.488281 178.035156 138.488281 C 178.035156 138.488281 178.398438 138.539062 178.558594 138.539062 C 178.714844 138.539062 178.777344 138.730469 178.964844 138.824219 C 179.152344 138.917969 179.5 139.042969 179.78125 139.109375 C 180.066406 139.171875 179.625 140.546875 179.625 140.546875 C 179.625 140.546875 178.589844 140.839844 178.160156 140.925781 C 177.730469 141.007812 177.53125 140.671875 177.53125 140.671875 C 177.53125 140.671875 177.300781 141 176.984375 141.1875 C 176.671875 141.375 176.609375 141.09375 176.398438 140.964844 C 176.191406 140.839844 176.042969 140.902344 175.6875 140.839844 C 175.332031 140.777344 175.382812 140.492188 175.308594 140.421875 C 175.238281 140.347656 175.195312 139.957031 174.628906 139.863281 C 174.066406 139.769531 174.191406 139.925781 173.875 140.117188 C 173.5625 140.304688 173.246094 139.957031 173.058594 139.988281 C 172.871094 140.019531 172.554688 140.019531 172.210938 140.148438 C 171.867188 140.273438 171.644531 140.304688 171.300781 140.808594 C 170.953125 141.3125 170.890625 140.933594 170.453125 140.808594 C 170.011719 140.683594 169.917969 140.429688 169.761719 140.273438 C 169.605469 140.117188 169.152344 140.085938 169.152344 140.085938 C 169.152344 140.085938 169.257812 140.398438 169.351562 140.523438 C 169.445312 140.652344 169.320312 140.839844 169.320312 140.964844 C 169.320312 141.089844 168.976562 140.871094 168.882812 140.777344 C 168.785156 140.683594 168.785156 140.335938 168.691406 140.117188 C 168.597656 139.894531 168.285156 139.644531 168.0625 139.546875 C 167.84375 139.453125 167.78125 139.171875 167.625 138.980469 C 167.46875 138.792969 167.246094 138.730469 166.902344 138.664062 C 166.554688 138.601562 166.179688 138.664062 165.992188 138.632812 C 165.800781 138.601562 165.863281 138.257812 165.800781 138.234375 C 165.738281 138.214844 165.425781 138.222656 165.171875 138.289062 C 164.921875 138.351562 164.839844 138.738281 164.839844 138.738281 C 164.839844 138.738281 164.703125 138.695312 164.546875 138.664062 C 164.386719 138.632812 164.292969 138.695312 164.199219 138.601562 C 164.105469 138.507812 164.140625 138.183594 163.574219 138.277344 C 163.007812 138.375 163.007812 138.75 162.539062 139.128906 C 162.066406 139.507812 161.277344 139.789062 161.277344 139.789062 L 161.109375 140.417969 L 159.9375 141.007812 L 160.441406 142.476562 C 160.441406 142.476562 159.804688 142.816406 159.5625 143.023438 C 159.316406 143.234375 159.144531 141.777344 158.890625 141.722656 C 158.636719 141.667969 158.472656 141.34375 158.472656 141.34375 C 158.082031 141.195312 157.96875 142.140625 157.96875 142.140625 L 157.542969 143.003906 L 157.339844 143.949219 L 157.636719 144.328125 L 157.164062 144.988281 L 156.941406 146.257812 L 157.660156 146.46875 L 158.21875 147.558594 L 158.769531 147.539062 L 159.222656 147.6875 L 160.019531 148.609375 L 160.230469 150.082031 L 159.6875 149.914062 C 158.625 150.394531 159.941406 150.792969 159.941406 150.792969 L 159.902344 151.132812 L 159.25 151.699219 L 158.441406 150.667969 L 158.441406 151.132812 C 158.441406 151.132812 158.414062 152.171875 157.851562 152.929688 C 157.285156 153.683594 157.164062 155.007812 157.164062 155.007812 L 157.730469 155.289062 C 157.730469 155.289062 158.203125 155.953125 158.203125 156.332031 C 158.203125 156.707031 158.203125 157.277344 158.296875 157.84375 C 158.390625 158.410156 158.957031 159.164062 158.957031 159.164062 L 159.8125 160.457031 L 158.933594 161.464844 L 158.050781 161.589844 L 157.800781 161.042969 L 156.976562 160.300781 L 155.625 159.617188 L 155.582031 159.113281 C 155.582031 159.113281 154.996094 158.597656 154.242188 158.410156 C 153.492188 158.21875 152.984375 158.777344 152.984375 158.777344 L 151.351562 157.683594 L 147.664062 156.886719 L 146.988281 156.804688 L 146.140625 156.519531 C 146.140625 156.519531 144.632812 155.195312 144.160156 154.914062 C 143.6875 154.628906 143.59375 154.441406 143.03125 154.441406 C 142.464844 154.441406 142.277344 153.402344 142.277344 153.402344 L 142.839844 153.023438 L 143.03125 152.457031 C 143.03125 152.457031 143.59375 151.890625 143.6875 151.605469 C 143.785156 151.320312 144.347656 151.226562 144.347656 151.226562 C 144.347656 151.226562 144.347656 151.226562 144.160156 150.847656 C 143.972656 150.472656 143.6875 150 143.6875 150 L 144.441406 150.09375 L 145.003906 149.621094 L 145.847656 149.148438 L 145.273438 148.769531 C 145.273438 148.769531 144.03125 149.242188 142.902344 149.433594 C 141.769531 149.621094 141.359375 150 140.417969 150.472656 C 139.476562 150.945312 137.992188 151.046875 137.992188 151.046875 L 137.992188 151.605469 L 138.4375 151.878906 L 139.164062 152.25 L 139.449219 152.796875 L 140.292969 152.957031 L 141.804688 152.957031 L 141.417969 153.746094 L 140.179688 153.496094 L 139.40625 154.15625 C 139.40625 154.15625 138.894531 153.96875 138.328125 154.535156 C 137.765625 155.101562 137.019531 154.890625 137.019531 154.890625 C 137.019531 154.890625 137.019531 154.535156 137.019531 154.15625 C 137.019531 153.78125 136.726562 153.496094 136.441406 153.117188 C 136.160156 152.742188 135.585938 152.648438 135.585938 152.648438 C 135.585938 152.648438 136.054688 152.460938 136.433594 152.175781 C 136.808594 151.894531 136.902344 151.992188 137.46875 151.894531 C 138.035156 151.800781 136.996094 151.335938 136.996094 151.335938 C 136.996094 151.335938 136.148438 151.539062 135.585938 151.539062 C 135.019531 151.539062 134.640625 150.996094 134.640625 150.996094 L 134.574219 150.679688 L 135.113281 150.679688 L 134.640625 150.246094 C 134.640625 150.246094 134.078125 150.1875 133.605469 150.09375 C 133.132812 150 132.945312 150.753906 132.285156 151.132812 C 131.625 151.511719 131.625 151.984375 131.34375 152.363281 C 131.0625 152.738281 131.15625 153.117188 131.0625 153.777344 C 130.96875 154.441406 130.308594 154.441406 129.929688 154.816406 C 129.554688 155.195312 129.554688 156.046875 129.554688 156.613281 C 129.554688 157.179688 129.269531 157.371094 128.894531 157.464844 C 128.515625 157.558594 128.515625 158.125 128.421875 158.40625 C 128.328125 158.691406 127.855469 159.257812 127.855469 159.257812 C 127.855469 159.257812 128.328125 159.820312 128.328125 160.195312 C 128.328125 160.574219 128.515625 160.753906 128.988281 161.132812 C 129.460938 161.511719 129.925781 162.070312 129.925781 162.070312 C 129.925781 162.070312 129.929688 162.070312 129.554688 162.070312 C 129.175781 162.070312 128.328125 161.894531 127.855469 162.273438 C 127.386719 162.648438 126.914062 162.945312 126.253906 163.039062 C 125.597656 163.136719 125.691406 162.566406 124.9375 162.472656 C 124.183594 162.378906 123.898438 162.378906 123.332031 162.285156 C 122.769531 162.191406 121.921875 162.851562 121.921875 162.851562 C 121.921875 162.851562 122.675781 163.417969 122.390625 163.511719 C 122.109375 163.609375 121.636719 164.078125 121.636719 164.078125 C 121.636719 164.078125 121.074219 163.417969 120.507812 163.136719 C 119.941406 162.851562 120.414062 164.269531 120.789062 164.835938 C 121.167969 165.402344 120.976562 165.5 120.976562 165.5 C 120.695312 165.402344 120.507812 166.441406 120.507812 166.441406 L 121.261719 167.292969 L 122.484375 167.953125 C 122.484375 167.953125 122.203125 168.523438 121.921875 168.332031 C 121.636719 168.144531 121.167969 168.617188 121.167969 168.617188 L 121.355469 169.183594 L 120.507812 169.277344 L 120.882812 169.9375 L 120.976562 170.976562 L 120.507812 170.59375 L 119.753906 170.777344 L 119.371094 170.207031 L 118.714844 170.207031 L 118.8125 169.644531 C 118.8125 169.644531 118.339844 169.179688 118.058594 168.800781 C 117.773438 168.421875 118.339844 168.132812 118.339844 168.132812 L 119.09375 167.9375 L 120.0625 167.929688 L 121.167969 167.929688 L 120.128906 167.375 L 117.960938 167.292969 L 117.398438 166.632812 L 118.058594 166.347656 L 117.019531 165.6875 C 117.019531 165.6875 116.265625 164.742188 116.078125 164.363281 C 115.890625 163.984375 115.136719 163.324219 115.136719 163.324219 C 115.136719 163.324219 115.511719 162.285156 115.417969 161.8125 C 115.324219 161.339844 115.324219 160.394531 115.324219 160.394531 C 115.324219 160.394531 112.496094 158.125 112.023438 157.652344 C 111.554688 157.179688 111.269531 157.179688 110.613281 157.085938 C 109.953125 156.992188 109.667969 156.425781 109.292969 156.140625 C 108.914062 155.859375 108.914062 155.289062 108.914062 155.289062 C 108.914062 155.289062 109.007812 154.722656 108.820312 154.441406 C 108.632812 154.15625 108.253906 153.777344 107.785156 153.210938 C 107.3125 152.644531 107.3125 153.96875 106.9375 153.96875 C 106.558594 153.96875 106.183594 153.304688 106.371094 152.929688 C 106.558594 152.550781 106.085938 152.171875 106.085938 152.171875 C 106.085938 152.171875 105.523438 152.457031 104.675781 152.738281 C 103.824219 153.023438 104.675781 153.777344 104.578125 154.25 C 104.484375 154.722656 104.484375 155.386719 105.050781 155.953125 C 105.617188 156.519531 106.183594 156.707031 106.558594 156.992188 C 106.9375 157.273438 106.746094 157.84375 107.125 158.597656 C 107.5 159.355469 107.785156 159.542969 108.160156 159.828125 C 108.539062 160.109375 108.726562 160.300781 109.386719 160.394531 C 110.046875 160.488281 110.328125 161.148438 110.328125 161.148438 L 110.800781 161.71875 L 113.347656 162.945312 L 114.007812 163.703125 L 113.828125 164.078125 L 113.175781 163.796875 L 111.878906 162.945312 L 111.070312 164.457031 L 112.027344 165.222656 L 112.027344 165.96875 L 111.460938 166.347656 L 111.082031 167.292969 L 110.613281 167.386719 L 110.234375 168.238281 L 109.765625 168.050781 L 110.046875 167.011719 L 110.328125 166.441406 L 110.046875 165.214844 L 109.667969 163.894531 L 109.199219 164.179688 L 108.632812 163.523438 L 108.539062 162.773438 L 107.878906 162.886719 L 107.21875 162.640625 L 106.679688 161.746094 L 105.710938 161.746094 L 104.582031 160.738281 L 103.449219 159.542969 L 102.695312 158.976562 L 101.847656 157.9375 L 101.1875 156.140625 C 101.1875 156.140625 99.773438 155.289062 99.210938 155.101562 C 98.644531 154.914062 98.269531 156.140625 98.269531 156.140625 C 98.269531 156.140625 97.703125 156.519531 97.136719 156.707031 C 96.570312 156.898438 96.195312 157.371094 95.820312 157.746094 C 95.441406 158.125 94.503906 157.652344 93.9375 157.558594 C 93.371094 157.464844 92.625 157.273438 92.625 157.273438 C 92.625 157.273438 91.980469 156.992188 91.320312 157.273438 C 90.664062 157.558594 90.785156 158.21875 90.785156 158.21875 L 90.933594 159.425781 L 90.933594 160.203125 L 90.3125 160.867188 C 90.3125 160.867188 89.40625 161.527344 88.371094 162 C 87.335938 162.472656 87.242188 163.039062 86.957031 163.230469 C 86.675781 163.417969 85.542969 165.308594 85.542969 165.308594 C 85.542969 165.308594 85.640625 165.78125 85.828125 166.0625 C 86.015625 166.347656 86.203125 166.535156 86.203125 166.535156 L 85.828125 167.007812 C 85.828125 167.007812 85.828125 167.007812 85.261719 167.386719 C 84.695312 167.765625 84.886719 168.710938 84.320312 168.710938 C 83.753906 168.710938 83.378906 169.464844 83.28125 169.84375 C 83.1875 170.222656 82.527344 170.503906 82.058594 170.410156 C 81.585938 170.316406 80.644531 170.503906 80.078125 170.503906 C 79.511719 170.503906 78.949219 170.789062 78.949219 170.789062 C 78.949219 170.789062 77.722656 171.921875 77.25 171.828125 C 76.78125 171.734375 76.308594 170.789062 75.835938 170.03125 C 75.367188 169.277344 75.082031 169.65625 74.234375 169.84375 C 73.386719 170.03125 72.445312 169.84375 72.445312 169.84375 L 72.726562 167.195312 L 72.164062 167.292969 L 71.597656 166.441406 L 72.539062 163.511719 C 72.539062 163.511719 72.820312 162 72.820312 161.714844 C 72.820312 161.433594 72.539062 160.488281 72.539062 160.488281 L 72.445312 159.449219 L 72.351562 158.785156 L 71.785156 158.3125 L 72.257812 157.652344 L 73.292969 157.464844 L 73.386719 156.894531 L 73.953125 156.707031 C 73.953125 156.707031 74.800781 156.707031 75.179688 156.894531 C 75.554688 157.085938 76.78125 156.800781 76.78125 156.800781 C 76.78125 156.800781 77.722656 156.894531 78.664062 156.992188 C 79.609375 157.085938 80.265625 157.367188 80.925781 157.273438 C 81.585938 157.179688 83.09375 157.746094 83.660156 157.558594 C 84.226562 157.367188 84.320312 154.15625 84.226562 153.210938 C 84.128906 152.265625 84.320312 151.226562 84.320312 151.226562 L 83.472656 150.753906 C 83.472656 150.753906 82.90625 149.808594 82.90625 149.429688 C 82.90625 149.050781 82.8125 148.769531 82.433594 148.671875 C 82.058594 148.578125 81.585938 148.296875 81.117188 148.011719 C 80.644531 147.726562 80.171875 147.632812 79.796875 147.539062 C 79.417969 147.445312 79.609375 147.160156 79.324219 147.0625 C 79.042969 146.96875 78.851562 146.117188 78.851562 146.117188 L 79.609375 145.824219 L 81.117188 145.246094 L 82.050781 145.796875 L 82.625 145.796875 L 83.660156 145.722656 L 83.472656 144.988281 L 83 143.191406 L 83.660156 143.382812 L 84.507812 144.230469 C 84.507812 144.230469 85.261719 144.421875 85.828125 144.230469 C 86.394531 144.042969 86.769531 143.949219 86.769531 143.949219 L 86.109375 143.570312 C 86.109375 143.570312 86.863281 143.097656 87.148438 142.910156 C 87.429688 142.71875 87.996094 142.4375 88.371094 141.871094 C 88.75 141.300781 88.464844 140.355469 88.464844 140.355469 C 88.464844 140.355469 89.410156 140.167969 89.878906 139.980469 C 90.351562 139.789062 90.917969 139.316406 90.917969 139.316406 L 91.859375 139.035156 L 92.992188 138.5625 L 92.246094 138.183594 C 92.246094 138.183594 92.253906 138.183594 92.441406 137.523438 C 92.632812 136.859375 93.027344 136.011719 93.027344 136.011719 L 93.53125 135.546875 L 93.53125 136.671875 L 94.058594 136.765625 L 94.121094 135.632812 L 93.929688 135.253906 L 94.308594 134.402344 C 94.308594 134.402344 95.34375 134.308594 95.816406 134.308594 C 96.289062 134.308594 96.476562 134.121094 96.476562 134.121094 L 96.945312 133.648438 L 98.171875 133.742188 L 98.832031 134.027344 C 98.832031 134.027344 98.738281 132.984375 99.113281 132.890625 C 99.492188 132.796875 99.304688 132.417969 99.304688 131.945312 C 99.304688 131.472656 99.398438 131.191406 99.207031 130.71875 C 99.019531 130.246094 98.925781 129.679688 98.832031 128.921875 C 98.738281 128.167969 97.90625 129.035156 98.078125 127.789062 C 98.148438 127.285156 97.984375 126.085938 98.078125 125.519531 C 98.171875 124.953125 98.738281 124.007812 99.398438 123.914062 C 100.054688 123.820312 100.152344 123.722656 100.527344 123.535156 C 100.90625 123.347656 101.660156 122.589844 101.660156 122.589844 L 101.566406 123.441406 L 101.472656 124.386719 L 101.378906 125.804688 L 102.136719 126.273438 L 101.578125 126.746094 L 101.308594 127.316406 L 100.484375 128.070312 L 100.34375 128.804688 L 100.34375 129.960938 L 100.953125 130.539062 L 101.09375 131.398438 L 101.941406 131.703125 L 102.507812 131.933594 L 102.21875 132.777344 L 103.070312 132.777344 L 104.015625 132.03125 L 105.144531 131.757812 C 105.144531 131.757812 105.144531 131.757812 105.617188 132.136719 C 106.085938 132.511719 106.183594 132.230469 106.746094 132.796875 C 107.3125 133.363281 107.785156 133.175781 107.785156 133.175781 L 107.5 132.796875 C 107.5 132.796875 108.632812 132.136719 109.101562 132.039062 C 109.574219 131.945312 110.140625 131.945312 110.515625 131.664062 C 110.894531 131.378906 111.175781 131 112.214844 130.527344 C 113.25 130.054688 113.816406 130.339844 113.816406 130.339844 L 114.570312 131.757812 C 114.570312 131.757812 114.570312 131.757812 115.417969 131.378906 C 116.265625 131 116.359375 130.054688 116.359375 130.054688 L 117.867188 130.246094 L 118.246094 129.582031 C 118.246094 129.582031 117.960938 127.222656 117.960938 126.652344 C 117.960938 126.085938 117.773438 125.046875 117.960938 124.667969 C 118.152344 124.289062 118.339844 123.535156 118.8125 123.15625 C 119.28125 122.777344 120.035156 122.496094 120.035156 122.496094 L 121.074219 123.441406 C 121.074219 123.441406 121.261719 124.195312 121.828125 124.386719 C 122.390625 124.574219 122.675781 124.195312 122.675781 124.195312 C 122.675781 124.195312 123.054688 121.644531 123.054688 121.359375 C 123.054688 121.078125 122.871094 120.417969 122.871094 120.417969 L 122.308594 120.792969 C 122.308594 120.792969 121.851562 120.605469 121.664062 120.132812 C 121.472656 119.660156 121.96875 119.472656 121.96875 119.472656 L 121.765625 119.101562 L 121.765625 118.148438 L 122.644531 117.582031 L 124.085938 117.109375 L 125.125 116.828125 L 126.347656 117.113281 C 126.347656 117.113281 126.914062 117.308594 127.480469 117.402344 C 128.046875 117.496094 128.609375 117.222656 128.609375 117.222656 L 128.515625 116.582031 L 129.296875 116.503906 L 129.742188 116.503906 L 130.398438 115.90625 C 130.398438 115.90625 131.050781 115.972656 131.710938 115.691406 C 132.371094 115.40625 130.382812 115.21875 130.382812 115.21875 L 129.230469 114.4375 L 129.230469 113.515625 L 128.117188 114.085938 L 127.101562 113.988281 L 125.59375 114.367188 L 124.277344 114.839844 L 122.203125 115.691406 L 120.976562 115.5 L 119.65625 114.367188 L 118.433594 113.421875 L 118.246094 112.289062 L 118.527344 110.871094 L 118.152344 109.453125 L 117.867188 107.375 C 117.867188 107.375 117.960938 106.714844 118.246094 106.335938 C 118.527344 105.957031 118.90625 105.957031 118.90625 105.957031 L 118.8125 105.484375 L 119.855469 105.105469 C 119.855469 105.105469 120.523438 104.066406 120.898438 103.6875 C 121.277344 103.3125 122.234375 101.800781 122.707031 101.328125 C 123.179688 100.855469 123.398438 99.910156 123.585938 99.625 C 123.777344 99.339844 124.6875 99.695312 124.6875 99.695312 C 124.6875 99.695312 124.6875 99.71875 124.6875 99.339844 C 124.6875 98.964844 124.714844 98.398438 124.527344 97.925781 C 124.339844 97.453125 123.898438 96.886719 123.617188 96.507812 C 123.332031 96.128906 122.769531 96.035156 122.109375 96.035156 C 121.449219 96.035156 120.882812 95.84375 120.316406 95.84375 C 119.75 95.84375 119.5625 96.980469 119 97.261719 C 118.433594 97.546875 119 98.113281 118.527344 98.871094 C 118.054688 99.625 118.339844 100.191406 118.339844 100.191406 C 118.339844 100.191406 118.714844 100.949219 118.433594 101.136719 C 118.152344 101.328125 117.773438 102.460938 117.398438 103.121094 C 117.019531 103.785156 115.984375 104.066406 115.421875 104.351562 C 114.855469 104.632812 114.386719 105.203125 113.914062 105.769531 C 113.445312 106.335938 112.226562 107.660156 112.226562 107.660156 L 112.332031 108.605469 L 111.699219 110.398438 L 112.027344 113.050781 L 112.027344 113.894531 L 110.660156 115.1875 C 111.320312 115.28125 112.523438 113.898438 112.523438 113.898438 L 112.96875 113.898438 L 113.34375 114.417969 C 113.34375 114.417969 113.4375 114.9375 113.816406 115.3125 C 114.191406 115.691406 114.285156 116.257812 114.285156 116.257812 L 113.4375 117.394531 C 113.4375 117.394531 112.589844 117.296875 111.929688 117.203125 C 111.269531 117.109375 110.609375 117.203125 110.609375 117.203125 L 112.398438 117.960938 L 113.8125 117.769531 L 112.582031 118.808594 C 112.582031 118.808594 112.199219 119.09375 111.917969 119.28125 C 111.632812 119.472656 110.394531 119.753906 110.394531 119.753906 L 111.054688 120.109375 C 111.054688 120.109375 111.054688 120.605469 111.054688 120.890625 C 111.054688 121.171875 111.070312 122.117188 110.976562 122.683594 C 110.878906 123.253906 110.800781 123.726562 110.707031 124.386719 C 110.613281 125.046875 109.859375 126.84375 109.859375 126.84375 C 109.859375 126.84375 108.539062 126.75 107.785156 127.128906 C 107.03125 127.503906 107.40625 128.734375 107.40625 128.734375 L 106.558594 128.921875 L 105.332031 128.640625 C 105.332031 128.640625 105.804688 128.167969 105.144531 128.074219 C 104.484375 127.976562 104.390625 128.734375 104.390625 128.734375 L 104.957031 129.300781 L 104.484375 129.773438 L 103.921875 129.679688 L 103.167969 129.488281 L 102.414062 128.261719 L 103.261719 128.074219 L 103.355469 127.316406 L 104.203125 127.410156 L 104.863281 126.84375 C 104.863281 126.84375 105.050781 126.277344 105.332031 125.804688 C 105.617188 125.332031 104.675781 124.765625 104.390625 124.292969 C 104.109375 123.820312 103.730469 123.441406 103.730469 123.441406 L 103.636719 122.308594 C 103.636719 122.308594 103.730469 121.929688 103.636719 121.644531 C 103.542969 121.363281 103.070312 121.078125 103.070312 121.078125 L 102.789062 118.621094 L 102.316406 117.960938 L 102.222656 117.203125 L 101.5625 116.636719 L 101.660156 117.675781 L 101.1875 118.621094 L 100.621094 118.527344 L 100.152344 119.1875 C 100.152344 119.1875 98.640625 120.605469 98.265625 121.171875 C 97.890625 121.742188 96.476562 121.269531 95.910156 121.078125 C 95.34375 120.890625 94.496094 120.132812 94.214844 119.378906 C 93.929688 118.621094 94.683594 119.09375 94.871094 118.621094 C 95.0625 118.148438 95.4375 117.867188 95.15625 117.675781 C 94.871094 117.488281 94.308594 118.054688 94.117188 117.582031 C 93.929688 117.109375 93.835938 116.730469 94.117188 116.257812 C 94.402344 115.785156 93.742188 115.3125 93.835938 114.84375 C 93.929688 114.371094 93.648438 113.992188 93.554688 113.425781 C 93.460938 112.859375 93.929688 113.046875 93.835938 112.480469 C 93.742188 111.914062 93.554688 111.722656 93.742188 111.34375 C 93.929688 110.96875 93.648438 110.304688 93.648438 109.929688 C 93.648438 109.550781 93.835938 109.078125 93.835938 109.078125 C 93.835938 109.078125 94.589844 109.078125 95.0625 108.890625 C 95.53125 108.699219 95.53125 108.605469 95.625 108.320312 C 95.722656 108.039062 95.816406 107.566406 95.816406 107.566406 C 95.816406 107.566406 96.570312 107.753906 97.132812 107.472656 C 97.699219 107.1875 96.664062 106.621094 96.570312 106.335938 C 96.476562 106.054688 97.230469 106.242188 97.230469 106.242188 C 97.230469 106.242188 97.511719 105.582031 98.265625 105.296875 C 99.019531 105.015625 98.738281 104.917969 99.113281 104.730469 C 99.492188 104.542969 99.960938 104.164062 100.246094 103.972656 C 100.527344 103.785156 100.808594 104.730469 100.808594 104.730469 C 100.808594 104.730469 101.46875 104.730469 101.847656 104.445312 C 102.222656 104.164062 102.316406 104.070312 102.222656 103.691406 C 102.128906 103.3125 101.375 104.164062 101.375 104.164062 L 100.808594 103.3125 L 101.375 102.179688 L 102.410156 100.476562 L 102.882812 100.761719 L 103.355469 100.195312 L 103.542969 99.058594 L 104.203125 98.777344 L 104.296875 98.210938 L 104.675781 97.644531 L 104.964844 96.699219 L 105.441406 96.128906 L 105.359375 95.46875 L 105.574219 94.617188 L 106.1875 94.339844 L 106.1875 93.296875 C 106.1875 93.296875 106.703125 92.445312 106.984375 92.257812 C 107.269531 92.066406 107.3125 91.5 107.6875 91.121094 C 108.066406 90.746094 107.878906 90.175781 107.878906 90.175781 L 108.820312 89.515625 L 109.386719 89.800781 C 109.386719 89.800781 109.667969 89.328125 109.292969 89.140625 C 108.914062 88.949219 109.292969 89.144531 109.292969 88.859375 C 109.292969 88.574219 109.761719 87.730469 109.761719 87.730469 C 109.761719 87.730469 110.328125 87.457031 110.421875 87.078125 C 110.515625 86.703125 110.800781 86.4375 110.988281 86.0625 C 111.175781 85.683594 112.214844 86.386719 112.214844 86.386719 L 112.773438 85.910156 L 111.835938 85.910156 L 111.175781 85.539062 C 111.175781 85.539062 112.117188 85.167969 112.402344 84.882812 C 112.683594 84.601562 112.777344 84.035156 112.777344 84.035156 L 112.589844 83.371094 L 113.25 82.898438 L 113.53125 81.953125 L 114.378906 82.332031 L 114.285156 81.292969 L 115.417969 82.617188 C 115.417969 82.617188 115.511719 82.144531 114.945312 81.765625 C 114.378906 81.386719 114.757812 80.441406 114.757812 80.441406 L 115.605469 80.253906 L 115.792969 81.480469 L 116.171875 79.875 L 116.925781 79.59375 L 116.640625 81.484375 L 117.679688 79.78125 L 118.621094 79.3125 L 119.46875 80.164062 L 119.1875 79.699219 L 119.09375 79.050781 L 118.714844 78.605469 L 118.617188 78.097656 L 119.375 78.097656 L 120.128906 78.324219 L 120.789062 78.363281 L 120.882812 78.742188 L 121.164062 79.214844 L 121.257812 78.269531 C 121.257812 78.269531 121.636719 77.796875 122.011719 77.417969 C 122.390625 77.039062 122.765625 77.132812 122.765625 77.132812 L 122.957031 76.472656 L 123.238281 76.09375 L 122.957031 75.433594 L 123.898438 74.960938 L 124.371094 75.527344 L 124.839844 75.339844 C 124.839844 75.339844 125.308594 75.433594 125.121094 75.71875 C 124.933594 76 124.367188 76.757812 124.273438 77.324219 C 124.179688 77.890625 123.988281 78.648438 123.988281 78.648438 L 124.550781 77.796875 C 124.550781 77.796875 125.484375 76.285156 125.671875 75.90625 C 125.859375 75.527344 126.503906 75.148438 126.503906 75.148438 L 126.308594 76.257812 L 126.308594 77.230469 L 126.894531 76.945312 L 127.195312 76.285156 L 127.667969 75.433594 L 128.042969 74.300781 L 128.796875 74.398438 L 129.175781 74.785156 L 128.894531 75.363281 L 128.421875 75.671875 L 128.894531 76.289062 L 128.730469 77.121094 L 129.269531 77.121094 L 129.734375 75.710938 L 130.296875 75.433594 L 131.039062 76 L 131.769531 76.1875 L 132.199219 76.660156 L 132.800781 77.203125 L 132.800781 77.796875 C 132.800781 77.796875 132.871094 77.796875 132.496094 77.890625 C 132.117188 77.984375 131.34375 78.742188 131.34375 78.742188 L 129.550781 78.554688 L 130.210938 79.03125 L 130.964844 79.703125 L 131.625 79.90625 L 131.054688 80.703125 L 132.191406 80.703125 L 132.375 80.375 C 132.375 80.375 132.945312 80.375 133.226562 80.375 C 133.511719 80.375 134.074219 80.882812 134.074219 80.882812 L 134.167969 80.160156 L 134.726562 79.496094 L 135.476562 79.875 L 136.214844 80.441406 L 135.8125 80.914062 L 134.746094 80.414062 L 134.746094 80.914062 L 135.542969 81.480469 L 136.339844 81.667969 L 136.808594 82.425781 L 137.46875 82.046875 L 138.222656 82.519531 L 139.636719 82.710938 L 139.730469 82.332031 C 139.730469 82.332031 140.957031 82.898438 141.710938 83.464844 C 142.464844 84.03125 142.558594 84.316406 143.125 84.882812 C 143.6875 85.449219 144.539062 86.300781 144.539062 86.300781 L 145.386719 86.960938 L 146.234375 87.433594 L 146.796875 87.527344 L 147.648438 88.566406 L 148.210938 89.039062 L 148.683594 90.554688 L 148.964844 91.402344 C 148.964844 91.402344 148.589844 92.726562 147.648438 93.765625 C 146.703125 94.804688 145.480469 95.089844 144.820312 95.183594 C 144.160156 95.277344 142.933594 94.710938 142.273438 94.523438 C 141.617188 94.332031 141.050781 94.144531 140.578125 93.957031 C 140.105469 93.765625 139.351562 93.578125 138.976562 93.484375 C 138.597656 93.386719 138.597656 92.917969 138.316406 92.820312 C 138.035156 92.726562 137.1875 92.824219 136.714844 92.632812 C 136.242188 92.445312 136.054688 91.691406 135.488281 91.125 C 134.921875 90.558594 135.019531 91.507812 135.019531 91.507812 L 135.773438 93.03125 L 136.460938 93.71875 L 137.089844 93.71875 L 137.28125 94.355469 L 137.9375 94.804688 L 138.691406 95.277344 L 138.789062 95.9375 L 138.691406 97.453125 L 138.316406 98.019531 L 138.976562 99.71875 L 138.882812 100.851562 L 139.730469 101.609375 L 140.296875 101.511719 L 141.332031 102.640625 L 143.214844 103.484375 L 143.808594 103.160156 L 144.347656 103.160156 C 144.347656 103.160156 143.96875 102.605469 143.875 102.132812 C 143.78125 101.660156 143.496094 101.207031 143.496094 101.207031 L 142.460938 101.207031 L 141.886719 100.199219 L 141.886719 99.4375 L 142.597656 98.679688 L 143.59375 99.4375 L 144.160156 100.191406 L 144.722656 99.8125 C 144.722656 99.8125 145.289062 100.097656 145.949219 100.476562 C 146.609375 100.855469 146.984375 100.757812 146.984375 100.757812 L 148.023438 100.855469 C 148.023438 100.855469 147.269531 98.679688 146.890625 98.398438 C 146.515625 98.113281 146.796875 96.980469 146.796875 96.980469 C 146.796875 96.980469 147.457031 96.410156 147.738281 96.035156 C 148.023438 95.65625 148.492188 95.371094 148.871094 95.183594 C 149.246094 94.996094 149.53125 94.804688 149.8125 94.425781 C 150.09375 94.050781 150.472656 93.480469 150.472656 93.480469 L 151.226562 94.050781 L 152.167969 94.425781 L 152.734375 95.183594 L 153.203125 95.9375 C 153.203125 95.9375 153.203125 94.050781 153.488281 93.671875 C 153.769531 93.292969 153.582031 92.820312 153.675781 92.539062 C 153.769531 92.253906 153.863281 91.875 153.675781 91.496094 C 153.488281 91.121094 153.109375 91.121094 153.109375 91.121094 C 153.109375 91.121094 152.734375 90.742188 152.828125 90.078125 C 152.921875 89.417969 153.109375 89.039062 153.203125 88.472656 C 153.300781 87.90625 153.300781 86.773438 153.203125 86.300781 C 153.109375 85.828125 152.546875 85.449219 152.546875 85.449219 L 153.394531 85.542969 L 155.464844 85.636719 L 156.21875 86.488281 L 156.878906 87.339844 L 156.691406 88.378906 C 156.691406 88.378906 155.183594 88.757812 154.902344 89.136719 C 154.617188 89.511719 154.429688 89.796875 154.429688 89.796875 C 154.429688 89.796875 154.617188 90.457031 155.371094 91.308594 C 156.125 92.160156 156.503906 92.160156 156.503906 92.160156 L 156.976562 92.820312 L 157.449219 92.441406 C 157.449219 92.441406 157.925781 92.253906 158.492188 91.96875 C 159.058594 91.6875 158.878906 92.066406 158.691406 91.214844 C 158.503906 90.363281 159.277344 89.511719 159.277344 89.511719 L 160.382812 89.109375 L 160.382812 88.566406 C 160.382812 88.566406 161.363281 88.09375 162.308594 87.433594 C 163.25 86.773438 163.855469 86.394531 164.609375 85.921875 C 165.363281 85.449219 165.457031 85.921875 165.457031 85.921875 L 166.019531 86.207031 L 165.832031 85.164062 L 166.492188 84.789062 L 166.867188 85.070312 L 167.246094 84.316406 L 167.71875 83.9375 C 167.71875 83.9375 168.28125 84.316406 168.28125 84.597656 C 168.28125 84.882812 168.1875 85.449219 168.1875 85.828125 C 168.1875 86.207031 168.472656 86.582031 168.753906 86.582031 C 169.035156 86.582031 169.507812 86.867188 169.507812 86.867188 C 169.507812 86.867188 169.789062 86.394531 169.882812 86.015625 C 169.980469 85.636719 170.449219 85.449219 170.734375 85.449219 C 171.015625 85.449219 171.390625 85.164062 171.769531 85.261719 C 172.144531 85.355469 172.523438 85.261719 172.523438 85.261719 L 173.464844 85.355469 L 174.125 84.597656 L 174.691406 84.125 L 175.914062 83.558594 L 176.480469 84.410156 C 176.480469 84.410156 177.046875 84.503906 176.574219 84.976562 C 176.105469 85.449219 176.292969 86.109375 176.667969 86.300781 C 177.046875 86.488281 177.046875 86.207031 177.421875 85.636719 C 177.800781 85.070312 177.328125 84.691406 177.328125 84.691406 C 177.328125 84.691406 177.894531 84.597656 178.367188 84.410156 C 178.835938 84.21875 178.742188 82.992188 178.742188 82.992188 C 178.742188 82.992188 178.273438 81.574219 178.085938 81.289062 C 177.894531 81.003906 177.992188 80.53125 178.367188 80.34375 C 178.746094 80.15625 179.125 79.871094 179.125 79.871094 L 180.355469 80.339844 L 182.0625 80.523438 L 183.027344 80.980469 L 183.730469 81.335938 L 184.613281 81.929688 C 184.617188 81.929688 184.273438 82.558594 184.402344 83.542969 Z M 177.867188 80.398438 L 178.148438 79.980469 C 178.148438 79.980469 177.613281 79.285156 177.457031 78.96875 C 177.300781 78.65625 177.019531 78.433594 176.859375 78.339844 C 176.703125 78.242188 176.640625 78.273438 176.515625 77.992188 C 176.390625 77.707031 176.230469 77.90625 176.167969 77.75 C 176.105469 77.59375 175.980469 77.445312 175.980469 77.445312 L 175.667969 77.445312 C 175.667969 77.445312 175.351562 77.96875 175.257812 77.96875 C 175.164062 77.96875 175.566406 78.230469 175.566406 78.230469 L 174.992188 78.113281 L 174.992188 78.460938 C 174.992188 78.460938 175.34375 78.933594 175.375 79.027344 C 175.410156 79.125 175.679688 79.5625 175.679688 79.5625 C 175.679688 79.5625 175.988281 79.597656 176.082031 79.628906 C 176.175781 79.660156 176.816406 79.847656 176.878906 79.941406 C 176.941406 80.039062 176.855469 80.257812 176.855469 80.257812 C 176.855469 80.257812 177.140625 80.414062 177.234375 80.445312 C 177.328125 80.476562 177.867188 80.398438 177.867188 80.398438 Z M 162.335938 83.3125 L 162.335938 82.933594 L 162.246094 82.558594 L 162.171875 82.714844 L 162.070312 82.460938 C 162.070312 82.460938 161.550781 81.925781 161.328125 81.738281 C 161.109375 81.546875 160.894531 81.359375 160.894531 81.359375 L 160.492188 81.515625 L 160.226562 81.421875 C 160.226562 81.421875 159.769531 81.957031 159.644531 82.335938 C 159.519531 82.714844 159.332031 83.21875 159.394531 83.4375 C 159.457031 83.660156 159.332031 84.070312 159.332031 84.226562 C 159.332031 84.382812 159.488281 84.636719 159.488281 84.636719 C 159.488281 84.636719 159.519531 84.101562 159.675781 84.226562 C 159.832031 84.351562 159.960938 84.605469 159.960938 84.605469 L 160.273438 84.605469 L 160.589844 84.730469 C 160.589844 84.730469 160.871094 84.460938 161.027344 84.429688 C 161.183594 84.398438 161.53125 84.375 161.71875 84.0625 C 161.90625 83.746094 162.105469 83.214844 162.199219 83.214844 C 162.292969 83.214844 162.335938 83.3125 162.335938 83.3125 Z M 81.105469 122.695312 C 80.792969 122.632812 79.597656 122.945312 79.597656 122.945312 L 79.789062 122.441406 L 79.597656 122.0625 L 80.542969 121.183594 L 81.042969 120.550781 L 80.980469 119.921875 C 80.980469 119.921875 79.789062 120.046875 79.535156 120.109375 C 79.285156 120.171875 78.28125 120.109375 78.28125 120.109375 L 77.964844 121.054688 L 77.527344 121.433594 L 77.777344 121.875 L 77.023438 122.503906 L 76.960938 123.449219 L 77.460938 123.765625 L 76.960938 125.089844 L 76.582031 125.527344 L 77.148438 126.03125 L 77.777344 125.78125 C 77.777344 125.78125 77.714844 126.472656 77.460938 127.167969 C 77.210938 127.859375 77.148438 128.867188 77.148438 128.867188 L 77.398438 128.933594 L 77.714844 127.292969 L 78.027344 126.851562 L 78.089844 127.546875 L 78.40625 127.105469 L 78.53125 127.605469 L 78.40625 128.296875 C 78.40625 128.296875 78.59375 128.738281 78.53125 128.988281 C 78.46875 129.242188 78.214844 129.738281 78.152344 130.117188 C 78.089844 130.496094 78.40625 130.734375 78.40625 130.734375 C 78.40625 130.734375 78.40625 130.707031 78.65625 130.644531 C 78.90625 130.582031 79.222656 130.5 79.222656 130.5 C 79.222656 130.5 79.660156 130.5 80.039062 130.5 C 80.414062 130.5 80.539062 130.15625 80.539062 130.15625 L 80.980469 130.316406 C 80.980469 130.316406 80.980469 130.316406 80.730469 130.507812 C 80.476562 130.695312 80.414062 131.453125 80.414062 131.769531 C 80.414062 132.082031 81.042969 132.335938 81.042969 132.335938 C 81.042969 132.335938 81.671875 132.144531 81.609375 132.398438 C 81.546875 132.648438 81.484375 133.28125 81.484375 133.46875 C 81.484375 133.65625 81.292969 134.351562 81.292969 134.351562 C 81.292969 134.351562 80.667969 134.351562 80.101562 134.601562 C 79.535156 134.855469 79.03125 135.546875 79.03125 135.546875 C 79.03125 135.546875 79.410156 135.546875 79.597656 135.484375 C 79.785156 135.421875 79.847656 136.429688 79.847656 136.429688 L 79.597656 137.058594 L 77.839844 138.195312 L 78.46875 138.699219 L 79.03125 138.320312 L 79.09375 138.636719 L 79.597656 138.949219 L 80.039062 138.699219 L 80.667969 139.265625 L 81.105469 139.140625 L 81.859375 138.507812 L 81.355469 139.644531 L 79.976562 139.894531 L 79.03125 140.460938 L 77.273438 142.414062 C 77.273438 142.414062 77.714844 142.476562 77.902344 142.476562 C 78.089844 142.476562 78.59375 142.039062 78.96875 141.910156 C 79.347656 141.785156 79.847656 141.910156 80.289062 141.847656 C 80.730469 141.785156 80.730469 141.027344 80.730469 141.027344 L 81.546875 140.714844 L 81.859375 141.21875 C 81.859375 141.21875 82.425781 141.09375 82.992188 140.839844 C 83.554688 140.589844 83.683594 140.777344 84.371094 140.777344 C 85.0625 140.777344 85.441406 140.714844 86.382812 140.652344 C 87.324219 140.589844 87.890625 139.894531 87.890625 139.515625 C 87.890625 139.140625 87.074219 139.328125 87.074219 139.328125 L 87.261719 138.574219 C 87.261719 138.574219 88.144531 137.816406 88.144531 137.628906 C 88.144531 137.4375 88.644531 136.621094 88.519531 136.242188 C 88.394531 135.867188 87.890625 135.679688 87.453125 135.492188 C 87.011719 135.300781 86.632812 135.9375 86.632812 135.9375 L 85.816406 135.761719 C 85.816406 135.761719 86.132812 135.59375 86.382812 135.089844 C 86.382812 135.089844 86.320312 134.445312 86.132812 134.257812 C 85.945312 134.070312 85.691406 133.753906 85.691406 133.753906 L 86.132812 133.753906 C 86.132812 133.753906 85.691406 132.699219 85.503906 132.382812 C 85.316406 132.066406 85 131.453125 84.6875 131.261719 C 84.371094 131.074219 84.183594 130.824219 83.871094 130.382812 C 83.554688 129.941406 83.367188 128.554688 83.367188 128.554688 L 82.238281 127.609375 L 81.484375 127.484375 C 81.484375 127.484375 80.855469 127.421875 81.105469 127.105469 C 81.355469 126.789062 81.796875 126.664062 81.796875 126.664062 L 81.292969 126.035156 L 81.796875 125.972656 C 81.796875 125.972656 82.300781 125.34375 82.425781 125.15625 C 82.550781 124.964844 82.738281 124.152344 82.738281 123.898438 C 82.738281 123.648438 83.054688 123.402344 83.054688 123.402344 L 82.863281 122.789062 M 76.800781 130.980469 C 76.800781 130.980469 76.929688 130.695312 77.023438 130.445312 C 77.117188 130.191406 76.773438 130.003906 76.613281 129.71875 C 76.457031 129.4375 76.144531 129.5 75.828125 129.53125 C 75.515625 129.5625 75.105469 129.8125 75.105469 129.8125 C 75.105469 129.8125 75.136719 129.53125 75.074219 129.308594 C 75.011719 129.089844 74.730469 129.152344 74.574219 129.308594 C 74.417969 129.46875 74.449219 130.003906 74.449219 130.003906 L 74.257812 129.40625 C 74.257812 129.40625 74.039062 129.46875 73.789062 129.46875 C 73.535156 129.46875 73.472656 129.71875 73.222656 129.878906 C 72.972656 130.035156 73.128906 130.316406 72.84375 130.570312 C 72.5625 130.824219 72.65625 131.074219 72.941406 131.074219 C 73.222656 131.074219 73.285156 131.042969 73.410156 131.167969 C 73.535156 131.296875 73.128906 131.578125 72.941406 131.671875 C 72.75 131.769531 72.8125 132.050781 72.8125 132.050781 C 72.8125 132.050781 71.964844 131.988281 71.839844 131.957031 C 71.714844 131.925781 71.402344 131.894531 71.054688 131.957031 C 70.710938 132.019531 70.898438 132.617188 70.898438 132.617188 L 70.613281 132.710938 C 70.613281 132.710938 70.613281 132.902344 71.023438 132.933594 C 71.433594 132.964844 71.398438 133.152344 71.273438 133.183594 C 71.148438 133.21875 70.929688 133.5625 70.644531 133.878906 C 70.363281 134.195312 70.710938 134.226562 70.835938 134.382812 C 70.960938 134.539062 71.023438 134.382812 71.179688 134.382812 C 71.335938 134.382812 71.433594 134.667969 71.433594 134.667969 C 71.433594 134.667969 71.683594 134.667969 72.027344 134.601562 C 72.375 134.539062 72.4375 134.792969 71.996094 134.949219 C 71.558594 135.105469 71.464844 135.769531 71.464844 135.769531 L 71.117188 136.242188 L 71.839844 136.085938 L 72.375 135.738281 L 72.40625 135.957031 L 72.625 136.179688 L 71.179688 136.460938 L 70.992188 137.09375 C 70.992188 137.09375 70.679688 137.0625 70.300781 137.15625 C 69.925781 137.25 70.207031 137.566406 70.207031 137.566406 C 70.207031 137.566406 70.207031 137.566406 70.582031 137.535156 C 70.960938 137.503906 70.835938 137.597656 70.617188 137.691406 C 70.394531 137.785156 70.238281 138.195312 70.238281 138.195312 L 70.550781 138.351562 C 70.550781 138.351562 70.519531 138.195312 70.992188 138.164062 C 71.464844 138.132812 70.585938 138.730469 70.585938 138.730469 C 70.585938 138.730469 70.679688 138.605469 71.210938 138.507812 C 71.746094 138.414062 71.085938 138.824219 71.085938 138.824219 L 71.054688 139.078125 L 71.871094 138.886719 L 72.941406 138.507812 L 73.441406 138.257812 L 74.195312 137.753906 C 74.195312 137.753906 74.574219 137.566406 75.011719 137.375 C 75.453125 137.1875 76.082031 137.4375 76.082031 137.4375 C 76.082031 137.4375 76.207031 136.996094 76.207031 136.683594 C 76.207031 136.367188 76.769531 135.359375 76.582031 134.980469 C 76.390625 134.601562 76.511719 133.847656 76.511719 133.847656 L 76.292969 132.777344 L 76.976562 132.207031 L 77.300781 131.832031 L 77.300781 131.328125 C 77.300781 130.792969 76.800781 130.980469 76.800781 130.980469 Z M 75.953125 123.671875 L 76.332031 124.207031 L 76.773438 124.144531 L 76.867188 124.363281 L 77.117188 123.953125 C 77.117188 123.953125 76.898438 123.890625 76.742188 123.796875 C 76.582031 123.703125 76.707031 123.515625 76.488281 123.199219 C 76.269531 122.882812 76.113281 122.601562 76.113281 122.601562 L 76.144531 123.136719 L 75.828125 123.074219 L 75.609375 123.449219 Z M 75.199219 122.363281 L 75.609375 121.976562 L 75.984375 121.816406 L 76.082031 121.277344 L 76.425781 121.089844 L 76.429688 120.457031 L 75.675781 120.929688 L 75.675781 121.246094 L 75.296875 121.085938 C 75.296875 121.085938 75.078125 121.371094 75.171875 121.625 C 75.265625 121.875 75.199219 122.363281 75.199219 122.363281 Z M 74.363281 122.820312 C 74.300781 123.070312 74.929688 123.007812 74.929688 123.007812 L 74.929688 122.757812 C 74.929688 122.757812 74.425781 122.566406 74.363281 122.820312 Z M 76.394531 126.128906 C 76.644531 126.285156 76.332031 126.664062 76.332031 126.664062 C 76.644531 126.820312 77.085938 126.347656 77.085938 126.347656 L 76.582031 125.875 C 76.175781 125.625 76.144531 125.972656 76.394531 126.128906 Z M 76.019531 127.804688 L 75.953125 128.222656 L 76.207031 128.222656 L 76.425781 128.433594 L 76.582031 128.207031 L 76.457031 127.703125 Z M 100.792969 129.164062 C 100.792969 129.226562 100.941406 129.394531 101.023438 129.4375 C 101.109375 129.476562 101.191406 129.667969 101.234375 129.730469 C 101.277344 129.792969 101.359375 129.710938 101.527344 129.710938 C 101.695312 129.710938 101.734375 129.855469 101.925781 129.878906 C 102.113281 129.898438 102.238281 129.710938 102.238281 129.710938 L 102.324219 129.269531 C 102.324219 129.269531 102.175781 128.996094 102.132812 128.742188 C 102.09375 128.492188 101.882812 128.324219 101.882812 128.324219 C 101.882812 128.324219 101.882812 128.554688 101.820312 128.554688 C 101.757812 128.554688 101.609375 128.46875 101.441406 128.449219 C 101.273438 128.429688 101.191406 128.511719 101.046875 128.597656 C 100.898438 128.679688 100.710938 128.617188 100.710938 128.617188 C 100.710938 128.617188 100.792969 129.101562 100.792969 129.164062 Z M 113.527344 124.394531 C 113.546875 124.332031 114.09375 123.660156 114.09375 123.660156 L 114.363281 123.367188 C 114.363281 123.367188 114.363281 122.757812 114.40625 122.589844 C 114.449219 122.421875 114.574219 122.210938 114.574219 122.210938 L 114.53125 121.855469 C 114.53125 121.855469 114.492188 122.128906 114.34375 122.085938 C 114.199219 122.042969 114.300781 121.855469 114.113281 121.957031 C 113.925781 122.0625 113.695312 122.316406 113.570312 122.484375 C 113.445312 122.652344 113.359375 122.820312 113.316406 123.113281 C 113.277344 123.410156 113.148438 123.746094 113.277344 123.996094 C 113.402344 124.25 113.402344 124.480469 113.359375 124.542969 C 113.316406 124.605469 113.527344 124.394531 113.527344 124.394531 Z M 119.058594 120.195312 C 119.058594 120.195312 119.078125 120.804688 119.203125 120.886719 C 119.328125 120.972656 119.453125 121.078125 119.476562 121.222656 C 119.496094 121.371094 119.328125 121.726562 119.328125 121.726562 C 119.328125 121.726562 119.769531 121.476562 119.875 120.761719 C 119.875 120.761719 120.125 120.910156 120.1875 120.910156 C 120.25 120.910156 120.480469 120.613281 120.542969 120.59375 C 120.605469 120.574219 120.941406 120.53125 120.984375 120.445312 C 121.027344 120.363281 121.152344 120.230469 121.152344 120.230469 L 120.710938 119.757812 C 120.710938 119.757812 119.957031 119.757812 119.875 119.757812 C 119.789062 119.757812 119.683594 120 119.683594 120 L 119.558594 120.171875 L 119.265625 120.140625 Z M 119.371094 118.996094 L 119.851562 119.019531 L 119.957031 119.480469 C 119.957031 119.480469 120.269531 119.398438 120.3125 119.332031 C 120.355469 119.269531 120.585938 119.230469 120.691406 119.164062 C 120.792969 119.101562 120.921875 118.933594 120.691406 118.789062 C 120.460938 118.640625 120.460938 118.535156 120.269531 118.472656 C 120.082031 118.410156 120.125 118.347656 119.957031 118.554688 C 119.789062 118.765625 119.707031 118.828125 119.515625 118.871094 C 119.328125 118.914062 119.371094 118.996094 119.371094 118.996094 Z M 115.726562 115.40625 C 115.726562 115.40625 115.957031 115.511719 116.125 115.59375 C 116.292969 115.679688 116.398438 115.59375 116.398438 115.59375 C 116.398438 115.59375 116.25 115.511719 116.1875 115.363281 C 116.125 115.21875 116.207031 115.175781 116.269531 115.113281 C 116.335938 115.050781 116.5 114.839844 116.375 114.714844 C 116.25 114.585938 115.9375 114.460938 115.9375 114.460938 L 115.726562 114.628906 L 115.832031 114.839844 L 115.707031 114.882812 Z M 102.910156 130.570312 L 103.253906 130.917969 C 103.253906 130.917969 103.410156 130.855469 103.507812 130.789062 C 103.601562 130.726562 103.820312 130.824219 103.820312 130.824219 L 103.664062 130.445312 C 103.664062 130.445312 103.507812 130.285156 103.378906 130.285156 C 103.253906 130.285156 103.097656 130.191406 103.003906 130.160156 C 102.910156 130.128906 102.65625 130.128906 102.753906 130.222656 C 102.847656 130.316406 102.691406 130.507812 102.691406 130.507812 Z M 102.25 130.632812 C 102.4375 130.507812 102.65625 129.5 102.65625 129.5 L 102.40625 129.6875 C 102.40625 129.6875 102.09375 130.097656 102.0625 130.222656 C 102.03125 130.351562 102.09375 130.601562 102.09375 130.601562 C 102.09375 130.601562 102.0625 130.757812 102.25 130.632812 Z M 103.789062 130.128906 C 103.726562 130.222656 104.007812 130.539062 104.007812 130.539062 L 104.101562 131.011719 C 104.101562 131.011719 104.199219 130.789062 104.199219 130.664062 C 104.199219 130.539062 104.292969 130.351562 104.292969 130.351562 L 104.007812 130.128906 C 104.007812 130.128906 103.851562 130.035156 103.789062 130.128906 Z M 108.1875 129.308594 C 108.1875 129.308594 107.96875 129.878906 108.3125 129.910156 C 108.65625 129.941406 108.65625 129.941406 108.65625 129.941406 C 108.65625 129.941406 108.785156 129.214844 108.1875 129.308594 Z M 101.527344 126.601562 L 101.683594 126.980469 C 101.683594 126.980469 102.1875 126.664062 102.3125 126.507812 C 102.4375 126.347656 102.21875 126.097656 102.1875 125.90625 C 102.15625 125.71875 101.683594 126.035156 101.683594 126.035156 M 100.648438 124.050781 L 101.339844 124.363281 L 101.714844 123.671875 L 101.65625 122.59375 C 101.65625 122.59375 101.085938 122.820312 100.898438 122.914062 C 100.710938 123.007812 100.492188 123.386719 100.492188 123.386719 L 100.363281 123.703125 Z M 110.480469 84.511719 L 110.292969 84.542969 L 110.195312 84.921875 L 109.914062 85.046875 C 109.914062 85.046875 110.039062 84.449219 109.976562 84.320312 C 109.914062 84.195312 109.976562 83.847656 109.976562 83.847656 L 109.695312 83.882812 L 109.476562 84.605469 L 109.347656 85.140625 L 109.066406 85.613281 L 108.722656 85.898438 L 108.03125 86.085938 L 107.589844 86.402344 L 107.621094 86.90625 L 108.1875 86.652344 L 108.40625 86.464844 L 108.46875 86.8125 C 108.46875 86.8125 108.816406 86.371094 109.003906 86.246094 C 109.191406 86.117188 109.414062 85.707031 109.414062 85.867188 C 109.414062 86.023438 109.632812 86.277344 109.632812 86.277344 L 109.789062 85.898438 L 109.976562 85.675781 L 110.167969 85.960938 C 110.167969 85.960938 110.324219 85.773438 110.386719 85.613281 C 110.449219 85.457031 110.542969 85.488281 110.667969 85.394531 C 110.792969 85.296875 110.921875 85.203125 110.953125 85.015625 C 110.984375 84.824219 111.015625 84.480469 111.015625 84.480469 L 110.605469 84.164062 Z M 108.59375 85.296875 L 109.066406 84.953125 L 109.097656 84.257812 L 108.753906 83.753906 L 108.816406 84.101562 L 108.628906 84.226562 L 108.40625 84.070312 L 108.03125 84.574219 L 107.871094 84.984375 L 107.9375 85.203125 L 108.3125 84.921875 Z M 106.835938 86.496094 C 106.617188 86.464844 106.492188 86.433594 106.460938 86.652344 C 106.429688 86.875 106.238281 86.84375 106.175781 87 C 106.113281 87.15625 105.863281 87.1875 105.640625 87.21875 C 105.421875 87.25 105.421875 87.535156 105.359375 87.914062 C 105.296875 88.292969 105.328125 88.324219 105.546875 88.164062 C 105.769531 88.007812 105.769531 87.722656 105.894531 87.628906 C 106.019531 87.535156 106.175781 87.472656 106.175781 87.472656 L 106.457031 87.503906 L 106.835938 87.3125 L 106.960938 87.0625 L 107.183594 87 L 107.339844 86.714844 C 107.339844 86.714844 107.054688 86.527344 106.835938 86.496094 Z M 109.632812 83 L 109.570312 83.503906 C 109.570312 83.503906 110.007812 83.597656 110.136719 83.28125 C 110.261719 82.96875 110.449219 82.367188 110.449219 82.367188 C 110.449219 82.367188 110.324219 82.023438 110.199219 82.148438 C 110.070312 82.273438 110.230469 82.398438 110.039062 82.460938 C 109.851562 82.527344 109.632812 83 109.632812 83 Z M 111.578125 83.296875 L 112.144531 83.132812 L 112.460938 82.65625 L 112.710938 82.75 L 113.054688 82.558594 L 113.214844 81.863281 L 112.898438 81.296875 C 112.898438 81.296875 112.773438 81.015625 112.710938 81.109375 C 112.648438 81.203125 112.523438 81.582031 112.523438 81.582031 L 112.128906 81.644531 L 111.703125 81.832031 L 111.703125 82.304688 L 111.6875 82.777344 Z M 113.402344 81.046875 L 113.875 81.171875 L 114.4375 80.824219 L 114.660156 80.257812 L 114.59375 79.878906 L 114.34375 80.257812 L 114.09375 80.070312 L 114.03125 80.414062 L 113.714844 80.476562 L 113.652344 80.855469 Z M 114.53125 79.5 C 114.53125 79.5 115.035156 80.101562 115.222656 79.910156 C 115.414062 79.722656 115.632812 79.3125 115.632812 79.3125 L 115.347656 79.058594 L 115.066406 79.121094 C 115.066406 79.121094 114.972656 78.839844 114.878906 78.808594 C 114.785156 78.777344 114.40625 78.808594 114.40625 78.808594 L 114.5 79.121094 Z M 119.589844 76.398438 L 119.746094 76.796875 C 119.746094 77.121094 120.0625 76.796875 120.0625 76.796875 L 120.375 76.777344 L 120.566406 76.628906 C 120.566406 76.628906 120.816406 76.503906 120.910156 76.378906 C 121.003906 76.253906 121.003906 76.253906 121.003906 76.253906 L 120.628906 75.910156 L 120.53125 76.160156 L 120.3125 76.226562 L 120.21875 75.816406 C 120.21875 75.816406 120.125 76.21875 119.9375 76.21875 C 119.746094 76.21875 119.589844 76.398438 119.589844 76.398438 Z M 120.816406 77.136719 C 120.816406 77.136719 121.003906 77.453125 120.972656 77.609375 C 120.941406 77.769531 121.035156 77.894531 121.191406 77.800781 C 121.351562 77.707031 121.632812 77.390625 121.695312 77.234375 C 121.757812 77.074219 121.601562 76.632812 121.601562 76.632812 C 121.601562 76.632812 121.320312 76.699219 121.222656 76.761719 C 121.128906 76.824219 120.816406 77.136719 120.816406 77.136719 Z M 121.976562 75.972656 L 122.230469 76.761719 L 122.480469 76.699219 C 122.480469 76.699219 122.667969 75.910156 121.976562 75.972656 Z M 120.4375 78.019531 C 120.847656 78.210938 120.722656 77.707031 120.722656 77.707031 L 120.1875 77.453125 C 119.96875 77.484375 120.03125 77.832031 120.4375 78.019531 Z M 99.914062 158.484375 L 99.621094 158.734375 L 98.992188 158.945312 L 98.824219 159.449219 L 98.992188 159.996094 L 99.078125 160.625 L 99.328125 160.710938 L 99.371094 161.046875 L 99.871094 161.296875 C 99.871094 161.296875 99.996094 160.960938 100.125 160.710938 C 100.25 160.457031 100.5 159.40625 100.375 159.070312 C 100.25 158.734375 100.164062 158.148438 100.164062 158.148438 Z M 98.28125 162.398438 C 98.28125 162.398438 98.195312 162.941406 98.53125 163.066406 C 98.867188 163.191406 98.65625 163.230469 98.699219 163.691406 C 98.742188 164.15625 98.742188 164.40625 98.699219 164.617188 C 98.65625 164.828125 98.574219 165.164062 98.574219 165.375 C 98.574219 165.582031 98.867188 166.046875 99.203125 166.339844 C 99.539062 166.632812 99.789062 165.960938 99.957031 165.710938 C 100.125 165.457031 100.457031 165.667969 100.457031 165.667969 C 100.457031 165.667969 100.625 164.496094 100.625 164.246094 C 100.625 163.992188 100.5 162.652344 100.375 162.316406 C 100.25 161.980469 99.871094 161.78125 99.703125 161.78125 C 99.535156 161.78125 99.074219 162.226562 98.910156 162.394531 C 98.742188 162.5625 98.449219 162.398438 98.449219 162.398438 Z M 104.898438 167.808594 C 104.898438 167.808594 104.648438 168.648438 105.191406 168.859375 C 105.738281 169.070312 106.113281 169.152344 106.324219 169.363281 C 106.53125 169.574219 106.699219 169.785156 107.078125 169.824219 C 107.453125 169.867188 107.621094 170.160156 107.914062 170.328125 C 108.207031 170.496094 108.835938 170.539062 108.835938 170.539062 C 108.835938 170.539062 109.171875 170.035156 109.003906 169.65625 C 108.835938 169.28125 108.835938 169.113281 108.960938 168.859375 C 109.089844 168.609375 109.339844 168.0625 109.339844 168.0625 L 109.464844 167.597656 C 109.464844 167.597656 109.085938 167.769531 108.835938 167.726562 C 108.585938 167.683594 108.292969 167.726562 108.082031 167.808594 C 107.875 167.894531 107.203125 168.144531 106.992188 168.144531 C 106.785156 168.144531 106.742188 168.0625 106.617188 167.976562 C 106.492188 167.894531 106.199219 167.765625 106.070312 167.726562 C 105.945312 167.683594 105.695312 167.976562 105.527344 167.9375 C 105.359375 167.894531 104.898438 167.808594 104.898438 167.808594 Z M 89.695312 165.035156 L 90.113281 165.164062 L 90.574219 165.539062 C 90.574219 165.539062 91.117188 165.121094 91.078125 164.953125 C 91.035156 164.785156 90.785156 164.785156 90.824219 164.53125 C 90.867188 164.28125 90.867188 164.28125 90.867188 164.28125 L 89.945312 164.53125 C 89.945312 164.53125 89.609375 164.953125 89.695312 165.035156 Z M 120.429688 168.070312 L 119.679688 167.816406 L 119.390625 167.558594 L 118.722656 167.929688 L 118.363281 167.929688 L 118.136719 168.300781 L 119.347656 168.957031 Z M 121.945312 172.722656 C 121.945312 172.722656 121.445312 173.226562 121.695312 173.355469 C 121.945312 173.480469 122.492188 173.355469 122.742188 173.394531 C 122.996094 173.4375 123.539062 173.5625 123.582031 173.773438 C 123.621094 173.984375 123.75 173.984375 124.25 173.902344 C 124.753906 173.816406 125.550781 173.730469 125.550781 173.730469 C 125.550781 173.730469 126.179688 173.269531 125.882812 173.4375 C 125.589844 173.605469 125.296875 173.4375 125.171875 173.355469 C 125.046875 173.269531 125.089844 173.3125 124.710938 173.355469 C 124.335938 173.394531 124.082031 173.269531 123.914062 173.1875 C 123.75 173.101562 123.789062 173.1875 123.414062 173.1875 C 123.035156 173.1875 122.785156 173.226562 122.785156 172.976562 C 122.785156 172.722656 122.535156 172.765625 122.535156 172.765625 L 122.28125 172.976562 Z M 173.65625 75.808594 C 173.65625 75.808594 171.867188 74.390625 171.679688 73.824219 C 171.488281 73.257812 171.113281 72.40625 170.925781 72.125 C 170.734375 71.839844 171.019531 70.894531 170.734375 70.328125 C 170.453125 69.761719 170.546875 68.722656 170.453125 68.058594 C 170.359375 67.398438 170.546875 67.398438 170.832031 66.832031 C 171.113281 66.265625 171.585938 65.980469 171.679688 65.414062 C 171.773438 64.847656 172.054688 63.996094 172.054688 63.996094 L 171.019531 63.332031 L 170.265625 62.957031 L 169.417969 62.859375 L 168.664062 63.332031 L 167.4375 63.617188 C 167.4375 63.617188 166.683594 63.996094 166.777344 64.277344 C 166.871094 64.5625 166.683594 65.320312 166.683594 65.320312 L 165.835938 65.792969 L 166.117188 66.453125 L 166.589844 67.019531 L 165.742188 69.570312 L 165.175781 69.476562 C 165.175781 69.476562 164.421875 69.289062 164.421875 70.421875 C 164.421875 71.554688 165.082031 72.597656 165.363281 72.40625 C 165.648438 72.21875 166.214844 71.746094 166.214844 71.746094 L 166.683594 72.5 L 167.4375 72.3125 C 167.4375 72.3125 167.25 73.257812 167.625 73.351562 C 168.003906 73.445312 168.570312 74.203125 168.570312 74.203125 L 168.097656 74.390625 C 168.097656 74.390625 167.53125 75.242188 168.003906 75.429688 C 168.476562 75.621094 169.324219 75.808594 169.324219 75.808594 L 169.886719 76.660156 C 169.886719 76.660156 170.734375 76.09375 171.019531 76.1875 C 171.300781 76.28125 172.054688 76.375 172.054688 76.375 C 172.054688 76.375 172.433594 75.714844 172.621094 76.09375 C 172.808594 76.472656 173.09375 76.945312 173.09375 76.945312 C 173.09375 76.945312 173.5625 75.433594 173.65625 75.808594 Z M 168.773438 62.582031 C 168.773438 62.582031 169.613281 62.011719 170.367188 62.484375 C 171.121094 62.957031 171.871094 63.335938 171.871094 63.335938 L 172.527344 63.523438 L 172.90625 62.484375 L 172.808594 61.160156 L 173.46875 61.351562 L 173.1875 60.308594 L 173.847656 60.59375 L 174.035156 59.648438 L 173.46875 58.894531 L 174.128906 57.949219 L 174.507812 58.988281 L 175.542969 57.851562 L 174.976562 56.625 L 175.730469 56.90625 L 176.203125 55.773438 L 176.863281 55.585938 L 177.804688 55.113281 L 178.371094 54.355469 L 178.273438 53.503906 C 178.273438 53.503906 178.652344 53.601562 179.21875 53.316406 C 179.78125 53.03125 180.820312 51.710938 180.820312 51.710938 C 180.820312 51.710938 181.761719 51.140625 182.042969 50.765625 C 182.328125 50.386719 183.082031 49.347656 183.082031 49.347656 C 183.082031 49.347656 183.175781 50.386719 184.117188 49.535156 C 185.058594 48.6875 186.003906 47.835938 186.378906 47.929688 C 186.757812 48.023438 187.792969 47.644531 188.265625 47.269531 C 188.734375 46.890625 189.300781 46.039062 189.679688 46.226562 C 190.054688 46.417969 190.902344 44.433594 190.902344 44.433594 L 191.1875 43.675781 C 191.1875 43.675781 191.1875 42.449219 190.902344 42.070312 C 190.621094 41.691406 189.488281 41.410156 189.488281 41.410156 L 188.359375 41.21875 L 187.605469 41.691406 L 186.378906 42.824219 C 186.378906 42.824219 186.378906 43.960938 186.097656 44.054688 C 185.816406 44.148438 185.34375 44.8125 184.871094 44.90625 C 184.402344 45 184.402344 45.378906 183.835938 45.472656 C 183.269531 45.566406 183.082031 45.660156 182.703125 45.753906 C 182.328125 45.851562 181.667969 46.226562 181.386719 46.226562 C 181.101562 46.226562 180.632812 45.851562 180.632812 45.851562 L 179.03125 45.753906 L 178.933594 46.890625 L 178.277344 47.457031 L 178.371094 46.792969 C 178.371094 46.792969 177.617188 47.078125 177.238281 47.550781 C 176.863281 48.023438 176.390625 48.210938 176.109375 48.308594 C 175.824219 48.402344 174.882812 49.0625 174.976562 49.441406 C 175.070312 49.820312 174.414062 50.101562 174.414062 50.101562 L 173.941406 51.332031 L 173.5625 51.898438 C 173.5625 51.898438 172.714844 51.804688 172.433594 52.183594 C 172.152344 52.558594 172.027344 52.9375 171.558594 53.03125 C 171.085938 53.125 170.773438 52.75 170.773438 52.75 L 170.773438 53.699219 C 170.773438 53.699219 171.449219 53.789062 171.070312 54.542969 C 170.695312 55.300781 171.328125 55.300781 171.328125 55.300781 L 172.070312 55.773438 C 172.070312 55.773438 170.835938 55.679688 170.835938 56.054688 C 170.835938 56.433594 171.304688 57.191406 171.304688 57.191406 L 170.078125 57.285156 L 170.550781 58.039062 L 169.890625 58.136719 L 171.113281 59.175781 L 169.890625 58.609375 L 169.136719 59.269531 C 169.136719 59.269531 168.945312 59.648438 168.382812 60.121094 C 167.816406 60.59375 167.25 60.6875 167.816406 61.066406 C 168.382812 61.445312 168.851562 61.253906 169.324219 61.253906 C 169.792969 61.253906 168.222656 61.734375 168.773438 62.582031 Z M 113.160156 16.636719 L 114.625 17.402344 L 114.625 18.222656 L 113.6875 18.820312 L 114.035156 19.859375 L 115.339844 20.238281 L 117.308594 19.859375 L 119.378906 19.578125 L 119 20.617188 L 117.207031 20.425781 L 117.867188 21.371094 L 117.019531 21.464844 C 117.019531 21.464844 116.738281 20.804688 116.359375 20.992188 C 115.980469 21.183594 115.886719 21.65625 116.453125 22.128906 C 117.019531 22.601562 117.585938 22.84375 117.585938 22.84375 L 118.902344 23.089844 L 120.628906 23.089844 C 120.628906 23.089844 120.316406 24.074219 120.695312 24.546875 C 121.070312 25.015625 122.109375 24.707031 122.390625 24.613281 C 122.671875 24.519531 122.863281 23.558594 123.238281 23.464844 C 123.617188 23.371094 124.179688 23.363281 124.179688 23.363281 L 125.21875 22.320312 C 125.21875 22.320312 124.933594 21.277344 125.5 20.996094 C 126.066406 20.710938 126.726562 19.484375 126.726562 19.484375 L 127.292969 18.820312 C 127.292969 18.820312 127.195312 17.6875 127.292969 17.117188 L 126.632812 16.269531 L 124.753906 15.605469 L 123.0625 15.324219 L 123.0625 14.570312 L 122.585938 14.285156 L 121.78125 16.269531 C 121.78125 16.269531 120.859375 16.929688 120.957031 16.550781 C 121.050781 16.175781 120.589844 15.796875 121.058594 15.511719 C 121.53125 15.230469 121.441406 13.8125 121.441406 13.8125 L 120.691406 13.148438 C 120.691406 13.148438 119.84375 13.527344 119.84375 14.09375 C 119.84375 14.660156 120.035156 15.796875 120.035156 15.796875 L 119.75 17.121094 L 119.28125 16.078125 L 119.09375 15.324219 L 118.148438 15.796875 L 117.492188 15.703125 L 117.585938 15.039062 C 117.585938 15.039062 116.640625 13.433594 115.792969 13.148438 L 115.511719 13.71875 L 116.265625 14.566406 L 115.699219 15.796875 C 115.699219 15.796875 114.851562 14.1875 114.851562 14.472656 C 114.851562 14.757812 114.664062 15.796875 114.664062 15.796875 L 113.46875 15.984375 Z M 104.578125 19.199219 C 104.578125 19.199219 103.257812 19.859375 102.882812 20.046875 C 102.503906 20.238281 102.222656 21.84375 102.222656 21.84375 C 102.222656 21.84375 102.222656 22.882812 102.316406 23.828125 C 102.410156 24.773438 102.976562 25.058594 102.976562 25.058594 L 103.355469 24.019531 L 104.109375 24.398438 L 103.917969 26.097656 L 104.484375 26.191406 L 104.671875 27.042969 L 103.164062 26.382812 L 103.824219 27.703125 C 103.824219 27.703125 103.636719 28.367188 104.015625 28.839844 C 104.390625 29.3125 105.710938 29.59375 105.710938 29.59375 L 105.898438 30.066406 C 105.898438 30.066406 104.863281 30.351562 104.957031 30.632812 C 105.050781 30.917969 105.617188 31.484375 105.617188 31.484375 L 105.898438 32.050781 L 107.3125 31.863281 C 107.3125 31.863281 108.066406 30.824219 107.972656 30.351562 C 107.878906 29.878906 108.066406 29.121094 108.066406 29.121094 L 108.917969 28.460938 C 108.917969 28.460938 109.484375 27.421875 109.484375 28.175781 C 109.484375 28.933594 109.394531 29.785156 109.394531 29.785156 L 109.878906 30.539062 L 110.464844 29.5 L 111.378906 28.433594 L 111.378906 29.214844 L 111.136719 30.351562 L 112.023438 30.730469 L 111.363281 30.917969 C 111.363281 30.917969 110.328125 31.199219 109.855469 31.296875 C 109.386719 31.390625 109.574219 32.050781 109.574219 32.050781 L 108.914062 32.429688 C 108.914062 32.429688 108.632812 33.1875 108.347656 33.46875 C 108.066406 33.753906 107.21875 33.566406 106.839844 33.375 C 106.464844 33.1875 106.746094 34.035156 106.746094 34.605469 C 106.746094 35.171875 106.839844 35.738281 106.839844 35.738281 C 106.839844 35.738281 107.6875 35.546875 108.253906 35.546875 C 108.820312 35.546875 109.195312 35.171875 109.480469 34.980469 C 109.761719 34.792969 110.046875 34.980469 110.609375 35.078125 C 111.175781 35.171875 111.363281 34.605469 111.363281 34.605469 L 111.457031 35.453125 C 111.457031 35.453125 110.800781 35.832031 110.515625 35.738281 C 110.234375 35.644531 108.539062 36.398438 108.539062 36.398438 C 108.539062 36.398438 108.539062 36.777344 109.101562 36.871094 C 109.667969 36.964844 110.046875 37.4375 110.046875 37.4375 C 110.046875 37.4375 108.253906 37.4375 107.972656 37.25 C 107.6875 37.0625 107.3125 37.15625 107.3125 37.15625 C 107.3125 37.15625 107.40625 39.046875 107.6875 39.707031 C 107.972656 40.367188 108.820312 40.179688 108.820312 40.179688 L 109.007812 40.9375 C 109.007812 40.9375 109.855469 40.839844 110.421875 40.839844 C 110.988281 40.839844 110.703125 41.503906 110.703125 41.503906 L 109.667969 41.597656 C 109.667969 41.597656 110.234375 42.257812 110.609375 42.730469 C 110.988281 43.203125 111.082031 43.769531 111.082031 43.769531 L 111.648438 43.675781 C 111.648438 43.675781 111.742188 42.351562 112.023438 41.878906 C 112.308594 41.40625 112.117188 41.125 112.210938 40.558594 C 112.308594 39.992188 112.496094 38.101562 112.496094 38.101562 L 113.4375 37.535156 C 113.4375 37.535156 113.71875 35.078125 113.71875 34.605469 C 113.71875 34.132812 114.378906 33.5625 114.472656 33.28125 C 114.566406 32.996094 114.757812 31.863281 114.757812 31.296875 C 114.757812 30.730469 115.132812 30.257812 115.699219 29.6875 C 116.265625 29.121094 115.699219 29.6875 116.265625 29.5 C 116.832031 29.3125 117.019531 28.839844 117.488281 28.648438 C 117.960938 28.460938 118.242188 28.554688 118.242188 28.554688 L 118.621094 27.515625 C 118.621094 27.515625 117.867188 27.136719 117.019531 26.855469 C 116.171875 26.570312 116.171875 25.8125 115.792969 25.246094 C 115.417969 24.679688 114.472656 24.585938 114.472656 24.585938 C 114.472656 24.585938 114.476562 24.113281 114.570312 23.453125 C 114.664062 22.789062 114.191406 22.128906 114.191406 21.84375 C 114.191406 21.5625 113.628906 21.371094 113.628906 21.371094 L 113.535156 22.410156 L 112.878906 23.074219 C 112.878906 23.074219 112.886719 21.65625 112.980469 20.898438 C 113.074219 20.144531 111.957031 18.347656 111.957031 18.347656 L 110.664062 17.214844 L 110.082031 18.792969 L 110.082031 19.859375 C 110.082031 19.859375 109.921875 21.183594 110.015625 22.601562 C 110.109375 24.019531 110.988281 26.476562 110.988281 26.476562 L 109.574219 24.773438 C 109.574219 24.773438 109.574219 24.300781 109.386719 23.734375 C 109.195312 23.167969 108.820312 20.617188 108.820312 20.332031 C 108.820312 20.050781 107.878906 19.578125 107.878906 19.578125 C 107.878906 19.578125 107.3125 20.898438 107.125 21.5625 C 106.933594 22.222656 107.59375 24.492188 107.59375 24.492188 C 107.59375 24.492188 106.933594 23.546875 106.746094 23.167969 C 106.558594 22.789062 106.371094 22.882812 106.085938 22.601562 C 105.804688 22.316406 106.085938 21.65625 106.085938 21.65625 C 106.085938 21.65625 105.617188 21.75 105.332031 21.84375 C 105.050781 21.9375 104.675781 21.464844 104.675781 21.464844 C 104.675781 21.464844 105.335938 20.992188 105.714844 20.707031 C 106.089844 20.421875 106.28125 20.515625 106.753906 20.230469 C 107.222656 19.949219 106.570312 19.089844 106.570312 19.089844 L 105.546875 19.546875 C 104.539062 20.277344 104.578125 19.199219 104.578125 19.199219 Z M 116.359375 25.8125 L 116.832031 26.097656 L 117.585938 25.625 L 116.738281 24.964844 Z M 116.640625 30.351562 L 117.207031 30.730469 C 117.207031 30.730469 117.394531 32.242188 117.773438 32.335938 C 118.148438 32.429688 119.46875 31.863281 119.46875 31.863281 L 119.75 30.539062 L 120.222656 30.160156 L 119.5625 29.5 L 118.714844 29.40625 L 117.773438 29.59375 Z M 118.148438 34.152344 C 118.242188 34.433594 118.621094 34.628906 118.621094 34.628906 C 118.621094 34.628906 118.339844 35.691406 118.242188 36.355469 C 118.148438 37.015625 117.488281 37.539062 117.488281 37.539062 L 117.988281 37.738281 C 117.988281 37.738281 118.902344 37.738281 119.46875 37.738281 C 120.035156 37.738281 120.128906 36.972656 120.128906 36.972656 L 120.503906 37.34375 L 119.941406 38.667969 L 120.503906 39.046875 L 121.449219 38.289062 L 122.011719 37.628906 C 122.011719 37.628906 122.671875 36.589844 122.957031 36.210938 C 123.238281 35.832031 123.804688 36.023438 123.804688 36.023438 L 123.050781 34.792969 L 122.203125 35.171875 C 122.203125 35.171875 121.542969 34.324219 121.070312 33.664062 C 120.597656 33 121.257812 32.628906 121.257812 32.628906 L 120.597656 31.691406 L 120.125 32.53125 L 118.902344 32.53125 L 117.59375 33.175781 C 117.597656 33.175781 118.054688 33.867188 118.148438 34.152344 Z M 102.222656 28.175781 C 102.695312 28.839844 102.222656 28.175781 102.410156 29.027344 C 102.601562 29.878906 102.601562 30.257812 102.976562 30.632812 C 103.355469 31.011719 103.449219 31.390625 103.636719 31.863281 C 103.824219 32.335938 104.296875 32.050781 104.296875 32.050781 C 104.296875 32.050781 103.917969 31.011719 103.636719 30.730469 C 103.355469 30.445312 102.789062 29.027344 102.789062 29.027344 L 102.222656 27.328125 C 102.035156 27.042969 101.753906 27.515625 102.222656 28.175781 Z M 51.0625 102.664062 L 51.238281 103.269531 C 51.238281 103.269531 51.910156 103.382812 52.328125 103.300781 C 52.746094 103.214844 53.25 103.042969 53.542969 103.167969 C 53.835938 103.292969 54.214844 103.878906 54.464844 104.003906 C 54.71875 104.128906 55.011719 104.296875 55.304688 104.253906 C 55.597656 104.214844 56.101562 104.589844 56.394531 104.632812 C 56.6875 104.675781 56.980469 104.800781 57.273438 104.632812 C 57.566406 104.464844 58.070312 104.503906 58.363281 104.296875 C 58.65625 104.085938 59.074219 103.582031 59.199219 103.582031 C 59.324219 103.582031 59.535156 103.160156 59.535156 103.160156 L 60.183594 103.160156 C 60.183594 103.160156 61.125 102.988281 61.378906 102.566406 C 61.628906 102.148438 62.214844 101.648438 62.214844 101.648438 C 62.214844 101.648438 62.089844 100.953125 62.214844 101.082031 C 62.339844 101.207031 62.800781 101.660156 62.800781 101.660156 L 63.011719 101.738281 C 63.011719 101.738281 63.222656 101.398438 63.347656 101.359375 C 63.472656 101.316406 63.976562 100.515625 63.976562 100.515625 L 63.597656 100.472656 L 63.679688 100.097656 L 64.351562 99.84375 L 64.730469 99.421875 L 64.980469 99.085938 L 65.105469 98.375 L 64.769531 98.414062 L 64.644531 97.996094 C 64.644531 97.996094 64.878906 97.660156 64.753906 97.40625 C 64.628906 97.15625 64.316406 96.691406 64.316406 96.691406 L 64.316406 97.050781 L 63.667969 96.734375 L 63.667969 96.421875 L 63.167969 96.441406 C 63.167969 96.441406 63.214844 96.0625 63.257812 95.8125 C 63.296875 95.558594 63.28125 95.308594 63.28125 95.308594 C 63.28125 95.308594 62.914062 95.640625 62.875 95.515625 C 62.832031 95.390625 62.460938 95.097656 62.835938 94.71875 C 63.214844 94.339844 63.511719 94.089844 63.511719 94.089844 C 63.511719 94.089844 63.175781 93.792969 63.007812 93.960938 C 62.84375 94.128906 62.632812 94.339844 62.632812 94.339844 L 62.296875 94.464844 L 62.214844 94.84375 L 61.753906 94.425781 L 61.671875 94.003906 C 61.671875 94.003906 61.460938 94.003906 61.335938 93.792969 C 61.210938 93.582031 61.085938 93.484375 61.085938 93.484375 L 60.75 93.71875 L 60.5 93.71875 L 60.625 94.855469 C 60.625 94.855469 60.164062 95.121094 59.953125 95.082031 C 59.746094 95.039062 59.660156 94.816406 59.660156 94.816406 L 59.242188 94.726562 C 59.242188 94.726562 59.285156 95.394531 58.988281 95.4375 C 58.695312 95.476562 58.109375 94.847656 58.109375 94.847656 C 58.109375 94.847656 57.773438 95.054688 57.902344 95.347656 C 58.027344 95.644531 58.027344 96.609375 58.027344 96.609375 C 58.027344 96.609375 57.648438 96.148438 57.523438 95.8125 C 57.398438 95.476562 57.355469 95.054688 57.355469 95.054688 L 57.019531 94.84375 C 57.019531 94.84375 56.519531 95.097656 56.394531 95.136719 C 56.265625 95.179688 56.015625 95.433594 56.015625 95.433594 C 56.015625 95.433594 56.226562 96.441406 55.972656 96.398438 C 55.722656 96.355469 55.640625 95.9375 55.429688 95.683594 C 55.21875 95.433594 54.84375 94.84375 54.71875 94.929688 C 54.589844 95.011719 54.550781 95.683594 54.550781 95.851562 C 54.550781 96.019531 54.71875 96.902344 54.550781 97.15625 C 54.382812 97.40625 54.171875 96.734375 54.171875 96.734375 L 53.921875 96.988281 L 53.878906 97.53125 L 53.542969 97.699219 L 53.335938 98.207031 L 53.125 97.574219 L 53.167969 97.070312 L 52.917969 96.902344 L 52.664062 96.441406 L 53.085938 96.105469 L 52.957031 95.515625 L 52.164062 94.59375 L 51.703125 94.296875 L 51.28125 93.878906 L 50.613281 93.792969 L 50.488281 94.089844 C 50.488281 94.089844 51.242188 94.296875 51.199219 94.425781 C 51.15625 94.550781 50.949219 94.550781 50.949219 94.550781 C 50.949219 94.550781 50.988281 94.800781 51.199219 94.96875 C 51.410156 95.136719 51.492188 95.851562 51.492188 95.851562 C 51.492188 95.851562 51.199219 95.851562 51.199219 95.726562 C 51.199219 95.601562 51.117188 95.558594 50.78125 95.472656 C 50.445312 95.390625 50.277344 94.929688 50.277344 94.929688 C 50.277344 94.929688 49.941406 94.71875 49.816406 94.84375 C 49.691406 94.972656 49.441406 95.515625 49.441406 95.515625 C 49.441406 95.515625 49.488281 96.105469 49.613281 96.148438 C 49.738281 96.1875 50.035156 96.273438 50.035156 96.273438 L 50.035156 96.671875 C 50.035156 96.671875 49.921875 96.820312 49.796875 96.734375 C 49.671875 96.652344 48.988281 96.230469 48.988281 96.230469 C 48.988281 96.230469 49.464844 96.945312 49.339844 97.027344 C 49.214844 97.113281 48.511719 97.195312 48.511719 97.195312 L 49.476562 97.492188 C 49.476562 97.492188 50.277344 97.449219 50.484375 97.15625 C 50.695312 96.859375 51.074219 96.902344 51.074219 96.902344 L 51.660156 97.082031 L 51.742188 97.300781 L 52.203125 97.300781 C 52.203125 97.300781 52.332031 97.570312 52.039062 97.738281 C 51.742188 97.90625 51.367188 98.265625 51.367188 98.265625 L 51.742188 98.570312 L 52.371094 98.660156 L 52.496094 98.453125 L 52.164062 99.128906 C 52.164062 99.128906 51.449219 99.171875 51.15625 99.128906 C 50.863281 99.085938 50.363281 99.296875 50.195312 99.339844 C 50.027344 99.378906 49.0625 99.675781 49.0625 99.675781 L 49.0625 100.011719 C 49.0625 100.011719 49.457031 99.800781 50.042969 99.757812 C 50.628906 99.71875 50.894531 99.84375 51.101562 99.800781 C 51.3125 99.757812 51.464844 100.261719 51.589844 100.472656 C 51.71875 100.683594 51.898438 100.976562 51.898438 100.976562 L 52.367188 100.640625 L 52.035156 101.691406 L 52.496094 101.480469 L 52.414062 102.152344 L 51.617188 102.488281 L 51.453125 102.78125 Z M 51.0625 102.664062 " fill-opacity="1" fill-rule="nonzero"/></g></svg>