<?xml version="1.0" encoding="UTF-8"?><svg xmlns="http://www.w3.org/2000/svg" xmlns:xlink="http://www.w3.org/1999/xlink" contentScriptType="text/ecmascript" width="240" zoomAndPan="magnify" contentStyleType="text/css" viewBox="0 0 240 187.499995" height="187.499995" preserveAspectRatio="xMidYMid meet" version="1.0"><defs><clipPath id="clip-0"><path d="M 42.070312 15.570312 L 197.65625 15.570312 L 197.65625 171.15625 L 42.070312 171.15625 Z M 42.070312 15.570312 " clip-rule="nonzero"/></clipPath></defs><g clip-path="url(#clip-0)"><path fill="rgb(67.83905%, 82.749939%, 96.469116%)" d="M 125.09375 155.8125 C 125.09375 155.8125 127.800781 154.460938 129.027344 154.707031 C 130.257812 154.953125 131.609375 155.6875 132.46875 155.933594 C 133.328125 156.179688 135.175781 157.53125 135.175781 157.53125 C 135.175781 157.53125 134.3125 157.902344 133.820312 158.148438 C 133.332031 158.394531 132.222656 158.640625 132.347656 158.269531 C 132.46875 157.902344 133.207031 157.53125 132.101562 157.164062 C 130.996094 156.796875 131.117188 156.304688 130.378906 156.304688 C 129.644531 156.304688 129.273438 156.304688 128.660156 156.058594 C 128.046875 155.8125 128.414062 155.199219 127.675781 155.199219 C 126.9375 155.199219 125.09375 155.8125 125.09375 155.8125 Z M 137.386719 159.128906 L 135.417969 159.746094 C 135.417969 159.746094 136.035156 159.992188 136.769531 159.992188 C 137.507812 159.992188 138.125 160.113281 138.613281 159.992188 C 139.105469 159.867188 139.351562 159.867188 139.84375 159.746094 C 140.335938 159.621094 141.441406 159.375 141.441406 159.375 C 141.441406 159.375 140.949219 159.007812 140.335938 158.761719 C 139.722656 158.515625 138.617188 158.023438 138 158.148438 C 137.386719 158.269531 136.648438 158.148438 136.648438 158.148438 Z M 128.796875 148.710938 C 128.714844 148.136719 128.144531 146.824219 128.390625 145.925781 C 128.632812 145.023438 128.960938 144.285156 128.960938 144.285156 L 129.371094 144.367188 C 129.371094 144.367188 130.355469 143.46875 130.601562 143.304688 C 130.847656 143.140625 131.582031 142.8125 131.910156 142.402344 C 132.238281 141.992188 133.222656 141.417969 133.386719 141.089844 C 133.550781 140.761719 133.878906 140.027344 133.878906 139.699219 C 133.878906 139.371094 133.386719 138.960938 133.386719 138.46875 C 133.386719 137.976562 133.140625 136.667969 133.140625 136.257812 C 133.140625 135.847656 133.714844 135.847656 133.714844 135.847656 L 133.878906 137.078125 L 134.042969 137.648438 C 134.042969 137.648438 133.714844 138.46875 134.042969 138.632812 C 134.371094 138.796875 134.613281 137.242188 134.613281 137.242188 L 134.289062 135.519531 L 135.023438 136.257812 C 135.023438 136.257812 135.597656 134.617188 135.597656 134.375 C 135.597656 134.128906 136.089844 133.636719 136.582031 133.472656 C 137.074219 133.308594 138.21875 133.0625 138.792969 133.0625 C 139.367188 133.0625 139.53125 132.734375 139.53125 132.734375 C 139.53125 132.734375 138.957031 132.160156 138.875 131.503906 C 138.792969 130.851562 139.695312 130.03125 139.941406 130.03125 C 140.1875 130.03125 140.679688 129.375 140.84375 129.128906 C 141.007812 128.882812 141.5 129.128906 141.5 129.128906 L 142.796875 128.800781 L 142.796875 127.980469 L 144.441406 127.730469 L 145.101562 127.152344 L 145.265625 127.46875 L 146.085938 127.691406 L 145.757812 127.996094 L 144.9375 127.996094 L 143.789062 128.933594 L 143.871094 129.703125 L 144.363281 130.359375 L 145.511719 128.882812 L 146.414062 128.71875 L 148.542969 128.066406 L 148.460938 127.492188 L 147.886719 127.246094 C 147.886719 127.246094 146.984375 127.492188 146.578125 127.328125 C 146.167969 127.164062 145.839844 126.835938 145.429688 126.507812 C 145.019531 126.179688 144.691406 125.117188 144.691406 125.117188 L 144.855469 124.296875 L 144.363281 124.378906 L 143.460938 123.804688 L 144.28125 123.722656 C 144.28125 123.722656 145.101562 123.640625 145.429688 123.230469 C 145.757812 122.820312 145.921875 122.820312 145.183594 122.328125 C 144.445312 121.839844 143.136719 122.410156 142.5625 122.574219 C 141.988281 122.738281 140.757812 123.476562 139.941406 124.378906 C 139.121094 125.28125 138.710938 125.523438 138.710938 125.523438 C 138.710938 125.523438 140.023438 123.640625 140.347656 123.394531 C 140.675781 123.148438 141.167969 122.574219 141.496094 122.246094 C 141.824219 121.921875 142.5625 121.839844 142.5625 121.839844 C 142.5625 121.839844 142.890625 121.019531 143.21875 120.691406 C 143.542969 120.363281 148.050781 120.527344 148.050781 120.527344 L 149.527344 120.609375 C 149.527344 120.609375 150.917969 119.296875 151.164062 119.050781 C 151.410156 118.808594 152.394531 118.5625 152.800781 118.644531 C 153.210938 118.726562 153.292969 118.316406 153.867188 117.824219 C 154.441406 117.332031 153.785156 116.921875 153.785156 116.921875 L 153.949219 115.449219 L 152.964844 115.121094 L 152.390625 115.449219 L 152.636719 114.628906 L 152.144531 114.054688 C 152.144531 114.054688 151.492188 114.382812 150.589844 115.039062 C 149.6875 115.695312 149.277344 115.449219 149.277344 115.449219 C 149.277344 115.449219 149.03125 115.121094 148.625 114.875 C 148.214844 114.628906 149.359375 114.875 149.359375 114.875 C 149.359375 114.875 150.015625 114.628906 150.507812 114.382812 C 151 114.136719 151 113.890625 151.410156 113.890625 C 151.820312 113.890625 152.226562 113.5625 152.226562 113.5625 L 151.980469 113.15625 L 151.082031 112.910156 L 150.179688 112.746094 L 149.605469 112.007812 C 149.605469 112.007812 149.195312 111.761719 148.867188 111.515625 C 148.542969 111.269531 148.214844 110.613281 147.96875 110.125 C 147.722656 109.632812 147.722656 109.632812 148.050781 109.386719 C 148.378906 109.140625 148.214844 108.894531 147.96875 108.566406 C 147.722656 108.238281 147.558594 107.828125 147.3125 107.339844 C 147.066406 106.847656 147.066406 106.683594 146.902344 106.355469 C 146.738281 106.027344 146.492188 105.289062 145.917969 104.550781 C 145.347656 103.816406 145.101562 103.078125 145.101562 103.078125 L 144.609375 103.160156 C 144.609375 103.160156 144.28125 103.734375 144.117188 103.980469 C 143.953125 104.222656 144.28125 104.632812 144.28125 104.632812 L 143.625 105.699219 L 143.214844 105.945312 L 143.050781 106.519531 L 142.070312 106.847656 L 141.824219 106.4375 L 141.496094 106.519531 L 141.003906 105.699219 L 140.183594 106.109375 L 139.609375 105.945312 L 140.019531 105.699219 L 140.511719 105.371094 C 140.511719 105.371094 140.183594 104.960938 140.101562 104.46875 C 140.019531 103.980469 140.101562 103.816406 139.445312 103.652344 C 138.792969 103.488281 138.300781 103.324219 138.792969 103.324219 C 139.28125 103.324219 140.265625 103.242188 140.265625 103.242188 C 140.265625 103.242188 140.265625 103.242188 140.183594 102.667969 C 140.101562 102.09375 140.265625 101.601562 140.265625 101.601562 L 139.855469 101.765625 L 138.875 101.4375 L 138.054688 101.027344 L 137.972656 100.375 L 137.480469 99.882812 L 137.234375 99.308594 L 136.742188 99.144531 C 136.742188 99.144531 136.007812 98.488281 135.597656 98.652344 C 135.1875 98.816406 134.859375 98.980469 134.613281 98.980469 C 134.367188 98.980469 133.550781 98.570312 133.550781 98.570312 L 132.15625 98.40625 L 131.582031 98.980469 L 131.828125 99.636719 L 132.078125 100.375 L 131.675781 101.847656 L 132.175781 102.09375 L 132.113281 102.421875 L 132.460938 103.570312 L 132.460938 104.386719 L 131.832031 104.46875 L 131.832031 104.796875 L 131.175781 105.125 L 131.007812 105.78125 L 132.238281 106.929688 L 132.976562 109.960938 L 133.386719 110.042969 L 133.546875 110.699219 L 133.058594 110.941406 C 133.058594 110.941406 132.566406 111.761719 132.074219 112.253906 C 131.582031 112.746094 130.269531 113.566406 130.269531 113.566406 C 130.269531 113.566406 130.515625 113.976562 130.761719 114.382812 C 131.007812 114.792969 131.089844 115.695312 131.007812 116.433594 C 130.925781 117.167969 131.335938 117.496094 131.335938 117.496094 L 130.761719 118.070312 L 131.089844 118.5625 L 130.925781 118.972656 L 130.269531 118.644531 L 129.945312 119.21875 L 129.289062 118.890625 L 128.796875 118.152344 L 127.976562 117.003906 C 127.976562 117.003906 127.976562 117.003906 127.730469 116.679688 C 127.484375 116.351562 127.320312 116.105469 127.402344 115.777344 C 127.484375 115.449219 127.402344 114.792969 127.402344 114.464844 C 127.402344 114.136719 127.484375 112.664062 127.484375 112.664062 C 127.484375 112.664062 126.75 112.5 126.503906 112.335938 C 126.257812 112.171875 125.191406 112.5 124.535156 112.417969 C 123.882812 112.335938 124.207031 112.089844 123.882812 111.84375 C 123.554688 111.597656 122.734375 111.351562 122.242188 111.1875 C 121.75 111.023438 121.75 110.453125 121.421875 110.207031 C 121.09375 109.960938 120.113281 109.714844 119.703125 109.46875 C 119.292969 109.222656 118.71875 108.8125 118.71875 108.8125 L 117.574219 109.140625 L 117.164062 108.976562 C 117.164062 108.976562 117.246094 108.15625 117.082031 107.421875 C 116.917969 106.683594 116.507812 106.191406 116.507812 106.191406 C 116.507812 106.191406 115.933594 106.109375 115.523438 106.027344 C 115.113281 105.945312 114.789062 105.375 114.789062 105.375 C 114.789062 105.375 115.195312 102.269531 115.523438 101.777344 C 115.851562 101.285156 115.441406 100.722656 115.441406 100.722656 C 115.851562 100.804688 116.34375 99.921875 116.34375 99.921875 L 117 98.898438 L 117.328125 97.933594 L 117.816406 97.933594 C 117.816406 97.933594 118.390625 97.84375 118.964844 97.433594 C 119.539062 97.023438 118.882812 96.359375 118.882812 96.359375 L 118.0625 95.703125 C 118.0625 95.703125 117.246094 95.867188 116.835938 95.621094 C 116.425781 95.375 116.261719 94.964844 116.261719 94.964844 L 118.390625 95.539062 L 119.457031 95.949219 L 119.703125 95.457031 L 120.277344 94.800781 C 120.277344 94.800781 120.277344 94.800781 120.851562 95.046875 C 121.421875 95.292969 121.261719 94.800781 121.503906 94.636719 C 121.75 94.476562 121.914062 93.984375 122.160156 93.820312 C 122.40625 93.65625 122.488281 92.835938 122.734375 92.507812 C 122.980469 92.179688 122.242188 92.34375 121.914062 92.34375 C 121.585938 92.34375 120.851562 91.851562 120.605469 91.6875 C 120.359375 91.523438 119.949219 91.28125 119.703125 90.953125 C 119.457031 90.625 120.277344 90.707031 120.277344 90.707031 L 121.832031 91.6875 L 122.324219 91.769531 L 122.652344 91.441406 C 122.652344 91.441406 123.0625 91.035156 123.472656 90.789062 C 123.882812 90.542969 123.71875 89.804688 123.71875 89.804688 C 123.71875 89.804688 123.390625 89.804688 123.0625 89.558594 C 122.734375 89.3125 123.144531 88.902344 123.554688 89.066406 C 123.964844 89.230469 124.453125 88.820312 124.453125 88.820312 L 124.699219 89.394531 L 125.191406 89.804688 L 125.519531 89.394531 L 126.011719 89.640625 L 125.929688 88.65625 L 126.421875 89.476562 L 126.832031 89.148438 L 127.8125 87.839844 L 128.304688 87.347656 L 128.46875 86.691406 C 128.46875 86.691406 127.894531 86.035156 127.730469 85.378906 C 127.566406 84.726562 127.484375 84.234375 127.402344 83.90625 C 127.320312 83.578125 128.058594 83.988281 128.058594 83.988281 L 128.140625 82.757812 C 128.140625 82.757812 128.304688 82.347656 127.730469 81.9375 C 127.160156 81.53125 127.078125 80.957031 127.078125 80.957031 C 127.078125 80.957031 126.257812 80.957031 125.519531 80.464844 C 124.78125 79.972656 124.289062 80.300781 124.289062 80.300781 L 124.371094 80.792969 L 124.535156 81.9375 L 124.863281 82.921875 L 124.371094 83.496094 C 124.371094 83.496094 124.125 84.480469 123.882812 84.808594 C 123.636719 85.136719 123.226562 86.199219 123.144531 86.773438 C 123.0625 87.347656 122.40625 87.265625 122.40625 87.265625 C 122.40625 87.265625 121.914062 86.363281 121.667969 86.035156 C 121.421875 85.707031 121.503906 84.890625 121.503906 84.5625 C 121.503906 84.234375 121.996094 84.234375 121.996094 84.234375 L 121.421875 83.085938 L 120.605469 81.941406 L 120.195312 82.511719 C 120.195312 82.511719 119.949219 83.167969 119.949219 83.496094 C 119.949219 83.824219 119.375 84.234375 119.375 84.234375 C 119.375 84.234375 119.210938 83.003906 119.128906 82.675781 C 119.046875 82.347656 118.71875 81.859375 118.71875 81.859375 L 118.800781 81.367188 L 118.472656 81.039062 L 117.820312 81.117188 C 117.820312 81.117188 117.492188 80.875 117.082031 80.710938 C 116.671875 80.546875 117.738281 79.890625 117.738281 79.890625 L 117.328125 79.480469 L 117.492188 79.152344 L 118.3125 79.398438 L 117.820312 78.90625 L 117.574219 78.003906 C 117.574219 78.003906 116.835938 77.761719 116.917969 77.269531 C 117 76.777344 116.671875 76.039062 116.34375 75.464844 C 116.019531 74.894531 116.019531 74.566406 116.019531 74.566406 L 115.445312 74.402344 L 115.035156 73.746094 L 115.609375 73.664062 C 115.609375 73.664062 115.769531 72.925781 115.933594 72.679688 C 116.097656 72.4375 116.179688 71.945312 116.015625 71.699219 C 115.851562 71.453125 115.605469 70.960938 115.605469 70.960938 L 117.566406 71.128906 L 118.789062 68.757812 L 119.511719 67.210938 C 119.511719 67.210938 118.722656 67.027344 118.230469 66.699219 C 117.738281 66.371094 116.835938 66.535156 116.101562 66.453125 C 115.363281 66.375 115.117188 66.703125 114.542969 66.949219 C 113.96875 67.191406 113.96875 68.179688 114.050781 68.996094 C 114.132812 69.816406 114.132812 70.472656 114.296875 71.128906 C 114.460938 71.785156 114.707031 73.265625 114.707031 73.265625 C 114.707031 73.265625 114.542969 73.933594 114.296875 74.507812 C 114.050781 75.078125 114.378906 75.695312 114.378906 75.695312 L 113.722656 75.695312 C 113.722656 75.695312 113.558594 77.710938 113.476562 78.121094 C 113.394531 78.53125 113.230469 78.742188 113.152344 79.152344 C 113.070312 79.5625 113.722656 79.890625 113.886719 80.136719 C 114.050781 80.382812 114.789062 80.628906 115.28125 80.957031 C 115.773438 81.28125 116.019531 81.199219 116.019531 81.199219 C 116.019531 81.199219 115.609375 81.691406 115.363281 82.019531 C 115.117188 82.347656 115.363281 83.25 115.363281 83.25 L 116.019531 82.675781 C 116.019531 82.675781 116.101562 83.25 116.101562 83.660156 C 116.101562 84.070312 115.28125 84.886719 115.28125 84.886719 L 114.460938 85.050781 L 114.296875 86.035156 L 114.542969 87.101562 L 113.722656 86.855469 C 113.722656 86.855469 113.558594 86.527344 113.804688 85.953125 C 114.050781 85.378906 113.722656 84.722656 113.722656 84.722656 C 113.722656 84.722656 113.070312 84.558594 112.414062 84.148438 C 111.757812 83.738281 111.429688 84.148438 111.429688 84.148438 L 111.757812 85.046875 L 112.660156 85.535156 L 112.414062 86.015625 C 112.414062 86.015625 111.511719 85.507812 111.101562 85.671875 C 110.691406 85.835938 110.035156 85.796875 109.21875 85.714844 C 108.398438 85.632812 107.332031 85.640625 107.332031 85.640625 L 106.351562 84.777344 C 106.351562 84.777344 106.351562 84.777344 105.449219 84.777344 C 104.546875 84.777344 105.039062 84.421875 104.710938 84.339844 C 104.382812 84.257812 104.546875 83.90625 104.300781 83.332031 C 104.054688 82.757812 103.480469 82.675781 103.480469 82.675781 C 103.480469 82.675781 102.582031 83.332031 102.089844 83.332031 C 101.597656 83.332031 101.023438 83.90625 101.023438 83.90625 C 101.023438 83.90625 101.023438 84.476562 101.351562 84.640625 C 101.679688 84.804688 102.007812 84.148438 102.007812 84.148438 C 102.007812 84.148438 103.074219 84.230469 103.238281 83.90625 L 103.808594 83.578125 L 103.402344 84.722656 L 102.253906 85.050781 L 101.761719 85.789062 L 102.171875 86.609375 L 102.582031 87.507812 L 102.5 87.835938 L 102.089844 88.246094 L 101.515625 87.589844 L 101.679688 87.175781 L 101.105469 86.105469 C 101.105469 86.105469 100.695312 86.011719 100.367188 85.847656 C 100.042969 85.683594 99.632812 85.25 99.632812 85.25 L 98.894531 85.71875 C 98.894531 85.71875 98.15625 85.71875 96.847656 85.71875 C 95.535156 85.71875 94.386719 85.34375 94.386719 85.34375 L 94.632812 84.886719 L 95.125 84.476562 L 95.78125 84.230469 L 95.453125 83.660156 L 94.472656 82.757812 L 93.734375 82.839844 C 93.734375 82.839844 92.835938 83.085938 92.101562 82.59375 C 91.363281 82.101562 91.449219 81.9375 90.632812 81.773438 C 89.8125 81.609375 89.824219 81.28125 88.679688 80.789062 C 87.53125 80.300781 86.980469 80.464844 86.980469 80.464844 L 86.457031 81.28125 L 85.800781 81.363281 L 85.800781 80.546875 L 85.300781 79.726562 L 84.71875 80.546875 C 84.71875 80.546875 84.148438 81.445312 83.738281 81.363281 C 83.328125 81.28125 82.917969 80.054688 82.753906 79.5625 C 82.589844 79.070312 82.015625 78.332031 82.015625 78.332031 C 82.015625 78.332031 81.851562 79.316406 81.851562 79.644531 C 81.851562 79.972656 81.117188 80.464844 81.117188 80.464844 L 80.871094 79.890625 L 79.886719 80.464844 L 78.984375 81.28125 L 78.328125 81.527344 L 77.183594 82.265625 L 77.921875 81.117188 L 78.984375 80.710938 L 79.558594 80.300781 L 80.050781 79.644531 C 80.050781 79.644531 80.296875 79.152344 79.96875 79.152344 C 79.640625 79.152344 78.902344 79.726562 78.410156 80.054688 C 77.921875 80.382812 77.59375 80.628906 77.183594 80.953125 C 76.773438 81.28125 76.117188 81.773438 75.542969 82.183594 C 74.972656 82.59375 75.789062 83.332031 75.789062 83.332031 C 75.789062 83.332031 74.890625 83.167969 74.316406 83.003906 C 73.742188 82.839844 73.085938 82.59375 72.347656 82.429688 C 71.613281 82.265625 70.875 81.035156 70.300781 80.871094 C 69.726562 80.710938 69.234375 80.546875 68.746094 80.546875 C 68.253906 80.546875 66.613281 79.480469 66.121094 79.5625 C 65.632812 79.644531 64.894531 79.808594 64.484375 79.566406 C 64.074219 79.320312 63.5 79.238281 62.925781 79.238281 C 62.355469 79.238281 61.371094 78.425781 60.550781 78.261719 C 59.730469 78.097656 58.503906 78.023438 58.257812 78.023438 C 58.011719 78.023438 57.847656 77.554688 57.847656 77.554688 C 57.847656 77.554688 57.273438 77.265625 56.945312 77.101562 C 56.617188 76.9375 55.964844 77.34375 55.71875 77.261719 C 55.472656 77.179688 55.390625 76.949219 55.390625 76.949219 L 54.898438 76.949219 C 54.898438 76.949219 54.734375 77.351562 53.996094 77.273438 C 53.261719 77.191406 54.324219 76.53125 54.488281 76.203125 C 54.652344 75.875 53.421875 75.792969 53.421875 75.792969 L 52.851562 76.039062 C 52.851562 76.039062 52.359375 77.105469 51.949219 77.347656 C 51.539062 77.59375 50.882812 77.105469 50.554688 77.269531 C 50.226562 77.429688 50.554688 78.085938 50.554688 78.085938 L 49.980469 78.660156 L 49.898438 77.921875 L 48.421875 78.988281 L 47.597656 79.726562 L 47.179688 80.625 C 47.179688 80.625 46.425781 81.691406 46.183594 82.429688 C 45.9375 83.167969 43.835938 82.839844 43.835938 82.839844 L 43.835938 83.902344 L 43.386719 84.148438 C 43.386719 84.148438 44.003906 84.722656 44.984375 85.460938 C 45.96875 86.199219 46.460938 87.589844 46.460938 87.589844 C 46.460938 87.589844 47.199219 87.835938 47.6875 87.753906 C 48.179688 87.671875 48.507812 88 48.507812 88 C 48.507812 88 48.261719 88.410156 48.425781 88.902344 C 48.589844 89.394531 49 88.820312 49 88.820312 L 49.738281 88.738281 L 50.308594 88.660156 L 50.472656 89.074219 L 49.738281 89.492188 L 48.917969 89.835938 L 48.589844 89.949219 L 48.34375 90.671875 L 48.097656 90.414062 L 46.378906 90.414062 C 46.378906 90.414062 45.640625 90.210938 46.050781 89.882812 C 46.460938 89.554688 46.050781 88.945312 46.050781 88.945312 C 46.050781 88.945312 45.148438 89.070312 44.984375 89.316406 C 44.820312 89.5625 44.410156 89.730469 44.410156 89.730469 L 44.328125 90.414062 L 43.675781 90.414062 L 42.773438 90.886719 L 42.117188 91.113281 L 42.9375 91.851562 L 43.757812 92.179688 L 43.265625 92.753906 L 43.839844 93.488281 L 44.984375 93.816406 L 46.132812 93.652344 L 47.28125 93.980469 L 48.097656 93.488281 C 48.097656 93.488281 48.507812 93.164062 49 93.164062 C 49.492188 93.164062 48.589844 93.898438 48.589844 93.898438 L 49.082031 94.144531 C 49.082031 94.144531 49.246094 95.292969 49.246094 95.867188 C 49.246094 96.441406 48.097656 96.277344 48.097656 96.277344 L 47.199219 97.011719 L 46.542969 97.175781 C 46.542969 97.175781 46.050781 97.421875 45.804688 97.667969 C 45.558594 97.914062 44.820312 98.40625 44.574219 99.0625 C 44.332031 99.714844 44.085938 100.371094 44.492188 100.78125 C 44.902344 101.191406 44.492188 100.78125 44.820312 101.273438 C 45.148438 101.765625 45.3125 101.355469 45.3125 101.355469 L 45.722656 101.847656 L 46.378906 102.09375 C 46.378906 102.09375 45.96875 102.175781 45.640625 102.421875 C 45.3125 102.664062 45.558594 103.074219 45.804688 103.484375 C 46.050781 103.894531 46.625 104.140625 47.117188 104.058594 C 47.605469 103.976562 47.6875 102.910156 47.6875 102.910156 C 47.6875 102.910156 48.179688 103.894531 48.179688 104.140625 C 48.179688 104.386719 48.179688 104.878906 48.261719 105.289062 C 48.34375 105.695312 48.097656 106.023438 48.097656 106.023438 C 48.097656 106.023438 48.753906 105.695312 49.082031 105.535156 C 49.410156 105.371094 49.820312 104.796875 49.820312 104.796875 L 49.902344 105.535156 L 50.558594 105.78125 L 51.046875 106.433594 C 51.046875 106.433594 51.703125 105.125 51.457031 105.371094 C 51.210938 105.617188 51.867188 105.863281 52.195312 106.105469 C 52.523438 106.351562 53.179688 105.207031 53.179688 105.207031 C 53.179688 105.207031 53.015625 105.617188 52.851562 106.269531 C 52.6875 106.925781 52.523438 107.253906 52.441406 107.582031 C 52.359375 107.910156 52.03125 108.402344 51.621094 109.054688 C 51.210938 109.710938 50.640625 109.546875 49.820312 110.285156 C 49 111.023438 49.082031 110.859375 48.589844 111.023438 C 48.097656 111.1875 47.199219 112.25 47.199219 112.25 C 47.199219 112.25 46.625 112.085938 45.476562 112.824219 C 44.332031 113.5625 45.558594 113.644531 45.558594 113.644531 C 45.558594 113.644531 45.558594 113.644531 45.804688 113.5625 C 46.050781 113.480469 46.871094 112.988281 46.871094 112.988281 L 47.28125 112.824219 C 47.28125 112.824219 47.851562 112.332031 48.097656 112.007812 C 48.34375 111.679688 48.507812 112.085938 48.507812 112.085938 C 48.507812 112.085938 49.246094 111.679688 49.492188 111.597656 C 49.738281 111.515625 50.230469 111.269531 50.558594 111.269531 C 50.886719 111.269531 51.292969 110.53125 51.785156 110.203125 C 52.277344 109.875 52.769531 109.628906 52.769531 109.628906 L 53.589844 108.894531 L 53.507812 108.566406 C 53.507812 108.566406 53.917969 108.15625 54.324219 107.992188 C 54.734375 107.828125 55.0625 107.417969 55.390625 107.335938 C 55.71875 107.253906 55.800781 106.761719 55.964844 106.515625 C 56.128906 106.269531 56.292969 105.699219 56.292969 105.699219 L 55.882812 105.125 L 56.457031 104.222656 C 56.457031 104.222656 57.113281 103.730469 57.191406 103.402344 C 57.273438 103.074219 57.355469 102.992188 57.765625 102.667969 C 58.175781 102.339844 58.09375 101.601562 58.339844 101.519531 C 58.585938 101.4375 59.324219 100.863281 59.324219 100.863281 L 59.980469 101.109375 L 60.714844 101.683594 L 59.488281 101.519531 L 58.667969 102.257812 C 58.667969 102.257812 58.503906 102.828125 58.421875 103.15625 C 58.339844 103.484375 58.257812 104.222656 58.257812 104.222656 L 58.914062 103.976562 L 58.175781 104.714844 L 57.929688 105.042969 L 58.421875 105.125 C 58.421875 105.125 59.078125 104.632812 59.40625 104.46875 C 59.734375 104.304688 60.226562 103.730469 60.472656 103.484375 C 60.714844 103.238281 60.878906 103.402344 61.207031 103.402344 C 61.535156 103.402344 61.535156 102.746094 61.453125 102.421875 C 61.371094 102.09375 61.371094 101.683594 61.78125 101.519531 C 62.191406 101.355469 62.273438 101.273438 62.601562 101.355469 C 62.929688 101.4375 63.175781 101.601562 63.828125 101.929688 C 64.484375 102.257812 64.484375 102.339844 64.894531 102.746094 C 65.304688 103.15625 65.46875 103.15625 65.796875 103.402344 C 66.125 103.648438 66.53125 103.402344 67.105469 103.484375 C 67.105469 103.484375 67.84375 103.566406 68.582031 103.566406 C 69.320312 103.566406 69.644531 104.140625 69.972656 103.894531 C 70.300781 103.648438 70.382812 103.648438 70.382812 103.648438 L 70.136719 104.386719 L 70.546875 104.714844 L 71.613281 105.371094 C 71.613281 105.371094 71.613281 105.371094 72.023438 105.945312 C 72.433594 106.519531 73.167969 106.519531 73.578125 106.519531 C 73.988281 106.519531 73.496094 105.621094 73.496094 105.621094 L 74.316406 106.386719 L 74.726562 106.386719 L 74.644531 104.976562 C 74.644531 104.976562 75.21875 106.1875 75.460938 106.597656 C 75.707031 107.007812 76.117188 107.171875 76.363281 107.582031 C 76.609375 107.992188 77.183594 109.140625 77.511719 109.546875 C 77.839844 109.957031 77.839844 110.859375 78.085938 111.351562 C 78.332031 111.84375 78.332031 110.777344 78.742188 111.105469 C 79.148438 111.433594 79.394531 113.070312 79.394531 113.070312 L 79.886719 112.988281 L 79.558594 113.480469 L 79.886719 114.300781 L 80.542969 115.28125 L 81.117188 115.691406 L 81.035156 116.59375 L 81.773438 117.085938 L 82.589844 119.214844 L 83.820312 119.953125 L 85.292969 120.363281 L 86.441406 121.589844 L 87.507812 123.148438 L 87.671875 123.96875 L 87.097656 123.722656 L 85.292969 123.476562 C 85.292969 123.476562 85.785156 125.6875 86.195312 126.507812 C 86.605469 127.328125 85.785156 128.882812 85.867188 129.949219 C 85.949219 131.011719 85.292969 131.503906 85.703125 132.734375 C 86.113281 133.964844 85.703125 134.535156 85.703125 134.535156 L 86.113281 135.355469 L 86.441406 136.421875 L 87.671875 138.140625 L 88.160156 139.453125 C 88.160156 139.453125 88.652344 140.269531 89.0625 140.679688 C 89.472656 141.089844 89.472656 141.746094 89.472656 141.746094 C 89.472656 141.746094 91.191406 142.484375 92.011719 142.976562 C 92.832031 143.464844 92.996094 144.367188 92.996094 144.367188 L 93.734375 145.84375 L 94.386719 147.234375 C 94.386719 147.234375 94.386719 147.644531 94.878906 147.972656 C 95.371094 148.300781 95.699219 148.792969 95.945312 149.285156 C 96.191406 149.773438 94.878906 149.695312 94.878906 149.695312 C 96.847656 151.332031 96.847656 150.675781 96.847656 150.675781 C 96.847656 150.675781 97.09375 151.25 97.5 151.578125 C 97.910156 151.90625 97.992188 153.132812 97.992188 153.132812 L 99.632812 154.527344 L 100.042969 155.019531 L 100.453125 154.28125 C 100.453125 154.28125 99.878906 153.625 99.550781 153.542969 C 99.222656 153.460938 99.222656 152.808594 99.140625 152.558594 C 99.058594 152.316406 98.484375 151.25 98.484375 151.25 C 98.484375 151.25 97.746094 150.265625 97.5 149.9375 C 97.257812 149.609375 97.011719 148.792969 96.765625 148.464844 C 96.519531 148.136719 95.617188 147.5625 95.371094 147.070312 C 95.125 146.578125 95.289062 145.023438 95.289062 145.023438 L 96.929688 146.089844 C 96.929688 146.089844 97.417969 147.234375 97.828125 148.21875 C 98.238281 149.203125 98.894531 149.285156 98.894531 149.285156 L 99.304688 149.609375 L 99.550781 150.019531 L 99.878906 150.675781 L 100.449219 151.003906 L 100.941406 151.332031 L 100.777344 152.070312 L 101.761719 152.640625 L 102.171875 153.132812 L 102.910156 153.871094 L 104.464844 155.757812 C 104.464844 155.757812 104.710938 156.574219 104.710938 156.820312 C 104.710938 157.066406 104.382812 157.886719 104.382812 157.886719 L 104.875 158.789062 L 105.777344 159.199219 L 106.269531 159.6875 L 107.90625 160.261719 L 108.644531 160.753906 C 108.644531 160.753906 111.101562 161.902344 111.921875 162.3125 C 112.738281 162.71875 113.722656 162.554688 114.953125 162.148438 C 116.179688 161.738281 117.984375 164.113281 118.3125 164.359375 C 118.640625 164.605469 119.292969 164.523438 119.785156 164.605469 C 120.277344 164.6875 120.851562 165.015625 121.179688 165.097656 C 121.507812 165.175781 122.242188 165.011719 122.242188 165.011719 L 122.324219 165.503906 C 122.324219 165.503906 123.472656 166.898438 123.964844 167.226562 C 124.457031 167.554688 124.128906 168.371094 124.128906 168.371094 L 124.945312 168.535156 L 125.847656 169.027344 C 125.847656 169.027344 125.847656 169.4375 126.09375 169.683594 C 126.339844 169.929688 126.421875 169.765625 126.75 169.929688 C 127.078125 170.09375 127.40625 170.257812 127.730469 170.257812 C 128.058594 170.257812 128.714844 170.667969 128.714844 170.667969 L 128.878906 171.15625 L 129.617188 170.914062 L 129.175781 170.472656 C 129.175781 170.472656 129.664062 169.984375 129.972656 169.859375 C 130.28125 169.734375 130.527344 169.367188 130.527344 169.367188 L 131.386719 169.921875 L 131.753906 169.984375 C 131.753906 169.984375 131.753906 169.984375 131.507812 170.351562 C 131.265625 170.71875 131.902344 170.941406 131.902344 170.941406 C 131.902344 170.941406 132.183594 170.84375 132.429688 170.472656 C 132.675781 170.105469 132.292969 169.929688 132.292969 169.929688 L 131.582031 169.191406 L 130.191406 168.863281 L 129.617188 169.273438 C 129.617188 169.273438 128.960938 169.519531 128.550781 169.601562 C 128.140625 169.683594 127.570312 169.191406 127.324219 169.027344 C 127.078125 168.863281 126.75 168.128906 126.257812 167.472656 C 125.765625 166.816406 126.175781 166.816406 126.09375 166.160156 C 126.011719 165.503906 126.421875 164.605469 126.421875 164.277344 C 126.421875 163.949219 126.257812 163.046875 126.257812 163.046875 C 126.257812 163.046875 125.929688 162.882812 125.355469 162.554688 C 124.785156 162.226562 123.308594 162.472656 123.308594 162.472656 L 121.261719 162.636719 L 120.933594 162.308594 C 120.933594 162.308594 121.507812 161.328125 121.507812 161.082031 C 121.507812 160.835938 121.425781 159.933594 121.425781 159.933594 L 121.507812 159.441406 L 121.996094 160.179688 C 121.996094 160.179688 122.324219 158.867188 122.242188 158.378906 C 122.160156 157.886719 122.652344 157.558594 122.816406 157.230469 C 122.980469 156.902344 122.734375 156.496094 122.734375 156.496094 L 121.996094 156.332031 C 121.996094 156.332031 121.507812 156.421875 120.6875 156.585938 C 119.867188 156.75 119.457031 156.839844 119.375 157.660156 C 119.292969 158.480469 118.800781 158.582031 118.71875 158.992188 C 118.636719 159.402344 118.148438 159.625 118.148438 159.625 C 118.148438 159.625 117.492188 159.625 117.246094 159.625 C 117 159.625 116.015625 159.820312 115.6875 159.984375 C 115.359375 160.148438 114.871094 159.769531 114.542969 159.605469 C 114.214844 159.441406 113.476562 158.457031 113.3125 158.214844 C 113.148438 157.96875 112.820312 157.148438 112.738281 156.820312 C 112.65625 156.492188 112.246094 156.328125 112.246094 156 C 112.246094 155.671875 112.164062 154.035156 112.164062 153.542969 C 112.164062 153.050781 112.574219 152.476562 112.574219 151.988281 C 112.574219 151.496094 112.492188 149.9375 112.492188 149.9375 C 112.492188 149.9375 113.066406 149.363281 113.3125 148.957031 C 113.558594 148.546875 113.886719 148.957031 114.214844 148.792969 C 114.542969 148.628906 114.949219 147.726562 114.949219 147.726562 C 114.949219 147.726562 115.933594 147.316406 116.34375 147.234375 C 116.753906 147.152344 117.574219 147.480469 117.820312 147.234375 C 118.0625 146.988281 118.636719 147.808594 118.636719 147.808594 C 118.636719 147.808594 119.457031 148.054688 119.867188 148.054688 C 120.277344 148.054688 120.359375 147.808594 120.359375 147.808594 L 119.785156 147.152344 L 119.375 146.742188 C 119.375 146.742188 120.6875 146.578125 120.933594 146.660156 C 121.175781 146.742188 122.078125 146.742188 122.40625 146.660156 C 122.734375 146.578125 123.390625 146.5 123.800781 146.742188 C 124.207031 146.988281 124.371094 147.398438 124.78125 147.398438 C 125.191406 147.398438 125.601562 147.15625 125.929688 147.484375 C 126.257812 147.8125 126.746094 148.058594 126.910156 148.878906 C 127.074219 149.699219 127.238281 149.539062 127.484375 150.277344 C 127.730469 151.015625 127.726562 151.269531 128.21875 151.761719 C 128.710938 152.253906 128.867188 152.519531 128.867188 152.519531 C 128.867188 152.519531 129.269531 151.824219 129.515625 151.085938 M 154.222656 118.570312 L 152.996094 119.433594 C 152.996094 119.433594 152.132812 120.785156 152.011719 121.398438 C 151.886719 122.011719 151.519531 122.875 151.152344 123.488281 C 150.78125 124.101562 150.78125 124.101562 150.78125 124.101562 C 150.78125 124.101562 152.011719 124.347656 152.996094 124.472656 C 153.976562 124.59375 154.714844 124.71875 154.714844 124.71875 C 154.714844 124.71875 155.453125 123.734375 155.699219 124.347656 C 155.945312 124.964844 155.945312 124.964844 155.945312 124.964844 C 155.945312 124.964844 156.925781 126.070312 156.925781 125.699219 C 156.925781 125.332031 157.296875 124.59375 156.925781 124.226562 C 156.558594 123.855469 155.820312 123.488281 155.945312 122.628906 C 156.066406 121.765625 156.925781 121.765625 156.066406 121.765625 C 155.207031 121.765625 155.082031 121.765625 154.59375 121.273438 C 154.101562 120.785156 153.609375 120.90625 153.609375 120.90625 C 153.609375 120.90625 152.503906 121.273438 152.996094 120.539062 C 153.488281 119.800781 154.222656 118.570312 154.222656 118.570312 Z M 150.550781 126.117188 L 149.554688 126.117188 L 149.1875 125.183594 L 148.578125 126.585938 C 148.953125 128.300781 150.550781 126.117188 150.550781 126.117188 Z M 147.832031 122.136719 C 148.445312 121.644531 145.867188 121.03125 145.867188 121.03125 C 145.867188 121.03125 147.21875 122.628906 147.832031 122.136719 Z M 123.867188 92.5625 L 123.496094 93.5 L 123.742188 94.484375 L 123.128906 94.726562 L 122.636719 95.957031 L 123.253906 95.835938 L 124.113281 95.464844 L 123.988281 96.570312 L 124.972656 96.695312 L 126.324219 94.851562 L 127.0625 94.730469 L 127.800781 95.835938 L 129.152344 96.210938 L 129.273438 94.984375 L 128.414062 94.75 L 127.800781 93.546875 L 126.449219 92.855469 L 125.601562 91.980469 L 124.847656 91.980469 L 124.242188 90.535156 Z M 120.179688 76.539062 C 119.320312 76.414062 120.671875 78.011719 121.285156 78.503906 C 121.898438 78.996094 122.636719 78.628906 123.128906 78.75 C 123.621094 78.875 124.480469 79.609375 124.480469 79.609375 C 124.480469 79.609375 126.203125 79.609375 126.691406 79.734375 C 127.183594 79.855469 127.921875 79.980469 127.921875 79.980469 C 127.921875 79.980469 127.921875 79.488281 128.414062 79.367188 C 128.90625 79.242188 129.765625 79.734375 129.765625 79.734375 L 130.257812 80.347656 L 131.113281 79.734375 C 131.113281 79.734375 130.867188 78.996094 130.375 78.628906 C 129.886719 78.257812 132.09375 78.75 132.09375 78.75 L 132.207031 80.101562 L 132.933594 80.472656 C 132.933594 80.472656 133.640625 81.578125 134.011719 81.945312 C 134.378906 82.316406 133.089844 82.554688 133.089844 82.554688 L 133.089844 83.296875 L 135.113281 82.5625 L 135.417969 83.175781 C 135.417969 83.175781 136.15625 84.039062 136.769531 84.773438 C 136.769531 84.773438 137.140625 86.371094 137.261719 86.988281 C 137.386719 87.601562 137.015625 88.21875 137.015625 88.21875 C 137.015625 88.21875 136.035156 89.453125 135.542969 89.941406 C 135.050781 90.433594 136.15625 91.671875 136.15625 91.671875 C 136.15625 91.671875 134.804688 91.933594 133.945312 92.054688 C 133.082031 92.179688 132.46875 92.207031 132.46875 92.207031 C 132.46875 92.207031 132.46875 92.265625 131.976562 93.25 C 131.488281 94.234375 132.484375 94.488281 132.484375 94.488281 L 133.574219 94.488281 L 134.273438 93.871094 L 134.96875 93.859375 L 134.96875 92.886719 L 136.359375 93.992188 L 137.386719 95.710938 L 137.875 95.34375 L 138.367188 95.957031 L 137.875 96.328125 L 139.472656 97.554688 L 140.210938 97.679688 C 140.210938 97.679688 140.824219 98.417969 142.054688 99.03125 C 143.285156 99.644531 143.652344 99.769531 143.652344 99.769531 C 143.652344 99.769531 143.53125 98.785156 143.039062 98.292969 C 142.546875 97.800781 141.074219 95.957031 141.074219 95.589844 C 141.074219 95.21875 142.546875 96.570312 143.53125 97.1875 C 144.515625 97.800781 144.882812 97.554688 144.882812 97.554688 L 145.25 96.570312 L 145.375 95.21875 L 144.636719 94.851562 L 144.761719 94.238281 C 144.761719 94.238281 144.636719 93.375 143.40625 92.394531 C 142.179688 91.410156 142.425781 90.425781 142.425781 90.425781 C 142.425781 90.425781 141.808594 89.8125 141.933594 89.320312 C 142.054688 88.828125 142.917969 89.566406 143.53125 89.8125 C 144.144531 90.058594 144.269531 90.550781 144.882812 91.410156 C 145.496094 92.269531 146.234375 92.515625 146.234375 92.515625 L 147.710938 89.445312 C 147.710938 89.445312 148.078125 88.460938 147.585938 88.214844 C 147.09375 87.96875 146.847656 87.476562 146.847656 87.476562 L 146.113281 87.355469 L 145.867188 86.617188 C 145.867188 86.617188 144.761719 85.511719 143.898438 85.140625 C 143.039062 84.773438 142.425781 83.914062 142.425781 83.914062 L 141.6875 82.808594 L 141.8125 81.824219 L 142.546875 82.070312 L 143.285156 81.824219 L 142.546875 81.457031 L 141.195312 81.085938 L 141.6875 80.472656 L 142.425781 80.226562 L 141.933594 79.121094 L 140.703125 78.996094 L 141.195312 78.136719 L 140.582031 77.644531 L 139.351562 77.152344 C 139.351562 77.152344 138.613281 76.785156 138.613281 75.925781 C 138.613281 75.0625 136.894531 74.816406 136.894531 74.816406 L 136.527344 75.554688 L 135.789062 74.570312 L 135.296875 73.589844 L 134.558594 73.21875 L 134.191406 71.867188 C 134.191406 71.867188 133.085938 71.375 132.101562 71.253906 C 131.117188 71.128906 131.363281 72.480469 131.363281 72.480469 L 130.136719 72.605469 L 129.027344 73.464844 L 129.273438 71.128906 L 128.660156 70.023438 L 128.539062 68.425781 L 127.800781 67.6875 C 127.800781 67.6875 126.324219 68.304688 125.464844 68.917969 C 124.605469 69.53125 124.234375 70.640625 124.234375 70.640625 L 124.726562 72.851562 L 124.234375 73.835938 L 125.21875 74.941406 L 124.726562 76.414062 L 123.5 76.292969 L 124.359375 75.554688 C 124.359375 75.554688 123.5 72.972656 123.253906 72.605469 C 123.007812 72.238281 123.5 70.023438 123.742188 69.410156 C 123.988281 68.796875 124.726562 67.445312 124.726562 67.445312 C 124.726562 67.445312 122.636719 67.320312 122.269531 67.566406 C 121.898438 67.8125 120.304688 70.269531 120.304688 70.269531 L 119.933594 73.097656 L 120.179688 75.308594 L 121.65625 76.046875 L 122.519531 76.535156 C 122.515625 76.535156 121.039062 76.660156 120.179688 76.539062 Z M 132.46875 86.125 C 131.976562 87.355469 132.960938 87.355469 133.820312 87.109375 C 134.683594 86.863281 134.683594 85.265625 134.683594 85.265625 L 133.820312 84.402344 C 133.820312 84.402344 132.960938 84.894531 132.46875 86.125 Z M 127.675781 97.433594 C 125.585938 97.433594 126.203125 99.152344 126.203125 99.152344 C 126.203125 99.152344 129.765625 97.433594 127.675781 97.433594 Z M 86.996094 76.167969 C 86.996094 76.167969 87.855469 75.1875 88.46875 75.0625 C 89.085938 74.941406 89.085938 73.957031 89.574219 73.21875 C 90.066406 72.480469 90.558594 71.5 91.050781 71.128906 C 91.542969 70.761719 94.492188 68.425781 94.492188 68.425781 C 94.492188 68.425781 93.140625 66.089844 92.523438 65.96875 C 91.910156 65.84375 91.171875 66.214844 90.191406 65.722656 C 89.207031 65.230469 88.347656 64.492188 88.347656 64.492188 C 88.347656 64.492188 86.257812 64.984375 85.886719 65.109375 C 85.519531 65.230469 85.886719 65.722656 85.886719 66.582031 C 85.886719 67.445312 85.519531 69.042969 85.273438 69.777344 C 85.027344 70.515625 84.78125 72.238281 84.535156 72.726562 C 84.289062 73.21875 84.660156 73.34375 85.398438 74.082031 C 86.132812 74.816406 86.996094 76.167969 86.996094 76.167969 Z M 92.769531 76.046875 C 91.296875 76.539062 91.789062 77.398438 92.527344 77.890625 C 93.261719 78.382812 94.613281 77.890625 96.335938 77.765625 C 98.054688 77.644531 97.566406 78.996094 96.703125 78.996094 C 95.84375 78.996094 93.632812 78.996094 92.769531 79.609375 C 91.910156 80.226562 94 81.578125 95.230469 81.578125 C 96.457031 81.578125 96.210938 82.5625 96.335938 83.175781 C 96.457031 83.789062 97.808594 83.667969 98.792969 83.789062 C 99.777344 83.914062 99.898438 83.296875 100.761719 83.175781 C 101.621094 83.050781 101.25 82.5625 102.234375 82.4375 C 103.21875 82.316406 103.339844 80.964844 103.339844 80.964844 L 103.832031 81.824219 L 104.695312 82.5625 L 105.554688 83.050781 C 105.554688 83.050781 106.78125 83.050781 107.765625 82.683594 C 108.75 82.316406 107.765625 81.085938 107.765625 81.085938 L 107.027344 81.578125 L 106.78125 80.964844 C 106.78125 80.964844 107.644531 80.347656 107.765625 79.980469 C 107.890625 79.609375 109.117188 80.59375 109.117188 80.59375 L 108.996094 79.734375 L 108.257812 78.628906 C 108.257812 78.628906 106.90625 77.765625 106.167969 77.277344 C 105.429688 76.785156 105.554688 76.414062 105.554688 75.433594 C 105.554688 74.449219 105.0625 73.710938 105.0625 73.710938 L 104.324219 70.886719 C 104.324219 70.886719 102.972656 69.285156 101.988281 68.917969 C 101.003906 68.550781 101.984375 70.761719 101.984375 70.761719 C 101.984375 70.761719 102.230469 73.34375 101.984375 74.570312 C 101.738281 75.800781 101.238281 71.746094 100.75 71.007812 C 100.257812 70.269531 99.628906 70.394531 99.628906 70.394531 L 99.730469 71.621094 L 98.324219 72.230469 L 98.324219 71.128906 C 98.324219 71.128906 97.269531 70.269531 96.410156 70.394531 C 95.546875 70.515625 95.964844 71.746094 95.964844 71.746094 C 95.964844 71.746094 95.351562 71.746094 95.722656 70.640625 C 96.089844 69.535156 95.230469 69.414062 95.230469 69.414062 C 95.230469 69.414062 93.261719 70.28125 92.402344 70.898438 C 91.542969 71.511719 91.910156 72.507812 91.542969 72.753906 C 91.175781 73 91.191406 74.757812 91.191406 74.757812 L 91.910156 74.757812 L 91.789062 75.710938 L 92.652344 75.558594 C 92.652344 75.558594 94.132812 75.3125 94.5 75.191406 C 94.5 75.191406 94.246094 75.554688 92.769531 76.046875 Z M 103.023438 68.550781 L 104.78125 70.515625 L 105.226562 68.671875 L 105.023438 67.933594 L 103.898438 67.6875 L 103.023438 67.8125 Z M 110.363281 82.898438 L 111.082031 82.898438 L 112.3125 83.527344 L 113.664062 83.789062 L 114.15625 82.929688 C 114.15625 82.929688 114.15625 82.3125 113.667969 82.066406 C 113.175781 81.820312 112.5625 80.097656 111.945312 80.097656 C 111.332031 80.097656 111.210938 81.9375 111.210938 81.9375 L 110.476562 82.300781 Z M 112.105469 75.433594 L 112.105469 74.8125 L 113.070312 74.328125 C 113.070312 74.328125 113.046875 73.34375 113.046875 72.972656 C 113.046875 72.605469 113.046875 72.597656 113.046875 72.597656 L 113.296875 71.5 L 112.679688 71.253906 L 112.191406 70.269531 L 111.453125 70.640625 L 112.4375 69.042969 L 112.804688 67.933594 L 112.4375 67.074219 L 111.328125 67.6875 L 109.242188 67.566406 L 108.871094 68.179688 L 109.117188 69.410156 L 109.976562 69.65625 L 109.730469 70.886719 L 108.75 71.375 L 107.644531 70.394531 L 108.011719 71.621094 L 108.996094 73.097656 L 110.121094 73.957031 Z M 116.734375 57.609375 L 117.351562 59.699219 L 117.84375 61.175781 L 117.476562 62.28125 L 117.597656 63.878906 L 119.195312 64.492188 L 120.671875 64.125 L 121.53125 64.984375 L 124.234375 64.617188 C 124.234375 64.617188 125.832031 64.617188 126.324219 64.125 C 126.816406 63.632812 126.691406 65.109375 127.554688 64.863281 C 128.414062 64.617188 129.644531 64 129.644531 64 C 129.644531 64 129.273438 62.527344 129.765625 62.28125 C 130.257812 62.035156 130.378906 60.929688 129.644531 60.683594 C 128.90625 60.4375 128.414062 59.699219 127.921875 59.699219 C 127.429688 59.699219 126.324219 60.070312 126.324219 60.070312 C 126.324219 60.070312 124.972656 60.191406 124.480469 60.558594 C 123.988281 60.929688 123.742188 61.667969 123.742188 61.667969 C 123.742188 61.667969 123.128906 61.175781 122.761719 61.050781 C 122.390625 60.929688 121.53125 60.804688 121.53125 60.804688 L 120.671875 60.929688 L 120.425781 60.070312 L 119.320312 59.332031 L 118.582031 58.472656 C 118.582031 58.472656 119.933594 58.839844 120.179688 58.472656 C 120.425781 58.101562 120.179688 58.101562 119.5625 57.734375 C 118.949219 57.367188 118.949219 56.75 118.949219 56.75 L 118.089844 56.382812 L 117.070312 56.628906 C 117.070312 56.628906 116.175781 57.609375 116.175781 56.996094 C 116.175781 56.382812 116.175781 55.394531 116.175781 55.394531 C 116.175781 55.394531 115.96875 55.523438 115.230469 55.03125 C 114.492188 54.539062 114.261719 54.785156 113.773438 54.90625 C 113.28125 55.03125 112.429688 55.398438 113.042969 55.769531 C 113.65625 56.136719 113.660156 57.242188 114.398438 57.488281 C 115.136719 57.734375 115.628906 58.59375 116 58.226562 C 116.367188 57.855469 116.734375 57.609375 116.734375 57.609375 Z M 129.027344 68.179688 C 129.027344 68.179688 128.90625 68.796875 129.027344 69.164062 C 129.152344 69.53125 129.644531 69.902344 129.644531 69.902344 C 129.644531 69.902344 129.519531 71.007812 129.890625 71.128906 C 130.257812 71.253906 131.117188 70.761719 131.488281 70.640625 C 131.855469 70.515625 132.839844 70.886719 133.328125 70.761719 C 133.820312 70.640625 133.453125 69.65625 132.839844 69.164062 C 132.222656 68.671875 131.855469 68.179688 131.488281 68.179688 C 131.117188 68.179688 129.765625 67.8125 129.765625 67.8125 Z M 116.125 64.246094 C 116.125 64.246094 116.371094 62.28125 116 61.667969 C 115.632812 61.050781 114.648438 60.316406 114.648438 60.316406 L 114.035156 61.542969 C 114.035156 61.542969 113.171875 62.28125 113.421875 62.648438 C 113.664062 63.019531 114.402344 63.757812 114.648438 64.125 C 114.894531 64.492188 116.125 64.246094 116.125 64.246094 Z M 111.832031 62.523438 C 111.832031 62.523438 111.703125 61.910156 111.828125 61.417969 C 111.949219 60.929688 112.4375 60.4375 112.4375 60.4375 C 112.4375 60.4375 112.3125 58.71875 112.3125 58.347656 C 112.3125 57.980469 112.066406 56.996094 112.066406 56.996094 L 111.207031 56.382812 L 110.960938 56.875 C 110.960938 56.875 109.917969 55.890625 109.671875 56.257812 C 109.425781 56.628906 110.226562 58.472656 110.226562 58.472656 L 110.226562 59.203125 L 108.679688 57.609375 L 108.160156 57.367188 L 107.78125 58.101562 L 108.511719 59.453125 C 108.511719 59.453125 107.648438 59.085938 107.03125 57.980469 C 106.417969 56.875 105.308594 55.644531 105.433594 56.75 C 105.554688 57.855469 106.539062 60.070312 107.519531 60.5625 C 108.503906 61.050781 109.488281 60.070312 109.609375 60.683594 C 109.734375 61.296875 108.996094 62.28125 109.363281 62.648438 C 109.734375 63.019531 110.855469 63.257812 111.832031 62.523438 Z M 105.800781 61.542969 C 105.0625 61.542969 105.0625 62.527344 105.0625 62.527344 C 106.90625 63.632812 106.535156 61.542969 105.800781 61.542969 Z M 103.710938 62.527344 C 103.710938 62.527344 104.445312 61.296875 104.324219 60.4375 C 104.203125 59.578125 103.464844 58.226562 103.339844 58.839844 C 103.21875 59.453125 103.21875 59.453125 103.21875 59.453125 C 103.21875 59.453125 102.726562 59.332031 101.988281 58.839844 C 101.25 58.347656 101.867188 58.226562 101.621094 57.488281 C 101.375 56.75 101.496094 55.523438 100.761719 55.644531 C 100.023438 55.765625 100.515625 56.503906 100.144531 56.75 C 99.777344 56.996094 99.285156 57.121094 100.144531 57.980469 C 101.003906 58.839844 100.761719 58.839844 100.515625 59.207031 C 100.269531 59.578125 101.003906 59.824219 100.882812 60.4375 C 100.761719 61.050781 99.285156 60.804688 98.792969 60.683594 C 98.300781 60.5625 98.425781 59.578125 98.054688 59.332031 C 97.6875 59.085938 96.828125 57.980469 96.828125 57.980469 L 95.84375 58.101562 C 95.84375 58.101562 95.351562 56.503906 94.738281 56.996094 C 94.125 57.488281 94 57.980469 93.507812 58.59375 C 93.015625 59.207031 92.527344 60.070312 92.402344 60.5625 C 92.28125 61.050781 92.15625 62.773438 93.632812 62.648438 C 95.105469 62.527344 98.917969 62.035156 98.546875 62.648438 C 98.179688 63.265625 96.703125 63.140625 96.089844 63.632812 C 95.476562 64.125 95.476562 66.214844 97.6875 64.984375 C 99.898438 63.757812 100.636719 63.019531 101.621094 62.894531 C 102.605469 62.773438 103.710938 62.527344 103.710938 62.527344 Z M 90.3125 58.964844 C 91.175781 58.71875 91.050781 57.609375 91.050781 56.875 C 91.050781 56.136719 91.664062 56.75 92.035156 57.488281 C 92.402344 58.226562 92.648438 57.363281 93.261719 56.875 C 93.878906 56.382812 93.753906 55.277344 93.386719 54.785156 C 93.015625 54.292969 93.261719 54.292969 93.878906 53.679688 C 94.492188 53.0625 93.632812 52.695312 93.140625 52.570312 C 92.648438 52.449219 91.542969 53.433594 90.804688 53.433594 C 90.066406 53.433594 89.453125 55.769531 88.347656 56.875 C 87.242188 57.980469 86.996094 58.347656 86.996094 58.347656 C 86.871094 60.070312 89.453125 59.210938 90.3125 58.964844 Z M 92.035156 58.964844 C 92.15625 58.226562 90.4375 59.945312 90.4375 59.945312 C 91.171875 62.527344 91.910156 59.699219 92.035156 58.964844 Z M 97.8125 53.0625 C 97.8125 53.0625 99.410156 53.1875 99.410156 52.449219 C 99.410156 51.710938 99.285156 51.34375 98.425781 51.34375 C 97.566406 51.34375 98.917969 50.730469 99.53125 50.605469 C 100.144531 50.484375 100.023438 49.253906 98.054688 50.238281 C 96.089844 51.21875 96.457031 52.574219 96.457031 52.574219 Z M 94.613281 50.972656 L 95.597656 51.710938 L 95.96875 51.097656 L 95.351562 50.238281 Z M 96.335938 55.890625 C 97.074219 55.523438 95.230469 55.277344 95.230469 55.277344 C 94.125 55.769531 95.597656 56.257812 96.335938 55.890625 Z M 120.546875 57.121094 L 122.023438 57.367188 L 124.972656 57.855469 L 124.726562 57.367188 L 125.710938 56.75 L 127.800781 56.875 L 128.78125 57.121094 L 129.027344 58.472656 C 129.027344 58.472656 130.625 57.488281 131.117188 57.121094 C 131.609375 56.75 131.609375 55.644531 131.609375 55.644531 C 131.609375 55.644531 130.996094 54.785156 130.257812 54.414062 C 129.519531 54.046875 128.167969 54.292969 128.167969 54.292969 L 128.292969 53.1875 C 128.292969 53.1875 129.398438 53.800781 129.890625 53.679688 C 130.378906 53.554688 131.242188 53.554688 131.609375 52.941406 C 131.980469 52.328125 131.855469 50.605469 131.855469 50.605469 L 133.332031 50.359375 L 133.824219 50.113281 C 133.824219 50.113281 134.195312 48.761719 134.6875 47.65625 C 135.175781 46.550781 135.179688 45.320312 135.179688 45.320312 L 134.816406 44.089844 L 133.714844 43.964844 L 133.714844 43.476562 L 134.445312 43.230469 C 134.445312 43.230469 135.050781 42.738281 136.035156 42.125 C 137.019531 41.511719 136.402344 41.386719 136.402344 41.386719 C 138 42.25 137.632812 41.757812 137.878906 41.019531 C 138.125 40.28125 138.984375 39.175781 138.984375 39.175781 L 138 39.421875 L 137.753906 38.808594 C 137.753906 38.808594 138.984375 38.316406 139.476562 38.070312 C 139.96875 37.824219 140.335938 37.578125 140.460938 37.085938 C 140.582031 36.59375 141.8125 34.996094 142.179688 34.257812 C 142.546875 33.523438 143.410156 32.90625 144.269531 32.167969 C 145.128906 31.433594 145.5 30.941406 144.882812 30.328125 C 144.269531 29.710938 140.582031 32.785156 139.722656 33.03125 C 138.859375 33.277344 142.671875 30.328125 142.671875 30.328125 L 140.949219 29.835938 C 140.949219 29.835938 144.636719 28.851562 145.5 28.605469 C 146.359375 28.359375 147.710938 26.023438 148.324219 24.796875 C 148.941406 23.566406 148.203125 23.566406 147.21875 22.707031 C 146.234375 21.847656 145.988281 20.617188 145.988281 20.617188 L 144.636719 20.371094 C 144.636719 20.371094 143.285156 21.230469 142.058594 21.96875 C 140.828125 22.707031 142.425781 20.738281 143.039062 20.125 C 143.65625 19.511719 142.917969 19.632812 141.320312 19.386719 C 139.722656 19.140625 140.460938 18.652344 138.984375 18.527344 C 137.507812 18.40625 135.421875 18.773438 134.191406 19.019531 C 132.960938 19.265625 131.242188 19.265625 129.644531 20.125 C 128.046875 20.984375 128.292969 21.230469 127.675781 22.09375 C 127.0625 22.953125 127.183594 23.445312 126.941406 24.304688 C 126.695312 25.164062 124.851562 23.074219 124.234375 23.566406 C 123.621094 24.058594 123.988281 24.671875 123.375 25.410156 C 122.761719 26.148438 121.039062 26.761719 119.933594 27.378906 C 118.828125 27.992188 117.96875 28.484375 118.089844 29.34375 C 118.214844 30.203125 119.933594 31.800781 119.933594 31.800781 L 119.8125 32.417969 C 119.8125 32.417969 119.566406 33.152344 120.546875 34.628906 C 121.53125 36.101562 123.988281 36.59375 125.097656 36.59375 C 126.203125 36.59375 126.695312 36.472656 128.414062 36.101562 C 130.136719 35.734375 130.628906 32.660156 130.628906 32.660156 L 132.226562 31.433594 C 131.363281 32.292969 131.363281 34.75 130.75 35.855469 C 130.136719 36.964844 126.570312 37.945312 126.570312 37.945312 C 126.570312 37.945312 127.800781 40.28125 128.167969 41.019531 C 128.539062 41.757812 129.519531 41.878906 129.519531 41.878906 L 128.785156 42.25 L 127.921875 42.003906 C 127.921875 42.003906 126.324219 39.050781 125.710938 38.5625 C 125.097656 38.070312 123.992188 37.945312 123.5 37.945312 C 123.007812 37.945312 123.128906 40.40625 123.5 40.773438 C 123.867188 41.140625 124.359375 41.511719 124.359375 41.511719 L 125.835938 44.460938 L 125.21875 44.828125 C 125.21875 44.828125 125.21875 45.445312 126.324219 45.6875 C 127.429688 45.933594 127.921875 45.566406 127.921875 45.566406 L 127.0625 47.164062 C 127.0625 47.164062 125.589844 46.179688 124.851562 46.058594 C 124.113281 45.933594 123.007812 46.550781 123.007812 46.550781 C 123.007812 46.550781 122.761719 47.042969 122.515625 47.902344 C 122.269531 48.761719 122.640625 49.746094 122.640625 49.746094 L 124.359375 49.5 L 124.851562 49.867188 L 123.992188 50.851562 L 125.097656 52.449219 L 126.203125 52.328125 L 125.710938 52.941406 C 125.710938 52.941406 125.710938 52.941406 124.851562 53.0625 C 123.992188 53.1875 123.5 51.464844 123.007812 50.972656 C 122.515625 50.484375 121.777344 51.34375 121.285156 51.464844 C 120.796875 51.589844 122.023438 53.308594 122.023438 53.308594 L 122.636719 53.433594 L 122.761719 53.921875 C 122.761719 53.921875 122.023438 54.539062 121.285156 54.785156 C 120.546875 55.03125 120.054688 56.257812 120.054688 56.257812 Z M 124.730469 43.480469 L 124.113281 42.375 L 123.128906 41.878906 C 123.128906 41.878906 123.007812 41.265625 122.761719 40.773438 C 122.515625 40.28125 122.023438 37.453125 122.023438 37.453125 L 121.53125 37.210938 C 121.53125 37.210938 121.039062 37.699219 121.285156 38.316406 C 121.53125 38.929688 121.53125 38.929688 121.53125 38.929688 C 121.53125 38.929688 120.546875 38.316406 120.671875 37.699219 C 120.792969 37.085938 120.671875 37.453125 119.933594 36.59375 C 119.195312 35.734375 118.582031 35.121094 118.210938 34.011719 C 117.84375 32.90625 117.964844 32.539062 117.105469 31.925781 C 116.246094 31.308594 115.507812 31.554688 115.507812 31.554688 L 115.691406 32.171875 L 116.488281 32.417969 L 116.488281 33.152344 L 115.078125 33.523438 L 114.371094 34.503906 C 114.371094 34.503906 115.125 34.996094 115.492188 35.367188 C 115.863281 35.734375 115.992188 36.59375 115.992188 36.59375 L 114.03125 35.859375 L 113.664062 37.703125 C 113.664062 37.703125 113.785156 39.175781 114.523438 38.808594 C 115.261719 38.4375 115.914062 38.4375 115.421875 39.054688 C 114.929688 39.667969 113.984375 39.542969 113.984375 39.542969 L 113.984375 40.523438 L 115.140625 41.5625 L 116.140625 41.5625 L 114.894531 42.386719 L 115.632812 43.792969 L 117.351562 43.207031 L 118.457031 43.585938 L 117.351562 44.453125 L 116.492188 45.070312 C 116.492188 45.070312 116.738281 48.515625 117.964844 49.375 C 119.195312 50.234375 119.195312 50.238281 119.195312 50.238281 L 119.6875 49.132812 L 120.425781 48.886719 L 121.160156 49.253906 C 121.160156 49.253906 121.40625 48.394531 121.40625 47.410156 C 121.40625 46.425781 122.144531 46.917969 122.144531 46.917969 L 122.882812 45.199219 C 122.882812 45.199219 124.738281 44.59375 124.730469 43.480469 Z M 97.441406 48.359375 L 97.828125 49.078125 L 98.425781 49.078125 L 98.546875 48.367188 L 99.53125 48.761719 L 100.269531 48.886719 C 100.269531 48.886719 100.269531 47.535156 99.902344 47.164062 C 99.53125 46.796875 98.917969 46.304688 98.917969 46.304688 C 98.179688 47.289062 97.691406 47.414062 97.691406 47.414062 L 96.46875 48.523438 Z M 103.832031 51.589844 C 103.832031 51.589844 104.445312 54.785156 105.308594 54.414062 C 106.167969 54.046875 104.9375 51.34375 103.832031 51.589844 Z M 104.078125 43.84375 C 104.078125 43.84375 103.339844 45.445312 104.078125 45.320312 C 104.816406 45.199219 105.675781 45.6875 105.675781 45.6875 L 105.921875 46.917969 L 106.046875 47.53125 L 105.0625 47.65625 C 105.0625 47.65625 104.9375 48.515625 105.554688 48.515625 C 106.167969 48.515625 107.152344 48.761719 107.152344 48.761719 C 107.152344 48.761719 108.132812 48.515625 108.503906 49.128906 C 108.871094 49.746094 109.242188 50.972656 109.609375 50.851562 C 109.976562 50.730469 110.839844 50.605469 110.46875 49.746094 C 110.101562 48.882812 109.976562 47.902344 109.976562 47.410156 C 109.976562 46.917969 109.242188 45.8125 109.242188 45.8125 L 108.378906 46.058594 L 108.257812 44.707031 L 107.398438 44.214844 L 107.027344 45.199219 L 106.539062 44.089844 L 105.800781 43.476562 Z M 110.46875 39.296875 C 110.46875 39.296875 109.976562 40.527344 110.46875 40.648438 C 110.960938 40.773438 111.207031 41.757812 111.207031 41.757812 C 111.207031 41.757812 112.3125 38.5625 110.46875 39.296875 Z M 111.699219 47.289062 L 112.4375 48.886719 C 113.542969 49.007812 112.925781 49.746094 112.558594 49.746094 C 112.191406 49.746094 112.804688 51.34375 112.804688 51.34375 L 113.417969 50.605469 L 115.015625 50.359375 C 115.015625 50.359375 114.769531 49.132812 114.769531 48.640625 C 114.769531 48.148438 114.402344 47.65625 114.035156 47.777344 C 113.664062 47.902344 113.789062 47.042969 113.789062 47.042969 L 111.945312 45.566406 C 111.085938 45.320312 111.699219 47.289062 111.699219 47.289062 Z M 114.15625 51.710938 C 114.15625 51.710938 114.035156 52.695312 115.140625 52.816406 C 116.246094 52.941406 116.246094 52.941406 116.246094 52.941406 L 116.371094 51.464844 Z M 118.828125 52.203125 C 118.828125 52.203125 118.582031 54.046875 119.6875 53.800781 C 120.792969 53.554688 120.054688 51.464844 118.828125 52.203125 Z M 108.75 51.097656 L 107.886719 50.484375 L 107.152344 50.605469 C 106.78125 51.957031 108.75 51.097656 108.75 51.097656 Z M 155.101562 24.582031 C 155.101562 24.582031 153.617188 25.425781 152.878906 25.671875 C 152.144531 25.917969 150.417969 26.890625 150.417969 26.890625 C 150.417969 26.890625 150.417969 27.257812 149.679688 27.625 C 148.941406 27.996094 148.324219 28.484375 148.324219 29.097656 C 148.324219 29.714844 148.695312 32.90625 148.695312 32.90625 C 148.695312 32.90625 147.832031 32.785156 147.21875 32.660156 C 146.605469 32.539062 145.867188 33.152344 145.253906 34.011719 C 144.636719 34.875 142.917969 37.207031 142.425781 37.945312 C 141.933594 38.683594 142.792969 39.296875 142.792969 39.296875 C 142.792969 39.296875 143.898438 39.667969 145.128906 39.175781 L 144.882812 40.035156 L 144.636719 41.386719 C 144.636719 41.386719 145.253906 42.246094 144.636719 42.984375 C 144.023438 43.722656 143.777344 44.582031 143.777344 44.582031 C 143.777344 44.582031 143.164062 43.847656 142.546875 44.335938 C 141.933594 44.828125 140.582031 45.320312 140.582031 45.320312 C 140.582031 45.320312 140.089844 46.179688 139.351562 46.671875 C 138.617188 47.164062 137.140625 48.023438 137.140625 48.023438 L 137.019531 49.746094 C 137.019531 49.746094 138.371094 50.359375 138.738281 50.851562 C 139.109375 51.34375 139.109375 52.203125 139.96875 52.328125 C 140.828125 52.449219 141.6875 52.203125 141.6875 52.203125 C 141.6875 52.203125 142.917969 51.097656 143.285156 51.589844 C 143.65625 52.082031 143.53125 53.0625 143.53125 53.0625 C 143.53125 53.0625 141.933594 53.0625 140.949219 53.554688 C 139.96875 54.046875 139.230469 54.046875 139.230469 54.046875 L 138.492188 54.660156 C 138.492188 54.660156 138.863281 55.523438 139.351562 55.644531 C 139.84375 55.765625 141.933594 56.136719 141.441406 56.382812 C 140.953125 56.628906 140.214844 57.488281 140.214844 57.488281 C 140.214844 57.488281 141.6875 59.453125 142.917969 59.332031 C 142.917969 59.332031 142.550781 58.59375 143.53125 58.472656 C 144.515625 58.347656 146.359375 57.980469 146.359375 57.980469 L 148.078125 58.347656 C 148.078125 58.347656 151.273438 59.824219 151.398438 60.683594 C 151.519531 61.542969 151.03125 61.914062 151.644531 62.527344 C 152.257812 63.140625 152.871094 64.125 153.242188 65.601562 C 153.609375 67.074219 154.472656 68.796875 154.472656 69.65625 C 154.472656 70.515625 155.453125 70.394531 155.207031 71.746094 C 154.960938 73.097656 154.226562 74.324219 154.226562 74.324219 C 154.226562 74.324219 153.734375 74.570312 154.101562 75.1875 C 154.46875 75.800781 155.578125 75.800781 155.578125 75.800781 L 155.945312 74.203125 C 155.945312 74.203125 157.175781 74.449219 157.910156 76.539062 C 158.648438 78.628906 159.386719 78.996094 158.035156 78.136719 C 156.683594 77.277344 155.453125 77.398438 155.453125 77.398438 C 155.453125 77.398438 155.332031 78.011719 156.191406 78.503906 C 157.050781 78.996094 156.929688 79.734375 157.789062 79.734375 C 158.648438 79.734375 159.265625 79.855469 159.265625 79.855469 C 159.265625 79.855469 159.140625 81.332031 158.894531 81.824219 C 158.648438 82.316406 158.28125 83.421875 158.28125 83.421875 C 158.28125 83.421875 157.667969 83.296875 157.175781 84.28125 C 156.683594 85.265625 155.945312 86.984375 155.945312 86.984375 L 156.3125 88.089844 L 156.804688 88.335938 C 156.804688 88.335938 155.945312 88.828125 156.191406 89.320312 C 156.4375 89.8125 157.542969 92.515625 157.542969 94.238281 C 157.542969 94.238281 158.28125 93.132812 159.261719 93.621094 L 158.402344 95.34375 C 158.402344 95.34375 158.894531 96.941406 159.632812 98.539062 C 160.371094 100.136719 161.96875 101.488281 161.96875 101.488281 C 161.96875 101.488281 163.195312 101.242188 163.8125 101.734375 C 164.425781 102.226562 164.917969 103.332031 164.917969 103.332031 L 166.148438 103.210938 L 167.375 99.890625 L 167.253906 98.046875 L 168.234375 97.308594 L 169.097656 94.605469 L 168.480469 92.515625 L 169.339844 92.148438 L 169.585938 91.410156 L 171.183594 90.671875 L 171.921875 89.6875 L 172.539062 89.683594 L 172.292969 90.414062 L 173.410156 90.414062 C 173.410156 90.414062 174.996094 89.308594 175.488281 88.449219 C 175.980469 87.589844 176.46875 85.933594 176.46875 85.933594 L 177.207031 85.171875 L 176.960938 83.558594 L 178.4375 84.65625 C 178.4375 84.65625 181.632812 84.285156 182.738281 83.425781 C 183.84375 82.566406 187.164062 79.738281 187.164062 79.738281 C 187.164062 79.738281 186.300781 79.488281 185.6875 79.242188 C 185.074219 79 183.351562 78.996094 182.984375 79.121094 C 182.617188 79.242188 182.738281 78.507812 182.738281 78.507812 L 180.894531 78.382812 L 181.632812 76.785156 C 181.632812 76.785156 183.230469 77.152344 183.476562 76.539062 C 183.722656 75.925781 183.84375 75.433594 183.84375 75.433594 L 182.371094 75.308594 L 182.125 73.835938 C 182.125 73.835938 183.722656 74.820312 184.457031 75.1875 C 185.195312 75.554688 185.8125 77.523438 185.8125 77.523438 L 186.300781 78.261719 L 187.777344 78.136719 L 187.410156 74.574219 C 187.410156 74.574219 186.425781 73.957031 185.933594 73.464844 C 185.441406 72.976562 184.949219 72.238281 184.949219 72.238281 L 184.089844 70.640625 L 183.476562 69.65625 L 185.320312 67.566406 L 187.039062 69.164062 L 188.636719 68.550781 L 188.882812 67.199219 L 187.285156 66.585938 L 187.652344 65.109375 L 189.496094 65.722656 L 190.113281 64.984375 L 189.007812 64.496094 L 188.144531 60.929688 C 188.144531 60.929688 189.621094 61.542969 189.742188 62.160156 L 189.621094 59.945312 L 189.496094 58.226562 L 188.269531 57.859375 L 187.410156 56.996094 L 187.164062 55.769531 C 187.164062 55.769531 189.007812 54.785156 189.621094 55.152344 C 190.234375 55.523438 191.339844 55.644531 191.339844 55.644531 L 190.851562 53.433594 L 190.121094 53.1875 L 189.148438 52.574219 L 189.148438 51.460938 L 190.371094 52.082031 L 190.613281 51.222656 L 189.378906 50.359375 L 188.640625 50.730469 C 188.640625 50.730469 188.394531 51.835938 188.148438 51.464844 C 187.902344 51.097656 188.390625 49.378906 188.515625 48.394531 C 188.640625 47.410156 188.515625 46.304688 188.515625 46.304688 L 189.5 45.691406 L 189.988281 41.386719 L 191.21875 41.019531 L 191.957031 39.546875 L 190.359375 39.300781 L 189.621094 40.652344 C 189.621094 40.652344 188.882812 40.28125 189.253906 39.054688 C 189.621094 37.824219 189.988281 38.191406 191.34375 38.316406 C 192.695312 38.4375 193.308594 36.71875 193.308594 36.71875 L 191.585938 36.265625 L 189.375 36.550781 L 188.523438 36.550781 L 189.746094 35.765625 C 189.746094 35.765625 190.605469 35.996094 191.097656 35.628906 C 191.585938 35.257812 191.957031 35.128906 192.449219 35.128906 C 192.9375 35.128906 193.675781 34.632812 194.167969 34.507812 C 194.660156 34.386719 194.660156 33.769531 194.660156 33.769531 L 194.414062 32.910156 L 195.519531 32.664062 C 195.519531 32.664062 196.378906 31.066406 196.996094 30.328125 C 197.609375 29.589844 196.503906 29.097656 195.644531 28.238281 C 194.78125 27.378906 192.695312 27.625 192.324219 27.746094 C 191.957031 27.867188 191.21875 30.820312 191.21875 30.820312 L 190.480469 30.203125 L 189.5 30.695312 L 188.882812 29.835938 L 187.285156 32.910156 L 185.8125 35.121094 C 185.8125 35.121094 185.6875 33.523438 186.300781 32.539062 C 186.917969 31.554688 187.777344 29.464844 187.777344 28.851562 C 187.777344 28.238281 187.285156 26.515625 187.285156 26.515625 L 185.8125 27.007812 C 185.8125 27.007812 184.703125 30.082031 182.617188 30.941406 L 182.125 30.820312 L 182 30.203125 L 183.96875 28.605469 L 184.457031 27.132812 L 181.386719 26.640625 C 181.386719 26.640625 180.28125 27.378906 179.171875 27.746094 C 178.066406 28.113281 176.960938 29.097656 176.960938 29.097656 C 176.960938 29.097656 175.609375 28.484375 176.59375 28.113281 C 177.574219 27.746094 178.191406 26.148438 179.542969 26.027344 C 180.894531 25.902344 182.859375 25.902344 183.96875 25.78125 C 185.074219 25.65625 185.566406 25.410156 186.179688 25.042969 C 186.792969 24.671875 188.269531 22.339844 188.269531 22.339844 C 188.269531 22.339844 186.546875 20.25 186.054688 20.25 C 185.566406 20.25 184.089844 20.742188 184.089844 20.742188 C 184.089844 20.742188 184.828125 19.511719 184.703125 18.898438 C 184.582031 18.28125 182.617188 18.898438 182.617188 18.898438 C 181.878906 18.898438 181.878906 18.652344 181.140625 18.527344 C 180.402344 18.40625 179.417969 18.527344 178.683594 18.773438 C 177.945312 19.019531 175.855469 19.878906 175.855469 19.878906 L 177.207031 18.40625 C 177.207031 18.40625 177.574219 15.824219 175.488281 15.703125 C 173.398438 15.578125 170.691406 15.703125 170.570312 17.421875 C 170.449219 19.144531 170.9375 20.742188 170.9375 20.742188 C 170.9375 20.742188 170.203125 19.878906 169.585938 19.632812 C 168.972656 19.386719 168.480469 17.792969 168.480469 17.792969 C 168.480469 17.792969 165.039062 16.683594 164.179688 17.300781 C 163.320312 17.914062 162.703125 19.710938 162.703125 19.710938 C 162.703125 19.710938 163.195312 20.890625 165.039062 20.890625 C 166.882812 20.890625 167.878906 20.890625 167.878906 20.890625 L 169.339844 21.914062 L 169.832031 23.722656 C 169.832031 23.722656 168.605469 22.109375 168.234375 21.863281 C 167.867188 21.617188 164.058594 21.117188 164.058594 21.117188 C 164.058594 21.117188 164.917969 22.589844 165.410156 23.082031 C 165.898438 23.574219 166.515625 24.921875 166.515625 24.921875 L 164.917969 23.691406 L 163.195312 21.972656 L 161.597656 22.09375 C 161.597656 22.09375 162.828125 24.304688 163.320312 24.675781 C 163.808594 25.042969 164.425781 26.261719 164.671875 26.875 C 164.917969 27.492188 165.039062 28.09375 165.039062 28.09375 L 164.4375 28.09375 C 164.4375 28.09375 163.441406 26.5 163.074219 26.128906 C 162.703125 25.761719 161.84375 24.910156 161.230469 24.417969 C 160.613281 23.929688 160 23.316406 160 23.316406 L 158.523438 23.195312 C 158.523438 23.195312 159.140625 25.65625 159.632812 26.640625 C 160.121094 27.621094 159.140625 27.625 159.140625 27.625 L 157.910156 26.273438 L 156.925781 24.796875 Z M 155.085938 80.59375 L 155.945312 81.699219 C 155.945312 81.699219 156.4375 81.699219 157.050781 81.332031 C 157.664062 80.964844 157.664062 80.347656 157.664062 80.347656 L 156.3125 79.488281 L 155.207031 78.996094 Z M 155.085938 80.59375 " fill-opacity="1" fill-rule="nonzero"/></g></svg>