<?xml version="1.0" encoding="UTF-8"?><svg xmlns="http://www.w3.org/2000/svg" xmlns:xlink="http://www.w3.org/1999/xlink" contentScriptType="text/ecmascript" width="240" zoomAndPan="magnify" contentStyleType="text/css" viewBox="0 0 240 187.499995" height="187.499995" preserveAspectRatio="xMidYMid meet" version="1.0"><defs><clipPath id="clip-0"><path d="M 20 16.894531 L 220.40625 16.894531 L 220.40625 170 L 20 170 Z M 20 16.894531 " clip-rule="nonzero"/></clipPath></defs><g clip-path="url(#clip-0)"><path fill="rgb(36.079407%, 69.40918%, 94.898987%)" d="M 107.816406 17.269531 C 108.320312 17.523438 112.609375 18.785156 113.617188 19.285156 C 114.628906 19.792969 116.140625 20.546875 116.140625 20.546875 C 116.140625 20.546875 116.140625 20.546875 116.769531 21.050781 C 117.402344 21.554688 119.546875 22.5625 120.175781 23.445312 C 120.804688 24.328125 120.933594 25.335938 120.933594 25.335938 C 120.933594 25.335938 122.320312 25.839844 123.453125 26.34375 C 124.589844 26.847656 125.347656 26.847656 125.976562 27.226562 C 126.605469 27.601562 126.734375 29.113281 126.355469 29.367188 C 125.976562 29.617188 124.839844 29.746094 124.839844 29.746094 C 124.839844 29.746094 124.839844 30.878906 125.21875 31.132812 C 125.597656 31.382812 125.851562 31.886719 126.355469 32.390625 C 126.859375 32.894531 127.996094 33.523438 128.121094 33.902344 C 128.246094 34.28125 128.246094 34.910156 128.75 35.414062 C 129.257812 35.917969 129.632812 36.421875 129.632812 36.421875 L 131.148438 36.675781 C 131.148438 36.675781 131.019531 37.558594 131.652344 37.808594 C 132.28125 38.0625 133.417969 38.3125 133.417969 38.3125 L 133.164062 39.070312 L 136.066406 40.078125 L 135.183594 41.085938 L 134.175781 41.210938 L 133.292969 40.453125 L 126.609375 39.320312 L 124.464844 37.429688 L 124.335938 36.800781 L 123.582031 36.675781 C 123.582031 36.675781 122.824219 36.171875 122.445312 35.539062 C 122.066406 34.910156 121.941406 34.027344 121.5625 33.652344 C 121.183594 33.273438 119.292969 32.894531 118.535156 32.515625 C 117.78125 32.140625 117.023438 31.886719 116.015625 32.011719 C 115.003906 32.140625 114.628906 31.886719 114.628906 31.886719 L 114.375 33.019531 L 113.492188 33.777344 L 111.980469 34.28125 L 112.988281 35.917969 C 112.988281 35.917969 112.609375 36.546875 112.230469 36.800781 C 111.851562 37.050781 111.09375 37.179688 110.71875 36.925781 C 110.339844 36.675781 109.078125 37.050781 109.078125 37.050781 L 107.1875 36.675781 L 106.082031 36.171875 L 106.050781 16.894531 C 106.050781 16.894531 107.3125 17.019531 107.816406 17.269531 Z M 128.246094 25.242188 C 128.246094 25.242188 128.371094 26.609375 129.507812 26.988281 C 130.644531 27.367188 131.273438 27.484375 131.273438 27.484375 C 131.273438 27.484375 131.777344 27.480469 132.28125 27.734375 C 132.785156 27.984375 133.667969 28.109375 134.679688 27.855469 C 135.6875 27.605469 137.074219 27.304688 137.707031 26.925781 C 138.335938 26.546875 138.082031 25.742188 138.839844 25.742188 C 139.597656 25.742188 139.597656 25.742188 139.597656 25.742188 C 139.597656 25.742188 139.21875 24.246094 139.847656 24.121094 C 140.480469 23.996094 140.480469 22.710938 140.480469 22.335938 C 140.480469 21.957031 140.355469 21.316406 139.976562 21.566406 C 139.597656 21.820312 139.34375 22.066406 138.839844 21.6875 C 138.335938 21.308594 138.460938 22.1875 138.460938 22.820312 C 138.460938 23.449219 138.210938 23.824219 137.707031 24.078125 C 137.199219 24.328125 136.824219 24.957031 136.191406 25.210938 C 135.5625 25.460938 135.5625 25.460938 135.058594 25.460938 C 134.550781 25.460938 133.921875 25.585938 133.921875 25.585938 L 131.019531 25.839844 Z M 104.601562 62.945312 C 104.601562 62.945312 104.191406 63.417969 103.5625 63.542969 C 102.929688 63.667969 102.726562 63.90625 102.09375 63.527344 C 101.464844 63.148438 100.351562 62.636719 99.847656 62.132812 C 99.34375 61.628906 99.230469 61.121094 98.726562 60.871094 C 98.21875 60.617188 96.207031 59.480469 95.453125 59.230469 C 94.695312 58.976562 93.941406 58.21875 93.941406 58.21875 L 91.925781 57.714844 L 91.042969 58.347656 L 90.792969 56.203125 L 89.65625 55.449219 L 89.027344 55.320312 L 88.523438 54.566406 L 89.910156 51.164062 L 89.152344 50.785156 L 89.78125 49.652344 L 90.414062 49.777344 L 91.421875 49.148438 L 91.296875 48.140625 L 92.433594 47.003906 L 91.300781 46.375 L 91.300781 45.496094 L 90.574219 45.871094 L 90.496094 46.753906 L 89.910156 47.257812 L 89.910156 46.503906 L 88.933594 45.496094 C 88.933594 45.496094 87.90625 46.125 87.402344 46.25 C 86.898438 46.375 86.132812 45.871094 86.132812 45.871094 C 86.132812 45.871094 84.867188 45.871094 84.238281 45.496094 C 83.605469 45.117188 82.847656 44.738281 82.847656 44.738281 L 80.453125 44.488281 C 80.453125 44.488281 79.820312 43.855469 79.316406 43.605469 C 78.8125 43.351562 77.550781 43.476562 77.550781 43.476562 C 77.550781 43.476562 77.550781 44.109375 78.054688 44.109375 C 78.558594 44.109375 79.441406 44.359375 79.441406 44.992188 C 79.441406 45.621094 79.1875 46.375 78.558594 46.375 C 77.929688 46.375 75.53125 46.503906 75.53125 46.503906 L 74.648438 46.628906 L 73.640625 47.257812 C 73.640625 47.257812 73.136719 47.636719 72.503906 47.886719 C 71.875 48.140625 71.875 49.273438 71.875 49.273438 C 71.875 49.273438 73.007812 50.15625 71.875 50.28125 L 71.117188 50.03125 C 71.117188 50.03125 71.371094 50.535156 70.867188 51.164062 C 70.359375 51.792969 69.605469 52.171875 69.605469 52.171875 L 69.730469 53.179688 L 70.613281 54.1875 L 70.488281 54.691406 L 70.363281 55.574219 C 70.363281 55.574219 69.605469 54.816406 68.972656 54.566406 C 68.34375 54.3125 66.832031 54.3125 66.832031 54.3125 L 65.695312 55.574219 L 65.570312 54.1875 C 65.570312 54.1875 65.066406 53.683594 64.6875 53.054688 C 64.308594 52.421875 63.425781 51.667969 62.792969 51.542969 C 62.164062 51.414062 61.535156 51.289062 61.535156 51.289062 C 61.535156 51.289062 61.28125 51.917969 60.777344 52.171875 C 60.273438 52.425781 59.261719 52.550781 59.261719 52.550781 L 58.507812 53.808594 L 58.128906 53.304688 L 56.867188 53.933594 C 56.867188 53.933594 56.613281 54.691406 56.867188 55.070312 C 57.121094 55.445312 56.238281 55.367188 56.238281 55.367188 L 55.984375 56.671875 L 55.101562 56.671875 C 55.101562 56.671875 55.355469 57.226562 54.976562 57.980469 C 54.597656 58.738281 54.34375 58.164062 54.722656 59.296875 C 54.722656 59.296875 53.96875 59.890625 53.589844 59.515625 C 53.210938 59.136719 53.210938 59.117188 53.210938 59.117188 L 51.949219 58.730469 C 51.949219 58.730469 51.316406 59.355469 51.695312 59.863281 C 52.074219 60.367188 52.328125 61.117188 52.328125 61.117188 L 51.695312 61.875 L 51.316406 63.132812 L 49.679688 59.605469 C 49.679688 59.605469 49.550781 60.738281 48.921875 60.863281 C 48.292969 60.992188 47.15625 61.371094 47.28125 62.125 C 47.410156 62.878906 47.660156 64.644531 47.660156 64.644531 L 46.023438 66.785156 L 45.644531 67.792969 L 43.121094 69.9375 C 43.121094 69.9375 41.609375 70.566406 40.472656 70.820312 C 39.335938 71.070312 38.707031 70.945312 37.949219 71.195312 C 37.195312 71.449219 36.6875 71.699219 35.808594 71.953125 C 34.925781 72.203125 34.042969 73.085938 33.285156 73.085938 C 32.527344 73.085938 30.761719 72.457031 30.761719 72.457031 C 30.761719 72.457031 29.25 73.589844 28.617188 73.84375 C 27.988281 74.09375 27.230469 75.355469 26.726562 75.605469 C 26.222656 75.859375 25.84375 76.234375 24.960938 76.488281 C 24.078125 76.742188 23.574219 77.75 23.320312 78.125 C 23.070312 78.503906 22.429688 78.882812 22.429688 78.882812 L 22.425781 77.117188 L 22.425781 76.613281 L 21.328125 78.253906 C 21.328125 78.253906 21.128906 79.007812 21.378906 80.140625 C 21.632812 81.277344 21.78125 82.285156 21.277344 82.789062 C 20.773438 83.292969 20.28125 83.796875 20.28125 84.554688 C 20.28125 85.308594 21.296875 87.199219 21.800781 87.578125 C 22.308594 87.953125 22.816406 90.222656 22.816406 90.726562 C 22.816406 91.230469 22.4375 92.238281 22.4375 92.238281 C 22.4375 92.238281 21.808594 91.609375 21.175781 90.980469 C 20.546875 90.347656 20.042969 91.105469 20.800781 92.238281 C 21.554688 93.371094 22.441406 94.507812 22.691406 95.136719 C 22.945312 95.765625 23.574219 98.539062 23.574219 98.539062 C 23.574219 98.539062 24.332031 100.175781 24.835938 100.804688 C 25.339844 101.4375 25.339844 103.453125 25.464844 104.460938 C 25.59375 105.46875 26.726562 107.863281 26.726562 107.863281 C 26.726562 107.863281 27.105469 109.625 27.609375 110.257812 C 28.113281 110.886719 27.863281 112.902344 27.863281 113.28125 C 27.863281 113.660156 27.988281 116.304688 27.988281 116.304688 L 26.347656 117.691406 L 25.84375 117.5625 L 25.972656 119.582031 C 25.972656 119.582031 26.476562 119.582031 27.230469 120.210938 C 27.988281 120.839844 29.125 121.847656 29.628906 122.101562 C 30.132812 122.351562 30.511719 122.226562 31.140625 122.476562 C 31.773438 122.730469 32.65625 122.605469 33.285156 122.730469 C 33.917969 122.855469 34.671875 122.730469 34.671875 122.730469 C 34.671875 122.730469 34.925781 122.476562 35.683594 121.847656 C 36.4375 121.21875 37.953125 120.589844 38.457031 120.460938 C 38.960938 120.335938 39.589844 119.582031 39.589844 119.582031 C 39.589844 119.582031 40.601562 118.195312 41.484375 118.195312 C 42.367188 118.195312 44.003906 118.320312 44.382812 118.320312 C 44.761719 118.320312 46.273438 117.941406 46.90625 117.941406 C 47.535156 117.941406 49.425781 118.320312 50.183594 118.320312 C 50.941406 118.320312 52.203125 117.816406 52.203125 117.816406 C 52.203125 117.816406 53.335938 117.1875 53.335938 116.683594 C 53.335938 116.179688 53.210938 115.171875 54.472656 114.792969 C 55.734375 114.414062 56.238281 114.289062 57.246094 113.785156 C 58.253906 113.28125 58.382812 112.148438 59.769531 112.273438 C 61.15625 112.398438 63.550781 112.273438 64.433594 112.148438 C 65.316406 112.019531 66.199219 111.769531 67.207031 111.140625 C 68.21875 110.507812 70.738281 110.003906 72.378906 110.003906 C 74.019531 110.003906 74.902344 109.753906 75.910156 110.003906 C 76.917969 110.257812 77.046875 111.011719 78.558594 111.390625 C 80.074219 111.769531 80.703125 112.019531 81.585938 112.273438 C 82.46875 112.523438 82.847656 113.027344 83.855469 113.28125 C 84.863281 113.53125 84.738281 114.164062 84.738281 114.164062 C 84.738281 114.164062 83.601562 114.539062 84.484375 115.296875 C 85.371094 116.050781 86.25 116.304688 86.25 116.304688 C 86.25 116.304688 86.378906 116.933594 86.882812 117.816406 C 87.386719 118.699219 87.640625 119.582031 87.890625 120.210938 C 88.144531 120.839844 87.765625 121.34375 87.765625 121.34375 L 89.53125 122.351562 L 90.160156 121.722656 L 89.910156 121.21875 C 89.910156 121.21875 90.917969 119.832031 91.421875 119.328125 C 91.925781 118.824219 92.429688 118.195312 92.9375 118.070312 C 93.441406 117.945312 93.441406 117.945312 93.441406 117.945312 L 95.078125 115.046875 L 95.457031 113.53125 C 95.457031 113.53125 95.710938 114.289062 95.960938 115.296875 C 96.214844 116.304688 95.960938 115.925781 95.835938 116.808594 C 95.710938 117.691406 95.332031 117.566406 94.953125 118.699219 C 94.574219 119.832031 94.828125 120.96875 94.449219 121.597656 C 94.070312 122.226562 92.808594 122.605469 92.808594 122.605469 C 92.808594 122.605469 92.179688 123.234375 92.558594 123.359375 C 92.933594 123.488281 93.566406 123.488281 94.324219 123.488281 C 95.078125 123.488281 95.835938 121.722656 95.835938 121.722656 L 96.339844 119.960938 C 96.339844 119.960938 98.230469 120.96875 97.726562 122.730469 C 97.222656 124.496094 96.71875 125.25 96.71875 125.25 C 96.71875 125.25 99.113281 124.242188 99.746094 124.117188 C 100.375 123.992188 99.996094 125.375 99.996094 125.375 C 99.996094 125.375 100.503906 126.007812 101.132812 126.890625 C 101.761719 127.769531 101.890625 129.03125 101.386719 129.785156 C 101.386719 129.785156 101.761719 131.300781 102.140625 131.675781 C 102.519531 132.054688 103.023438 132.054688 103.402344 132.683594 C 103.78125 133.316406 104.664062 133.945312 105.546875 134.324219 C 106.429688 134.699219 106.679688 135.457031 106.679688 135.457031 C 106.679688 135.457031 107.691406 134.828125 108.574219 135.203125 C 109.457031 135.582031 110.339844 135.582031 110.96875 135.960938 C 111.601562 136.339844 112.609375 137.222656 112.609375 137.222656 C 112.609375 137.222656 114.121094 136.96875 114.753906 136.214844 C 115.382812 135.457031 116.769531 134.828125 116.769531 134.828125 L 115.886719 134.199219 L 117.652344 133.441406 L 117.78125 135.203125 L 119.167969 135.078125 C 119.167969 135.078125 118.914062 135.582031 119.292969 135.960938 C 119.671875 136.339844 120.175781 136.464844 120.679688 136.96875 C 121.183594 137.472656 122.023438 138.230469 122.023438 138.230469 L 122.613281 137.222656 L 122.613281 136.464844 C 122.613281 136.464844 123.316406 136.84375 123.945312 136.339844 C 124.578125 135.835938 125.464844 134.953125 126.601562 134.199219 C 127.734375 133.441406 129.378906 132.683594 130.136719 133.0625 C 130.890625 133.441406 132.15625 132.9375 132.15625 132.9375 L 132.28125 132.179688 L 133.164062 131.171875 C 133.164062 131.171875 132.785156 130.164062 132.914062 129.789062 C 133.039062 129.410156 133.417969 128.148438 133.417969 128.148438 L 133.921875 125.503906 C 133.921875 125.503906 134.804688 123.738281 134.929688 123.363281 C 135.054688 122.984375 135.9375 121.34375 136.316406 120.339844 C 136.695312 119.328125 137.199219 117.816406 137.199219 117.816406 C 137.199219 117.816406 137.703125 115.929688 138.335938 115.296875 C 138.964844 114.667969 139.847656 114.289062 140.480469 113.15625 C 141.109375 112.023438 142.117188 110.886719 142.246094 109.628906 C 142.371094 108.367188 142.621094 106.605469 142.875 105.46875 C 143.128906 104.335938 143.757812 101.941406 143.757812 100.429688 C 143.757812 98.917969 143.632812 97.53125 143.128906 95.644531 C 142.621094 93.753906 142.496094 92.492188 142.371094 91.484375 C 142.246094 90.476562 142.246094 90.226562 141.738281 88.964844 C 141.234375 87.707031 140.480469 86.191406 140.101562 86.066406 C 139.722656 85.941406 139.597656 86.066406 139.09375 85.3125 C 138.585938 84.554688 137.957031 84.175781 137.957031 84.175781 L 137.199219 83.800781 C 137.199219 83.800781 135.6875 82.792969 135.558594 82.035156 C 135.433594 81.277344 134.929688 78.757812 134.929688 78.757812 L 134.425781 79.261719 L 133.289062 77.75 C 133.289062 77.75 132.535156 78.003906 132.535156 78.382812 C 132.535156 78.757812 132.03125 78.757812 132.03125 78.757812 L 131.398438 75.988281 L 130.644531 75.359375 L 130.136719 73.71875 L 128.878906 72.964844 C 128.878906 72.964844 129.003906 71.828125 129.382812 72.082031 C 129.761719 72.332031 128.371094 71.074219 128.371094 71.074219 L 127.867188 71.324219 L 126.101562 70.191406 L 125.09375 68.554688 C 125.09375 68.554688 124.71875 69.308594 123.582031 68.554688 C 122.449219 67.796875 121.566406 67.546875 121.566406 67.546875 L 121.566406 66.160156 C 121.566406 66.160156 120.714844 65.78125 120.714844 65.152344 C 120.714844 64.523438 121.265625 63.261719 121.011719 62.507812 C 120.757812 61.75 120.40625 60.996094 120.40625 60.996094 C 120.40625 60.996094 119.59375 61.121094 119.34375 59.984375 C 119.089844 58.851562 118.785156 56.332031 118.785156 56.332031 L 118.785156 55.070312 C 118.785156 55.070312 118 54.566406 117.367188 53.8125 C 116.738281 53.054688 116.3125 52.425781 116.3125 52.425781 C 116.3125 52.425781 115.53125 52.804688 114.777344 52.804688 C 114.019531 52.804688 113.628906 51.796875 113.628906 51.796875 C 113.628906 51.796875 113.496094 50.285156 113.246094 49.652344 C 112.992188 49.023438 112.738281 48.269531 112.738281 48.269531 L 112.609375 47.386719 L 111.851562 46.785156 L 111.976562 45.554688 L 110.96875 45.554688 L 110.84375 42.21875 L 110.464844 41.398438 L 109.332031 42.125 C 109.332031 42.125 109.457031 42.363281 109.078125 42.992188 C 108.699219 43.621094 108.195312 44.117188 108.195312 44.621094 C 108.195312 45.125 107.4375 45.878906 107.4375 45.878906 L 106.933594 47.136719 C 106.933594 47.136719 107.691406 47.386719 107.4375 48.144531 C 107.1875 48.898438 107.5625 49.277344 107.1875 50.285156 C 106.808594 51.292969 106.933594 51.671875 107.058594 52.929688 C 107.1875 54.191406 107.4375 54.945312 107.058594 55.828125 C 106.679688 56.710938 106.679688 57.339844 106.175781 58.601562 C 105.671875 59.859375 105.042969 60.992188 104.914062 61.75 C 104.789062 62.503906 104.601562 62.945312 104.601562 62.945312 Z M 72.757812 43.605469 C 72.757812 43.605469 73.386719 44.863281 74.019531 44.992188 C 74.648438 45.117188 75.28125 44.738281 75.660156 44.359375 C 76.035156 43.984375 75.785156 43.226562 75.40625 43.226562 C 75.027344 43.226562 74.902344 43.730469 74.269531 43.605469 C 73.640625 43.476562 72.757812 43.605469 72.757812 43.605469 Z M 71.75 45.207031 L 73.011719 45.207031 L 72.128906 44.070312 Z M 96.46875 125.878906 L 96.042969 125.691406 L 95.332031 125.375 L 94.574219 124.621094 L 91.675781 125.753906 C 91.675781 125.753906 92.054688 126.636719 92.9375 126.636719 C 93.820312 126.636719 94.828125 126.761719 94.828125 126.761719 C 94.828125 126.761719 94.703125 125.753906 96.46875 125.878906 Z M 116.992188 144.527344 C 116.992188 144.527344 117.007812 146.292969 117.511719 147.425781 C 118.015625 148.558594 118.65625 149.695312 119.03125 150.324219 C 119.410156 150.953125 119.414062 150.953125 119.414062 150.953125 L 119.164062 151.457031 L 118.660156 151.078125 L 119.039062 152.84375 C 119.039062 152.84375 119.703125 153.851562 120.082031 154.355469 C 120.460938 154.859375 120.871094 155.238281 120.871094 155.238281 C 121.566406 155.238281 120.871094 155.742188 120.871094 155.742188 C 120.871094 155.742188 121.628906 156.371094 122.132812 156.371094 C 122.636719 156.371094 123.296875 156.496094 123.296875 156.496094 C 123.296875 156.496094 123.566406 155.109375 124.070312 154.859375 C 124.574219 154.605469 124.960938 154.984375 125.210938 154.355469 C 125.464844 153.726562 125.34375 152.96875 125.972656 153.09375 C 126.605469 153.21875 127.238281 152.96875 127.238281 152.214844 C 127.238281 151.457031 127.742188 150.953125 127.867188 150.195312 C 127.996094 149.441406 127.996094 148.8125 127.996094 148.054688 C 127.996094 147.300781 127.742188 145.789062 127.742188 145.789062 L 127.113281 144.78125 C 127.113281 144.78125 126.859375 145.535156 126.101562 145.15625 C 126.101562 145.15625 125.21875 145.914062 124.84375 145.914062 C 124.464844 145.914062 124.464844 145.789062 123.832031 146.039062 C 123.203125 146.292969 123.453125 146.292969 122.320312 146.164062 C 121.183594 146.039062 121.4375 146.667969 120.554688 145.914062 C 119.671875 145.15625 119.671875 145.03125 119.039062 144.90625 C 118.410156 144.78125 118.410156 144.78125 118.410156 144.78125 Z M 200.730469 146.417969 L 200.242188 147.804688 C 200.242188 147.804688 199.617188 148.179688 199.238281 148.683594 C 198.859375 149.1875 198.359375 149.441406 198.359375 150.070312 C 198.359375 150.699219 197.730469 152.214844 197.101562 152.84375 C 196.472656 153.472656 196.472656 154.101562 195.96875 154.101562 C 195.464844 154.101562 194.832031 154.859375 194.832031 154.859375 C 194.832031 154.859375 194.582031 155.613281 193.949219 155.867188 C 193.320312 156.121094 191.050781 157.757812 191.050781 157.757812 L 188.90625 158.511719 C 188.90625 158.511719 188.78125 159.015625 188.277344 159.519531 C 187.769531 160.023438 188.023438 160.152344 187.644531 160.65625 C 187.265625 161.160156 186.761719 161.160156 186.761719 161.789062 C 186.761719 162.417969 186.007812 162.546875 186.007812 162.546875 L 185.125 163.425781 C 185.125 163.425781 184.617188 164.308594 184.746094 164.6875 C 184.871094 165.066406 184.113281 166.199219 184.113281 166.199219 L 184.242188 167.332031 C 184.242188 167.332031 184.871094 168.46875 185.753906 167.964844 C 186.636719 167.460938 187.394531 168.089844 187.394531 168.089844 L 188.90625 168.972656 C 188.90625 168.972656 189.664062 169.851562 190.042969 169.726562 C 190.421875 169.601562 191.175781 169.222656 191.175781 169.222656 C 191.175781 169.222656 191.808594 170.230469 192.941406 169.347656 C 194.078125 168.46875 194.582031 168.59375 195.085938 168.089844 C 195.589844 167.585938 196.472656 166.953125 196.472656 166.953125 C 196.472656 166.953125 196.472656 165.949219 196.851562 165.316406 C 197.230469 164.6875 197.355469 163.554688 197.609375 163.050781 C 197.859375 162.546875 198.238281 161.160156 198.363281 160.527344 C 198.492188 159.898438 198.363281 158.007812 198.871094 158.261719 C 199.375 158.511719 200.507812 157.882812 200.507812 157.882812 L 201.769531 157.503906 L 203.535156 157.757812 L 203.410156 157.128906 L 202.652344 156.875 L 203.03125 154.859375 C 203.03125 154.859375 203.285156 153.976562 204.292969 153.222656 C 205.300781 152.464844 205.804688 151.078125 206.183594 150.703125 C 206.5625 150.324219 207.320312 148.308594 207.320312 148.308594 C 207.320312 148.308594 206.5625 147.675781 206.816406 147.046875 C 207.066406 146.417969 207.066406 146.417969 207.066406 146.417969 L 206.058594 146.796875 L 205.804688 145.535156 C 205.804688 145.535156 205.113281 146.417969 204.484375 146.921875 C 203.851562 147.425781 203.667969 146.921875 203.667969 146.542969 C 203.667969 146.164062 203.667969 145.660156 203.667969 145.660156 L 202.75 145.15625 L 202.574219 144.023438 L 201.792969 144.78125 L 200.648438 145.285156 Z M 208.800781 147.300781 L 209.953125 147.675781 L 210.96875 148.054688 L 212.359375 147.046875 C 212.359375 147.046875 213.875 143.898438 214.503906 143.269531 C 215.136719 142.636719 215.769531 140.875 215.769531 140.875 L 215.265625 139.613281 C 215.265625 139.613281 215.273438 138.730469 216.40625 138.480469 C 217.542969 138.226562 217.929688 137.976562 217.929688 137.976562 L 217.929688 138.605469 L 218.835938 138.351562 L 218.5 137.347656 L 218.773438 136.589844 L 219.792969 136.085938 C 219.792969 136.085938 219.671875 133.945312 220.050781 133.1875 L 220.304688 132.683594 L 218.792969 132.179688 L 217.40625 132.9375 L 216.652344 133.691406 C 216.652344 133.691406 216.019531 134.070312 214.886719 133.441406 C 213.75 132.808594 212.867188 132.683594 212.867188 132.683594 L 212.109375 131.800781 L 211.734375 129.28125 L 210.722656 128.398438 C 210.722656 128.398438 211.355469 130.917969 210.722656 130.792969 C 210.09375 130.667969 210.09375 130.039062 210.09375 130.039062 L 209.210938 129.785156 L 208.582031 129.15625 L 208.832031 128.148438 L 207.824219 126.007812 L 207.949219 125.25 L 207.195312 123.988281 L 206.183594 122.605469 L 204.546875 121.972656 L 203.285156 121.46875 L 203.789062 122.605469 L 204.039062 123.988281 L 205.804688 126.886719 C 205.804688 126.886719 206.941406 126.886719 207.320312 127.265625 C 207.699219 127.644531 207.570312 128.398438 207.570312 128.398438 L 207.949219 130.039062 C 207.949219 130.039062 209.085938 130.542969 208.453125 130.667969 C 207.824219 130.792969 208.582031 131.425781 208.582031 131.425781 L 208.957031 132.304688 L 209.085938 133.566406 L 208.957031 134.449219 L 208.203125 134.699219 C 208.203125 134.699219 208.832031 135.582031 207.949219 136.714844 C 207.066406 137.851562 206.308594 138.355469 205.933594 138.605469 C 205.554688 138.859375 205.679688 139.488281 206.183594 139.738281 C 206.6875 139.992188 207.320312 140.371094 207.699219 140.746094 C 208.078125 141.125 208.582031 141.503906 209.085938 141.628906 C 209.589844 141.753906 210.472656 141.882812 210.347656 143.015625 C 210.21875 144.148438 209.714844 145.15625 209.335938 145.660156 C 208.957031 146.164062 208.136719 146.796875 208.800781 147.300781 Z M 208.800781 147.300781 " fill-opacity="1" fill-rule="nonzero"/></g></svg>