<?xml version="1.0" encoding="UTF-8"?><svg xmlns="http://www.w3.org/2000/svg" xmlns:xlink="http://www.w3.org/1999/xlink" contentScriptType="text/ecmascript" width="240" zoomAndPan="magnify" contentStyleType="text/css" viewBox="0 0 240 187.499995" height="187.499995" preserveAspectRatio="xMidYMid meet" version="1.0"><defs><clipPath id="clip-0"><path d="M 80.015625 30.664062 L 160.050781 30.664062 L 160.050781 126 L 80.015625 126 Z M 80.015625 30.664062 " clip-rule="nonzero"/></clipPath><clipPath id="clip-1"><path d="M 102 133 L 126 133 L 126 156.328125 L 102 156.328125 Z M 102 133 " clip-rule="nonzero"/></clipPath></defs><g clip-path="url(#clip-0)"><path fill="rgb(65.098572%, 65.098572%, 65.098572%)" d="M 114.316406 125.863281 C 108 125.863281 102.882812 120.75 102.882812 114.441406 L 102.882812 99.210938 C 102.882812 92.898438 108 87.785156 114.316406 87.785156 C 116.613281 87.761719 137.183594 83.976562 137.183594 68.746094 C 137.183594 61.128906 129.558594 53.515625 118.125 53.515625 C 108.824219 53.515625 102.882812 61.128906 102.882812 64.9375 C 102.882812 71.246094 97.761719 76.363281 91.449219 76.363281 C 85.132812 76.363281 80.015625 71.246094 80.015625 64.9375 C 80.015625 46.363281 97.46875 30.667969 118.125 30.667969 C 148.617188 30.667969 160.050781 53.445312 160.050781 72.554688 C 160.050781 88.335938 151.371094 100.402344 135.609375 106.519531 C 132.179688 107.855469 128.785156 108.753906 125.75 109.363281 L 125.75 114.441406 C 125.75 120.75 120.628906 125.863281 114.316406 125.863281 Z M 114.316406 125.863281 " fill-opacity="1" fill-rule="nonzero"/></g><g clip-path="url(#clip-1)"><path fill="rgb(65.098572%, 65.098572%, 65.098572%)" d="M 125.75 144.90625 C 125.75 145.65625 125.675781 146.398438 125.527344 147.132812 C 125.382812 147.867188 125.164062 148.582031 124.878906 149.277344 C 124.589844 149.96875 124.238281 150.628906 123.820312 151.25 C 123.40625 151.875 122.929688 152.453125 122.398438 152.980469 C 121.867188 153.511719 121.292969 153.984375 120.667969 154.402344 C 120.042969 154.820312 119.382812 155.171875 118.691406 155.457031 C 117.996094 155.746094 117.28125 155.960938 116.546875 156.109375 C 115.808594 156.253906 115.066406 156.328125 114.316406 156.328125 C 113.5625 156.328125 112.820312 156.253906 112.085938 156.109375 C 111.347656 155.960938 110.632812 155.746094 109.941406 155.457031 C 109.246094 155.171875 108.585938 154.820312 107.960938 154.402344 C 107.339844 153.984375 106.761719 153.511719 106.230469 152.980469 C 105.699219 152.453125 105.226562 151.875 104.808594 151.25 C 104.390625 150.628906 104.039062 149.96875 103.75 149.277344 C 103.464844 148.582031 103.246094 147.867188 103.101562 147.132812 C 102.953125 146.398438 102.882812 145.65625 102.882812 144.90625 C 102.882812 144.15625 102.953125 143.410156 103.101562 142.675781 C 103.246094 141.941406 103.464844 141.226562 103.75 140.53125 C 104.039062 139.839844 104.390625 139.179688 104.808594 138.558594 C 105.226562 137.933594 105.699219 137.355469 106.230469 136.828125 C 106.761719 136.296875 107.339844 135.824219 107.960938 135.40625 C 108.585938 134.988281 109.246094 134.636719 109.941406 134.351562 C 110.632812 134.0625 111.347656 133.847656 112.085938 133.699219 C 112.820312 133.554688 113.5625 133.480469 114.316406 133.480469 C 115.066406 133.480469 115.808594 133.554688 116.546875 133.699219 C 117.28125 133.847656 117.996094 134.0625 118.691406 134.351562 C 119.382812 134.636719 120.042969 134.988281 120.667969 135.40625 C 121.292969 135.824219 121.867188 136.296875 122.398438 136.828125 C 122.929688 137.355469 123.40625 137.933594 123.820312 138.558594 C 124.238281 139.179688 124.589844 139.839844 124.878906 140.53125 C 125.164062 141.226562 125.382812 141.941406 125.527344 142.675781 C 125.675781 143.410156 125.75 144.15625 125.75 144.90625 Z M 125.75 144.90625 " fill-opacity="1" fill-rule="nonzero"/></g></svg>