<?xml version="1.0" encoding="UTF-8"?><svg xmlns="http://www.w3.org/2000/svg" xmlns:xlink="http://www.w3.org/1999/xlink" contentScriptType="text/ecmascript" width="240" zoomAndPan="magnify" contentStyleType="text/css" viewBox="0 0 240 187.499995" height="187.499995" preserveAspectRatio="xMidYMid meet" version="1.0"><defs><clipPath id="clip-0"><path d="M 71 13.109375 L 168.875 13.109375 L 168.875 173.929688 L 71 173.929688 Z M 71 13.109375 " clip-rule="nonzero"/></clipPath></defs><g clip-path="url(#clip-0)"><path fill="rgb(29.019165%, 73.329163%, 41.178894%)" d="M 91.933594 17.621094 C 91.53125 17.160156 92.164062 16.410156 92.449219 16.351562 C 92.738281 16.292969 92.796875 16.0625 93.082031 15.890625 C 93.371094 15.71875 94.695312 15.3125 94.695312 15.3125 L 95.84375 15.140625 L 98.257812 15.832031 C 98.316406 16.410156 99.0625 17.277344 99.0625 17.277344 L 103.144531 17.101562 C 103.316406 17.679688 104 18.140625 104.863281 18.199219 C 105.726562 18.257812 106.859375 17.449219 106.859375 17.449219 C 106.859375 17.449219 107.34375 17.390625 107.804688 17.332031 C 108.265625 17.277344 107.324219 17.074219 107.007812 17.074219 C 106.691406 17.074219 107.007812 16.871094 107.007812 16.871094 L 111.523438 16.929688 C 111.523438 16.929688 110.457031 17.277344 110.113281 17.332031 C 109.769531 17.390625 109.652344 17.621094 109.652344 17.621094 C 109.652344 17.621094 110.230469 17.851562 110.457031 18.027344 C 110.6875 18.199219 110.746094 18.316406 110.746094 18.316406 L 111.035156 18.777344 C 111.035156 18.777344 111.839844 18.777344 112.128906 18.890625 C 112.414062 19.007812 112.53125 18.949219 113.566406 19.582031 C 114.601562 20.21875 114.082031 21.371094 114.082031 21.371094 C 114.082031 21.371094 114.082031 21.371094 113.738281 21.429688 C 113.394531 21.488281 114.257812 21.777344 114.257812 21.777344 L 114.945312 21.71875 C 114.945312 21.71875 115.175781 21.371094 115.636719 21.371094 C 116.097656 21.371094 116.386719 22.0625 116.386719 22.0625 L 116.84375 21.890625 C 116.84375 21.890625 118.054688 22.988281 118.628906 23.679688 C 119.203125 24.371094 119.03125 25.0625 119.03125 25.0625 C 119.203125 25.0625 120.585938 25.351562 120.757812 25.699219 C 120.929688 26.042969 121.332031 26.273438 121.5625 26.507812 C 121.792969 26.738281 122.023438 27.253906 122.023438 27.253906 L 122.425781 26.96875 C 122.425781 26.96875 122.714844 27.082031 123.289062 27.140625 C 123.863281 27.199219 124.898438 27.140625 125.359375 27.140625 C 125.820312 27.140625 126.453125 26.910156 126.453125 26.910156 L 128.523438 27.371094 C 128.523438 27.371094 129.101562 27.660156 129.558594 27.832031 C 130.019531 28.003906 130.710938 28.351562 130.710938 28.351562 C 130.710938 28.351562 131.632812 28.753906 132.09375 29.101562 C 132.550781 29.449219 132.839844 29.792969 133.128906 30.082031 C 133.414062 30.371094 133.761719 30.660156 133.761719 30.660156 L 134.105469 30.542969 L 134.738281 31.523438 L 135.140625 32.910156 L 135.945312 35.621094 C 135.945312 35.621094 136.175781 35.621094 136.523438 35.792969 C 136.867188 35.964844 137.097656 36.023438 137.097656 36.023438 C 136.925781 36.484375 136.808594 37.523438 136.808594 37.523438 L 136.351562 37.753906 L 136.121094 38.273438 C 136.121094 38.273438 135.488281 38.679688 134.910156 39.140625 C 134.335938 39.601562 134.164062 40.292969 134.164062 40.292969 L 134.105469 40.871094 C 134.335938 40.929688 134.277344 41.679688 134.277344 41.679688 L 134.683594 41.792969 L 134.910156 41.273438 L 135.488281 41.21875 L 135.371094 41.449219 L 135.085938 41.621094 L 135.601562 42.140625 L 135.773438 43.351562 L 138.25 43.292969 L 138.191406 44.445312 L 138.59375 44.390625 C 138.59375 44.390625 138.710938 43.988281 138.882812 43.757812 C 139.054688 43.523438 138.941406 43.179688 139.226562 42.890625 C 139.515625 42.605469 140.320312 42.433594 140.320312 42.433594 L 140.492188 41.632812 L 140.839844 41.472656 C 140.839844 41.472656 141.125 40.75 141.929688 40.691406 C 142.738281 40.632812 144.289062 41.535156 144.289062 41.535156 L 145.039062 41.535156 C 145.039062 41.535156 145.84375 41.953125 146.304688 42.125 C 146.761719 42.296875 146.707031 42.945312 146.707031 42.945312 L 147.570312 42.484375 C 147.914062 42.484375 148.375 43.292969 148.375 43.292969 L 148.144531 44.042969 L 148.546875 43.988281 L 148.894531 44.277344 L 148.546875 45.144531 C 149.179688 45.433594 150.445312 44.285156 150.445312 44.285156 L 150.847656 44.699219 L 151.425781 44.664062 C 151.425781 44.664062 152.289062 45.054688 153.265625 45.34375 C 154.242188 45.628906 156.113281 45.675781 156.113281 45.675781 L 158.097656 45.675781 C 158.097656 45.675781 159.25 46.097656 160.226562 46.792969 C 161.207031 47.484375 162.011719 48.3125 162.644531 48.886719 C 163.277344 49.464844 163.96875 49.925781 163.96875 49.925781 L 164.371094 49.867188 L 164.832031 49.984375 C 164.832031 49.984375 165.289062 50.042969 166.441406 50.15625 C 167.589844 50.273438 168.050781 51.367188 168.167969 52.117188 C 168.28125 52.867188 168.742188 53.332031 168.742188 53.332031 C 168.742188 53.332031 168.457031 55.925781 167.878906 57.945312 C 167.304688 59.964844 164.886719 61.636719 164.371094 62.15625 C 163.851562 62.675781 163.105469 62.964844 162.816406 64.175781 C 162.527344 65.386719 161.148438 66.484375 161.148438 66.484375 C 161.148438 66.484375 161.148438 66.484375 160.574219 66.597656 C 159.996094 66.714844 159.824219 68.097656 159.765625 69.425781 C 159.710938 70.753906 160.113281 72.714844 160.113281 72.714844 L 159.25 76.867188 L 158.730469 77.386719 L 158.269531 80.90625 L 157.582031 81.714844 L 157.292969 82.75 L 155.566406 84.886719 C 155.394531 86.90625 154.761719 86.90625 154.128906 87.195312 C 153.496094 87.484375 153.496094 88.058594 153.265625 88.347656 C 153.035156 88.636719 151.308594 88.464844 151.308594 88.464844 L 150.214844 88.578125 L 149.410156 88.695312 C 149.410156 88.695312 148.664062 88.636719 148.316406 88.636719 C 147.972656 88.636719 148.144531 89.445312 148.144531 89.445312 C 148.144531 89.445312 147.398438 89.386719 147.109375 89.675781 C 146.820312 89.960938 146.074219 90.367188 146.074219 90.367188 C 146.074219 90.367188 145.671875 90.308594 145.324219 90.539062 C 144.980469 90.769531 144.175781 90.941406 144.175781 90.941406 C 144.175781 90.941406 142.449219 92.441406 141.585938 93.019531 C 140.722656 93.597656 139.574219 95.789062 139.574219 95.789062 L 139.746094 97.171875 L 139.917969 98.789062 L 139.515625 101.097656 C 139.515625 101.097656 139.054688 101.671875 138.132812 102.480469 C 137.214844 103.289062 136.292969 106.171875 135.949219 106.632812 C 135.601562 107.097656 134.335938 109 134.335938 109 C 134.335938 109 132.667969 110.269531 132.152344 110.671875 C 131.632812 111.078125 131.574219 112.113281 131.574219 112.113281 L 130.367188 113.671875 C 130.367188 113.671875 129.964844 113.84375 129.042969 115.402344 C 128.125 116.960938 126.683594 117.421875 126.28125 117.308594 C 125.878906 117.191406 123.867188 117.074219 123.867188 117.074219 L 121.507812 116.269531 L 120.125 115.921875 L 119.089844 114.941406 L 118.976562 115.808594 L 119.609375 116.671875 C 119.609375 116.671875 121.851562 118.230469 121.679688 118.691406 C 121.507812 119.152344 121.277344 119.84375 121.621094 120.480469 C 121.96875 121.113281 122.714844 121.113281 122.714844 121.113281 L 122.65625 122.554688 C 122.65625 122.554688 121.621094 124.113281 121.21875 124.632812 C 120.816406 125.152344 120.699219 126.074219 120.699219 126.074219 L 118.628906 126.882812 L 115.867188 127.574219 C 115.867188 127.574219 113.507812 127.921875 112.414062 127.980469 C 111.324219 128.039062 111.035156 127.402344 111.035156 127.402344 L 111.148438 128.785156 C 111.726562 129.535156 111.378906 130.285156 111.378906 130.285156 L 111.09375 130.460938 C 111.09375 130.460938 110.746094 130.980469 110.804688 131.441406 C 110.863281 131.902344 110.976562 131.902344 111.09375 132.652344 C 111.207031 133.402344 110.515625 133.460938 110.113281 133.574219 C 109.710938 133.691406 109.425781 133.980469 108.964844 134.035156 C 108.503906 134.09375 107.753906 133.921875 107.410156 133.804688 C 107.066406 133.691406 106.777344 133.34375 106.375 133.230469 C 105.972656 133.113281 105.742188 132.824219 105.511719 132.59375 C 105.28125 132.363281 105.109375 133.113281 105.109375 133.113281 C 105.109375 133.113281 104.992188 133.921875 105.109375 134.382812 C 105.222656 134.84375 105.28125 135.710938 105.339844 136.230469 C 105.398438 136.746094 105.800781 136.863281 105.800781 136.863281 L 106.316406 137.265625 C 106.085938 137.613281 106.488281 137.554688 106.949219 137.441406 C 107.410156 137.324219 106.949219 136.863281 106.949219 136.863281 L 107.582031 136.804688 L 108.101562 136.574219 C 108.101562 136.574219 108.332031 137.441406 108.332031 138.132812 C 108.332031 138.824219 107.527344 138.765625 107.179688 138.710938 C 106.835938 138.652344 106.949219 138.828125 106.605469 138.539062 C 106.257812 138.25 105.855469 137.902344 105.511719 138.246094 C 105.167969 138.59375 105.800781 138.824219 106.375 139.054688 C 106.949219 139.285156 106.71875 139.515625 106.316406 139.632812 C 105.914062 139.746094 105.453125 140.265625 105.050781 140.726562 C 104.648438 141.191406 105.109375 141.996094 105.109375 141.996094 C 105.109375 141.996094 104.9375 143.265625 104.648438 143.613281 C 104.363281 143.957031 103.902344 144.015625 104.1875 144.304688 C 104.476562 144.59375 104.304688 145.171875 104.304688 145.171875 C 104.304688 145.171875 103.324219 145.113281 102.921875 145.113281 C 102.519531 145.113281 102.234375 145.632812 102.234375 145.632812 C 102.234375 145.632812 101.773438 145.746094 101.484375 145.863281 C 101.195312 145.976562 100.96875 146.441406 100.277344 147.707031 C 99.585938 148.976562 100.335938 149.496094 100.679688 149.84375 C 101.023438 150.1875 101.601562 150.882812 102.234375 151.285156 C 102.867188 151.6875 103.269531 151.34375 103.613281 151.457031 C 103.960938 151.574219 103.960938 151.976562 104.074219 152.382812 C 104.1875 152.785156 103.730469 153.246094 103.730469 153.246094 L 103.785156 154.167969 L 103.5 154.226562 L 103.441406 154.746094 C 103.441406 154.746094 103.097656 154.632812 102.808594 154.804688 C 102.523438 154.976562 101.203125 156.304688 100.566406 156.996094 C 99.933594 157.6875 99.652344 158.496094 99.652344 158.496094 L 99.949219 158.554688 C 99.949219 158.554688 99.332031 160.515625 98.871094 160.746094 C 98.410156 160.976562 97.796875 159.851562 97.796875 159.851562 L 97.796875 160.628906 L 98.117188 161.148438 C 98.117188 161.148438 98.089844 161.148438 97.515625 161.609375 C 96.9375 162.070312 96.765625 162.414062 96.652344 162.933594 C 96.535156 163.453125 96.25 164.027344 96.25 164.027344 L 96.652344 164.082031 C 96.996094 164.886719 96.910156 165.757812 96.910156 165.757812 L 96.191406 165.757812 L 96.59375 166.109375 L 96.996094 166.226562 C 97.167969 166.628906 98.320312 168.359375 98.320312 168.359375 C 98.320312 168.359375 97.628906 168.417969 97.285156 168.304688 C 96.9375 168.1875 96.824219 168.128906 96.363281 168.304688 C 95.902344 168.476562 96.019531 168.589844 95.617188 168.765625 C 95.214844 168.9375 94.523438 169.226562 94.0625 169.457031 C 93.601562 169.6875 93.3125 169.859375 93.3125 169.859375 C 93.3125 169.859375 93.257812 170.667969 93.140625 170.898438 C 93.027344 171.128906 92.910156 171.878906 92.855469 172.398438 C 92.796875 172.917969 92.738281 173.148438 92.453125 173.554688 C 92.164062 173.957031 90.898438 173.035156 90.320312 172.6875 C 89.746094 172.339844 90.035156 171.820312 90.035156 171.820312 L 90.4375 171.589844 L 90.496094 172.167969 C 90.496094 172.167969 90.78125 172.226562 91.011719 171.820312 C 91.242188 171.417969 91.472656 171.417969 91.992188 171.246094 C 92.507812 171.070312 92.625 170.207031 92.625 170.207031 C 92.625 170.207031 92.277344 170.089844 91.992188 169.628906 C 91.703125 169.167969 91.820312 169.285156 91.242188 169.050781 C 90.667969 168.820312 89.746094 169.398438 89.746094 169.398438 L 89.574219 169.050781 L 89.113281 168.820312 C 89.113281 168.820312 89.113281 169.050781 89.632812 168.417969 C 90.148438 167.785156 89.34375 167.148438 89.34375 167.148438 L 89.574219 166.976562 C 89.976562 166.570312 89.34375 166.457031 89.34375 166.457031 C 89.113281 166.917969 88.769531 166.285156 88.480469 166.226562 C 88.195312 166.167969 88.710938 166.339844 88.597656 166.859375 C 88.480469 167.378906 88.195312 166.859375 88.195312 166.859375 C 88.195312 166.859375 88.195312 166.859375 87.964844 167.378906 C 87.734375 167.898438 87.558594 167.148438 87.503906 166.285156 C 87.445312 165.417969 86.925781 164.839844 86.582031 164.496094 C 86.238281 164.148438 86.351562 163.628906 86.351562 163.628906 C 86.351562 163.628906 86.871094 163.515625 87.15625 163.398438 C 87.445312 163.285156 87.101562 162.648438 86.925781 162.878906 C 86.753906 163.109375 86.410156 162.820312 86.292969 162.535156 C 86.179688 162.246094 86.8125 162.304688 86.8125 162.304688 C 86.8125 162.304688 86.351562 161.839844 86.007812 161.785156 C 85.660156 161.726562 85.429688 161.265625 85.429688 160.976562 C 85.429688 160.6875 85.71875 160.804688 85.890625 160.628906 C 86.0625 160.457031 86.007812 159.707031 86.0625 159.417969 C 86.121094 159.128906 86.582031 159.304688 86.582031 159.304688 L 87.042969 159.1875 L 86.753906 158.726562 L 86.925781 157.804688 C 86.925781 157.804688 86.582031 158.152344 86.179688 158.730469 C 85.777344 159.304688 85.949219 156.714844 85.949219 156.714844 L 86.238281 156.488281 L 86.007812 156.214844 L 86.121094 155.882812 L 86.582031 155.882812 L 87.042969 155.949219 L 86.871094 155.324219 C 86.640625 155.496094 85.777344 155.554688 85.777344 155.554688 L 85.433594 154.054688 L 85.664062 153.996094 C 86.007812 154.054688 86.121094 154.804688 86.121094 154.804688 L 86.238281 154.226562 C 86.238281 154.226562 86.46875 154.167969 86.8125 154.339844 C 87.15625 154.515625 87.734375 154.746094 87.734375 154.746094 C 87.734375 154.746094 87.332031 154.285156 87.15625 153.824219 C 86.984375 153.359375 87.042969 153.1875 87.042969 153.1875 C 87.042969 153.1875 86.699219 153.535156 86.351562 153.359375 C 86.007812 153.1875 86.523438 152.898438 86.523438 152.898438 C 86.523438 152.898438 86.523438 152.898438 86.007812 152.613281 C 85.488281 152.324219 85.429688 152.207031 85.71875 151.976562 C 86.007812 151.746094 86.410156 151.574219 86.410156 151.574219 C 86.0625 151.398438 86.179688 151.457031 86.46875 151.167969 C 86.753906 150.878906 86.351562 150.648438 86.007812 150.363281 C 85.660156 150.074219 85.605469 150.246094 85.257812 150.535156 C 84.914062 150.824219 84.394531 150.074219 84.164062 149.902344 C 83.9375 149.730469 83.589844 150.25 83.589844 150.25 C 83.878906 150.363281 83.648438 150.945312 83.648438 150.945312 C 83.246094 150.945312 83.1875 150.546875 83.1875 150.546875 L 83.417969 149.804688 C 84.050781 149.285156 84.394531 148.90625 84.394531 148.90625 C 84.394531 148.90625 84.394531 148.945312 84.683594 148.832031 C 84.972656 148.714844 84.914062 148.558594 84.914062 148.558594 L 84.625 148.558594 C 84.164062 148.558594 84.28125 147.816406 84.28125 147.816406 L 84.914062 147.535156 C 84.914062 147.535156 85.144531 147.765625 85.316406 147.765625 C 85.488281 147.765625 85.777344 147.59375 85.777344 147.59375 L 86.121094 147.824219 C 85.835938 148.226562 86.351562 148.34375 86.351562 148.34375 L 86.292969 148.574219 C 85.835938 148.976562 86.523438 149.382812 86.523438 149.382812 L 86.925781 149.035156 C 86.925781 149.035156 87.042969 149.726562 87.15625 149.496094 C 87.273438 149.265625 87.734375 148.746094 87.734375 148.746094 C 87.734375 148.746094 88.019531 147.824219 88.078125 147.652344 C 88.136719 147.476562 87.445312 148.632812 87.445312 148.632812 L 87.558594 147.421875 L 87.90625 147.363281 L 87.847656 147.132812 L 88.191406 146.902344 L 88.242188 146.613281 L 87.660156 146.84375 C 87.660156 146.84375 87.417969 146.613281 87.703125 146.265625 C 87.992188 145.917969 88.136719 146.152344 88.597656 146.382812 C 89.058594 146.613281 88.902344 146.523438 88.902344 146.523438 L 88.902344 146.265625 C 88.902344 146.265625 88.71875 146.09375 88.433594 145.976562 C 88.144531 145.863281 87.847656 145.804688 87.847656 145.804688 L 88.078125 145.167969 C 88.078125 145.167969 88.078125 145.167969 88.539062 145.113281 C 89 145.054688 88.652344 145.402344 89.171875 144.535156 C 89.6875 143.667969 88.882812 143.207031 88.480469 142.863281 C 88.078125 142.515625 88.078125 142.402344 88.078125 142.402344 L 88.367188 142.285156 L 88.539062 141.765625 L 88.765625 141.363281 C 88.765625 141.363281 89.167969 141.304688 88.710938 140.84375 C 88.25 140.382812 88.707031 140.09375 88.9375 139.6875 C 89.167969 139.285156 89.105469 138.246094 89.105469 138.246094 L 89.445312 137.957031 C 89.445312 137.957031 89.089844 137.554688 89.261719 137.210938 C 89.433594 136.863281 89.695312 137.441406 89.695312 137.441406 L 89.589844 136.460938 L 88.898438 136.316406 L 88.898438 135.941406 L 89.925781 135.421875 C 89.46875 135.710938 89.457031 135.246094 89.054688 135.015625 C 88.652344 134.785156 88.59375 135.191406 88.363281 135.535156 C 88.132812 135.882812 87.273438 135.535156 87.273438 135.535156 C 87.273438 135.074219 86.8125 134.960938 86.8125 134.960938 C 86.464844 134.265625 87.097656 132.304688 87.097656 132.304688 L 87.214844 130.515625 C 88.480469 128.613281 87.273438 126.996094 87.273438 126.996094 C 87.730469 126.25 87.214844 124.980469 87.214844 124.980469 L 87.328125 123.535156 C 87.328125 123.535156 87.5 123.191406 87.730469 123.25 C 87.960938 123.304688 88.136719 123.304688 88.136719 123.304688 C 88.136719 123.304688 88.136719 122.730469 88.25 122.039062 C 88.363281 121.34375 88.59375 121.921875 88.59375 121.921875 L 89.226562 120.132812 C 89.226562 120.132812 89.6875 118.863281 90.207031 117.824219 C 90.726562 116.789062 91.011719 114.769531 91.011719 114.769531 L 91.359375 114.421875 L 91.421875 112.980469 C 92.167969 111.828125 91.441406 110.355469 91.441406 110.355469 L 91.441406 109.402344 L 91.285156 108.367188 L 91.183594 105.886719 C 91.875 105.539062 91.816406 105.539062 91.875 104.617188 C 91.933594 103.691406 91.644531 103.921875 91.472656 103.460938 C 91.296875 103 91.757812 102.367188 92.105469 101.847656 C 92.449219 101.328125 92.449219 99.941406 92.449219 99.941406 L 92.738281 99.425781 L 92.621094 98.558594 C 92.621094 98.558594 92.851562 98.90625 93.199219 97.75 C 93.542969 96.597656 93.195312 95.789062 93.140625 95.5 C 93.082031 95.210938 93.714844 94.175781 93.714844 94.175781 C 93.714844 94.175781 93.65625 91.464844 93.714844 90.769531 C 93.769531 90.078125 93.652344 90.078125 93.480469 89.789062 C 93.308594 89.5 93.707031 89.097656 93.9375 88.808594 C 94.167969 88.519531 94.21875 87.945312 94.21875 87.425781 C 94.21875 86.90625 94.488281 86.097656 94.546875 85.464844 C 94.605469 84.828125 94.300781 84.308594 94.300781 84.308594 L 94.300781 81.769531 C 94.300781 81.425781 94.09375 80.617188 94.035156 79.925781 C 93.980469 79.234375 93.65625 78.019531 93.65625 78.019531 C 93.65625 78.019531 92.679688 77.5 92.449219 77.269531 C 92.21875 77.039062 91.703125 76.289062 91.414062 76.003906 C 91.125 75.714844 89.917969 75.078125 89.917969 75.078125 C 89.917969 75.078125 89.171875 74.789062 88.539062 74.445312 C 87.902344 74.097656 86.753906 73.753906 86.464844 73.464844 C 86.179688 73.175781 85.601562 72.886719 84.507812 72.308594 C 83.417969 71.734375 82.09375 70.003906 81.804688 69.65625 C 81.519531 69.308594 81.058594 69.136719 81.460938 68.617188 C 81.863281 68.097656 81.519531 67.808594 81.402344 67.40625 C 81.289062 67.003906 80.769531 66.597656 80.597656 66.023438 C 80.425781 65.445312 79.675781 64.867188 79.617188 64.347656 C 79.5625 63.828125 79.042969 63.714844 78.757812 63.484375 C 78.46875 63.253906 78.46875 62.15625 78.296875 61.636719 C 78.125 61.117188 77.203125 59.273438 77.03125 58.867188 C 76.859375 58.464844 76.511719 58.003906 76.339844 57.195312 C 76.167969 56.386719 75.878906 56.617188 75.535156 56.332031 C 75.1875 56.042969 74.785156 55.234375 74.671875 54.832031 C 74.554688 54.425781 74.097656 53.792969 73.578125 53.273438 C 73.058594 52.753906 71.679688 52.003906 71.679688 52.003906 L 71.5625 51.65625 C 72.425781 51.136719 71.792969 50.851562 71.621094 50.675781 C 71.449219 50.503906 71.449219 50.273438 71.449219 49.984375 C 71.449219 49.695312 71.160156 49.292969 71.105469 48.773438 C 71.046875 48.253906 72.140625 47.5625 72.601562 47.101562 C 73.058594 46.636719 73.808594 46.351562 74.097656 45.886719 C 74.382812 45.425781 74.269531 44.621094 74.269531 44.621094 C 74.269531 44.621094 74.152344 44.386719 73.980469 44.101562 C 73.808594 43.8125 73.234375 45.023438 73.234375 45.023438 L 72.945312 44.90625 L 72.140625 44.332031 C 72.140625 44.332031 72.140625 42.714844 72.082031 42.023438 C 72.023438 41.332031 72.601562 41.332031 72.886719 41.042969 C 73.175781 40.753906 72.773438 40.8125 73.234375 40.003906 C 73.691406 39.195312 73.691406 38.851562 73.636719 38.101562 C 73.578125 37.351562 74.210938 37.984375 74.730469 37.640625 C 75.246094 37.292969 75.476562 37.121094 75.820312 37.003906 C 76.167969 36.890625 76.28125 36.714844 76.28125 36.714844 C 75.820312 36.195312 76.222656 35.675781 76.570312 35.675781 C 76.914062 35.675781 76.855469 35.160156 76.972656 34.351562 C 77.085938 33.542969 78.066406 34.121094 78.527344 33.890625 C 78.984375 33.660156 78.984375 32.964844 79.332031 32.445312 C 79.675781 31.929688 80.191406 31.351562 80.191406 31.351562 C 79.675781 31.351562 79.097656 31.695312 79.214844 30.714844 C 79.328125 29.734375 79.324219 29.503906 79.265625 28.929688 C 79.210938 28.351562 79.203125 27.773438 79.375 27.660156 C 79.546875 27.542969 79.359375 26.734375 79.359375 26.101562 C 79.359375 25.464844 78.984375 25.523438 78.695312 25.179688 C 78.410156 24.832031 78.234375 23.96875 78.234375 23.96875 L 78.417969 23.734375 L 78.417969 23.390625 L 78.988281 23.503906 L 79.734375 22.582031 L 79.160156 21.832031 L 79.332031 21.253906 C 79.332031 21.253906 80.367188 22.351562 80.597656 22.699219 C 80.828125 23.042969 80.480469 21.3125 80.480469 21.3125 C 80.480469 21.3125 80.710938 21.253906 81.117188 20.96875 C 81.519531 20.679688 82.152344 19.699219 82.152344 19.699219 L 82.785156 19.523438 C 82.785156 19.523438 83.015625 17.332031 83.128906 17.160156 C 83.246094 16.988281 84.394531 16.410156 84.394531 16.410156 C 84.394531 16.410156 85.027344 15.949219 85.199219 16.351562 C 85.371094 16.757812 85.601562 16.523438 85.777344 16.121094 C 85.949219 15.71875 86.121094 15.660156 86.464844 15.71875 C 86.8125 15.777344 87.960938 15.660156 88.480469 15.371094 C 88.996094 15.082031 89.6875 14.738281 90.207031 14.449219 C 90.722656 14.160156 90.550781 13.757812 90.550781 13.757812 C 91.070312 14.046875 90.894531 13.351562 90.894531 13.351562 C 90.894531 13.351562 91.183594 13.410156 91.414062 13.410156 C 91.644531 13.410156 91.875 13.121094 92.390625 13.640625 C 92.910156 14.160156 91.816406 14.625 91.46875 14.855469 C 91.125 15.085938 90.953125 15.03125 91.296875 16.011719 C 91.640625 16.992188 91.292969 17.457031 91.007812 17.746094 C 90.71875 18.035156 90.601562 18.792969 90.773438 19.195312 C 90.945312 19.597656 91.109375 19.5 91.394531 20.078125 C 91.683594 20.652344 92.253906 20.691406 92.53125 20.28125 C 93.1875 19.308594 92.335938 18.082031 91.933594 17.621094 Z M 91.933594 17.621094 " fill-opacity="1" fill-rule="nonzero"/></g></svg>